G04 #@! TF.GenerationSoftware,KiCad,Pcbnew,6.0.9-8da3e8f707~116~ubuntu20.04.1*
G04 #@! TF.CreationDate,2022-12-22T22:59:07+01:00*
G04 #@! TF.ProjectId,display_10dig,64697370-6c61-4795-9f31-306469672e6b,rev?*
G04 #@! TF.SameCoordinates,Original*
G04 #@! TF.FileFunction,Copper,L1,Top*
G04 #@! TF.FilePolarity,Positive*
%FSLAX46Y46*%
G04 Gerber Fmt 4.6, Leading zero omitted, Abs format (unit mm)*
G04 Created by KiCad (PCBNEW 6.0.9-8da3e8f707~116~ubuntu20.04.1) date 2022-12-22 22:59:07*
%MOMM*%
%LPD*%
G01*
G04 APERTURE LIST*
G04 #@! TA.AperFunction,ComponentPad*
%ADD10R,2.000000X2.000000*%
G04 #@! TD*
G04 #@! TA.AperFunction,ComponentPad*
%ADD11C,2.000000*%
G04 #@! TD*
G04 #@! TA.AperFunction,ComponentPad*
%ADD12R,3.200000X2.000000*%
G04 #@! TD*
G04 #@! TA.AperFunction,ComponentPad*
%ADD13R,1.700000X1.700000*%
G04 #@! TD*
G04 #@! TA.AperFunction,ComponentPad*
%ADD14O,1.700000X1.700000*%
G04 #@! TD*
G04 #@! TA.AperFunction,ComponentPad*
%ADD15R,1.500000X1.700000*%
G04 #@! TD*
G04 #@! TA.AperFunction,ComponentPad*
%ADD16C,1.700000*%
G04 #@! TD*
G04 #@! TA.AperFunction,ComponentPad*
%ADD17R,2.400000X1.600000*%
G04 #@! TD*
G04 #@! TA.AperFunction,ComponentPad*
%ADD18O,2.400000X1.600000*%
G04 #@! TD*
G04 #@! TA.AperFunction,ComponentPad*
%ADD19C,1.800000*%
G04 #@! TD*
G04 #@! TA.AperFunction,ComponentPad*
%ADD20R,1.800000X1.800000*%
G04 #@! TD*
G04 #@! TA.AperFunction,ViaPad*
%ADD21C,0.800000*%
G04 #@! TD*
G04 #@! TA.AperFunction,Conductor*
%ADD22C,0.500000*%
G04 #@! TD*
G04 #@! TA.AperFunction,Conductor*
%ADD23C,0.250000*%
G04 #@! TD*
G04 APERTURE END LIST*
D10*
X153935000Y-129500000D03*
D11*
X153935000Y-124500000D03*
X153935000Y-127000000D03*
D12*
X146435000Y-121400000D03*
X146435000Y-132600000D03*
D11*
X139435000Y-124500000D03*
X139435000Y-129500000D03*
D13*
X111760000Y-50800000D03*
D14*
X111760000Y-48260000D03*
X114300000Y-50800000D03*
X114300000Y-48260000D03*
X116840000Y-50800000D03*
X116840000Y-48260000D03*
X119380000Y-50800000D03*
X119380000Y-48260000D03*
X121920000Y-50800000D03*
X121920000Y-48260000D03*
X124460000Y-50800000D03*
X124460000Y-48260000D03*
X127000000Y-50800000D03*
X127000000Y-48260000D03*
X129540000Y-50800000D03*
X129540000Y-48260000D03*
X132080000Y-50800000D03*
X132080000Y-48260000D03*
D15*
X111379000Y-69384000D03*
D16*
X113919000Y-69384000D03*
X116459000Y-69384000D03*
X118999000Y-69384000D03*
X121539000Y-69384000D03*
X124079000Y-69384000D03*
X126619000Y-69384000D03*
X126619000Y-59224000D03*
X124079000Y-59224000D03*
X121539000Y-59224000D03*
X118999000Y-59224000D03*
X116459000Y-59224000D03*
X113919000Y-59224000D03*
X111379000Y-59224000D03*
D13*
X144780000Y-69850000D03*
D14*
X144780000Y-67310000D03*
X147320000Y-69850000D03*
X147320000Y-67310000D03*
X149860000Y-69850000D03*
X149860000Y-67310000D03*
D13*
X142240000Y-50800000D03*
D14*
X142240000Y-48260000D03*
X144780000Y-50800000D03*
X144780000Y-48260000D03*
X147320000Y-50800000D03*
X147320000Y-48260000D03*
X149860000Y-50800000D03*
X149860000Y-48260000D03*
X152400000Y-50800000D03*
X152400000Y-48260000D03*
X154940000Y-50800000D03*
X154940000Y-48260000D03*
D17*
X143510000Y-83185000D03*
D18*
X143510000Y-85725000D03*
X143510000Y-88265000D03*
X143510000Y-90805000D03*
X143510000Y-93345000D03*
X143510000Y-95885000D03*
X143510000Y-98425000D03*
X143510000Y-100965000D03*
X151130000Y-100965000D03*
X151130000Y-98425000D03*
X151130000Y-95885000D03*
X151130000Y-93345000D03*
X151130000Y-90805000D03*
X151130000Y-88265000D03*
X151130000Y-85725000D03*
X151130000Y-83185000D03*
D19*
X146685000Y-109860000D03*
D20*
X146685000Y-112400000D03*
D15*
X74549000Y-69384000D03*
D16*
X77089000Y-69384000D03*
X79629000Y-69384000D03*
X82169000Y-69384000D03*
X84709000Y-69384000D03*
X87249000Y-69384000D03*
X89789000Y-69384000D03*
X89789000Y-59224000D03*
X87249000Y-59224000D03*
X84709000Y-59224000D03*
X82169000Y-59224000D03*
X79629000Y-59224000D03*
X77089000Y-59224000D03*
X74549000Y-59224000D03*
D13*
X88584000Y-139164000D03*
D16*
X91124000Y-139164000D03*
X93664000Y-139164000D03*
X96204000Y-139164000D03*
X98744000Y-139164000D03*
X101284000Y-139164000D03*
X103824000Y-139164000D03*
X106364000Y-139164000D03*
X108904000Y-139164000D03*
X111444000Y-139164000D03*
D21*
X88900000Y-81280000D03*
X106045000Y-81280000D03*
X123190000Y-81280000D03*
X128905000Y-81280000D03*
X94615000Y-81280000D03*
X117475000Y-81280000D03*
X100330000Y-81280000D03*
X111760000Y-81280000D03*
X83185000Y-81280000D03*
X77470000Y-81280000D03*
X129540000Y-56515000D03*
X84490000Y-54011600D03*
X132080000Y-56515000D03*
X127228100Y-82497500D03*
X121146200Y-82559400D03*
X115557500Y-82497500D03*
X108762700Y-83927300D03*
X102590100Y-83927300D03*
X105878900Y-94509400D03*
X94608400Y-86851900D03*
X93345000Y-90170000D03*
X103505000Y-93980000D03*
X75703000Y-82497500D03*
D22*
X142240000Y-50800000D02*
X142240000Y-67310000D01*
X142240000Y-48260000D02*
X142240000Y-50800000D01*
X142240000Y-67310000D02*
X144780000Y-69850000D01*
X144780000Y-50800000D02*
X144780000Y-67310000D01*
X144780000Y-48260000D02*
X144780000Y-50800000D01*
D23*
X139065000Y-70485000D02*
X142875000Y-74295000D01*
X148590000Y-74295000D02*
X151130000Y-71755000D01*
X137477500Y-55245000D02*
X139065000Y-56832500D01*
X114300000Y-52705000D02*
X116840000Y-55245000D01*
X116840000Y-55245000D02*
X137477500Y-55245000D01*
X142875000Y-74295000D02*
X148590000Y-74295000D01*
X114300000Y-50800000D02*
X114300000Y-52705000D01*
X151130000Y-71755000D02*
X151130000Y-68580000D01*
X139065000Y-56832500D02*
X139065000Y-70485000D01*
X151130000Y-68580000D02*
X149860000Y-67310000D01*
X147955000Y-73660000D02*
X149860000Y-71755000D01*
X137796396Y-54610000D02*
X139700000Y-56513604D01*
X118745000Y-54610000D02*
X137796396Y-54610000D01*
X139700000Y-56513604D02*
X139700000Y-69848604D01*
X116840000Y-52705000D02*
X118745000Y-54610000D01*
X149860000Y-71755000D02*
X149860000Y-69850000D01*
X116840000Y-50800000D02*
X116840000Y-52705000D01*
X139700000Y-69848604D02*
X143511396Y-73660000D01*
X143511396Y-73660000D02*
X147955000Y-73660000D01*
X147320000Y-73025000D02*
X144144302Y-73025000D01*
X148590000Y-68580000D02*
X148590000Y-71755000D01*
X144144302Y-73025000D02*
X140335000Y-69215698D01*
X138111802Y-53975000D02*
X120650000Y-53975000D01*
X119380000Y-52705000D02*
X119380000Y-50800000D01*
X140335000Y-56198198D02*
X138111802Y-53975000D01*
X147320000Y-67310000D02*
X148590000Y-68580000D01*
X140335000Y-69215698D02*
X140335000Y-56198198D01*
X148590000Y-71755000D02*
X147320000Y-73025000D01*
X120650000Y-53975000D02*
X119380000Y-52705000D01*
X146685000Y-72390000D02*
X144780000Y-72390000D01*
X140970000Y-68580000D02*
X140970000Y-55880000D01*
X140970000Y-55880000D02*
X138430000Y-53340000D01*
X123190000Y-53340000D02*
X121920000Y-52070000D01*
X147320000Y-71755000D02*
X146685000Y-72390000D01*
X138430000Y-53340000D02*
X123190000Y-53340000D01*
X144780000Y-72390000D02*
X140970000Y-68580000D01*
X147320000Y-69850000D02*
X147320000Y-71755000D01*
X121920000Y-52070000D02*
X121920000Y-50800000D01*
X152655300Y-93345000D02*
X151130000Y-93345000D01*
X136966100Y-46605900D02*
X147328900Y-46605900D01*
X153155400Y-57357500D02*
X153155400Y-92844900D01*
X124460000Y-50800000D02*
X125730000Y-49530000D01*
X153155400Y-92844900D02*
X152655300Y-93345000D01*
X134042000Y-49530000D02*
X136966100Y-46605900D01*
X148590000Y-47867000D02*
X148590000Y-52792100D01*
X148590000Y-52792100D02*
X153155400Y-57357500D01*
X147328900Y-46605900D02*
X148590000Y-47867000D01*
X125730000Y-49530000D02*
X134042000Y-49530000D01*
X139681100Y-47084600D02*
X145306300Y-47084600D01*
X152655300Y-90805000D02*
X151130000Y-90805000D01*
X146050000Y-53506000D02*
X152655300Y-60111300D01*
X146050000Y-47828300D02*
X146050000Y-53506000D01*
X134060700Y-52705000D02*
X139681100Y-47084600D01*
X127000000Y-50800000D02*
X128905000Y-52705000D01*
X145306300Y-47084600D02*
X146050000Y-47828300D01*
X128905000Y-52705000D02*
X134060700Y-52705000D01*
X152655300Y-60111300D02*
X152655300Y-90805000D01*
X129540000Y-66748500D02*
X149604700Y-86813200D01*
X129540000Y-56515000D02*
X129540000Y-66748500D01*
X149604700Y-86813200D02*
X149604700Y-88265000D01*
X149604700Y-88265000D02*
X151130000Y-88265000D01*
X88971600Y-49530000D02*
X120650000Y-49530000D01*
X84490000Y-54011600D02*
X88971600Y-49530000D01*
X120650000Y-49530000D02*
X121920000Y-48260000D01*
X132080000Y-68200300D02*
X149604700Y-85725000D01*
X149604700Y-85725000D02*
X151130000Y-85725000D01*
X132080000Y-56515000D02*
X132080000Y-68200300D01*
X127228100Y-82497500D02*
X141297200Y-82497500D01*
X141297200Y-82497500D02*
X141984700Y-83185000D01*
X143510000Y-83185000D02*
X141984700Y-83185000D01*
X141984700Y-85725000D02*
X124311800Y-85725000D01*
X124311800Y-85725000D02*
X121146200Y-82559400D01*
X143510000Y-85725000D02*
X141984700Y-85725000D01*
X115557500Y-82497500D02*
X121325000Y-88265000D01*
X121325000Y-88265000D02*
X143510000Y-88265000D01*
X143510000Y-90805000D02*
X141984700Y-90805000D01*
X108762700Y-83927300D02*
X115640400Y-90805000D01*
X115640400Y-90805000D02*
X141984700Y-90805000D01*
X112007800Y-93345000D02*
X143510000Y-93345000D01*
X102590100Y-83927300D02*
X112007800Y-93345000D01*
X107254500Y-95885000D02*
X141984700Y-95885000D01*
X105878900Y-94509400D02*
X107254500Y-95885000D01*
X143510000Y-95885000D02*
X141984700Y-95885000D01*
X94608400Y-86851900D02*
X106181500Y-98425000D01*
X106181500Y-98425000D02*
X143510000Y-98425000D01*
X149604700Y-100965000D02*
X151130000Y-100965000D01*
X148417100Y-99777400D02*
X149604700Y-100965000D01*
X93345000Y-90170000D02*
X102952400Y-99777400D01*
X102952400Y-99777400D02*
X148417100Y-99777400D01*
X149604700Y-98425000D02*
X151130000Y-98425000D01*
X106535400Y-97010400D02*
X148190100Y-97010400D01*
X148190100Y-97010400D02*
X149604700Y-98425000D01*
X103505000Y-93980000D02*
X106535400Y-97010400D01*
X151130000Y-95885000D02*
X149604700Y-95885000D01*
X148334700Y-94615000D02*
X108750300Y-94615000D01*
X96632800Y-82497500D02*
X75703000Y-82497500D01*
X149604700Y-95885000D02*
X148334700Y-94615000D01*
X108750300Y-94615000D02*
X96632800Y-82497500D01*
X94803400Y-70559400D02*
X92429500Y-68185500D01*
X80827500Y-68185500D02*
X79629000Y-69384000D01*
X115283600Y-70559400D02*
X94803400Y-70559400D01*
X92429500Y-68185500D02*
X80827500Y-68185500D01*
X116459000Y-69384000D02*
X115283600Y-70559400D01*
X121539000Y-69384000D02*
X119894500Y-71028500D01*
X86353500Y-71028500D02*
X84709000Y-69384000D01*
X119894500Y-71028500D02*
X86353500Y-71028500D01*
X79629000Y-59224000D02*
X78411200Y-60441800D01*
X77055300Y-57595500D02*
X114830500Y-57595500D01*
X75908000Y-58742800D02*
X77055300Y-57595500D01*
X76600200Y-60441800D02*
X75908000Y-59749600D01*
X114830500Y-57595500D02*
X116459000Y-59224000D01*
X78411200Y-60441800D02*
X76600200Y-60441800D01*
X75908000Y-59749600D02*
X75908000Y-58742800D01*
X74549000Y-69384000D02*
X75624300Y-69384000D01*
X77004400Y-67735100D02*
X75624300Y-69115200D01*
X110303700Y-69384000D02*
X108654800Y-67735100D01*
X75624300Y-69115200D02*
X75624300Y-69384000D01*
X111379000Y-69384000D02*
X110303700Y-69384000D01*
X108654800Y-67735100D02*
X77004400Y-67735100D01*
X73473700Y-70369200D02*
X73694800Y-70590300D01*
X111800300Y-67265300D02*
X74561400Y-67265300D01*
X75882700Y-70590300D02*
X77089000Y-69384000D01*
X113919000Y-69384000D02*
X111800300Y-67265300D01*
X73694800Y-70590300D02*
X75882700Y-70590300D01*
X73473700Y-68353000D02*
X73473700Y-70369200D01*
X74561400Y-67265300D02*
X73473700Y-68353000D01*
X122718100Y-69869200D02*
X121108100Y-71479200D01*
X122027700Y-68166000D02*
X122718100Y-68856400D01*
X122718100Y-68856400D02*
X122718100Y-69869200D01*
X118999000Y-69384000D02*
X120217000Y-68166000D01*
X84264200Y-71479200D02*
X82169000Y-69384000D01*
X121108100Y-71479200D02*
X84264200Y-71479200D01*
X120217000Y-68166000D02*
X122027700Y-68166000D01*
X88424400Y-60399400D02*
X122903600Y-60399400D01*
X87249000Y-59224000D02*
X88424400Y-60399400D01*
X122903600Y-60399400D02*
X124079000Y-59224000D01*
X112742800Y-58047800D02*
X113919000Y-59224000D01*
X77089000Y-59224000D02*
X78265200Y-58047800D01*
X78265200Y-58047800D02*
X112742800Y-58047800D01*
G04 #@! TA.AperFunction,Conductor*
G36*
X136211527Y-46248502D02*
G01*
X136258020Y-46302158D01*
X136268124Y-46372432D01*
X136238630Y-46437012D01*
X136232502Y-46443594D01*
X135004595Y-47671500D01*
X133816500Y-48859595D01*
X133754188Y-48893621D01*
X133727405Y-48896500D01*
X133476477Y-48896500D01*
X133408356Y-48876498D01*
X133361863Y-48822842D01*
X133351759Y-48752568D01*
X133355917Y-48733879D01*
X133412370Y-48548069D01*
X133441529Y-48326590D01*
X133443156Y-48260000D01*
X133424852Y-48037361D01*
X133370431Y-47820702D01*
X133281354Y-47615840D01*
X133176975Y-47454495D01*
X133162822Y-47432617D01*
X133162820Y-47432614D01*
X133160014Y-47428277D01*
X133009670Y-47263051D01*
X133005619Y-47259852D01*
X133005615Y-47259848D01*
X132838414Y-47127800D01*
X132838410Y-47127798D01*
X132834359Y-47124598D01*
X132798028Y-47104542D01*
X132782136Y-47095769D01*
X132638789Y-47016638D01*
X132633920Y-47014914D01*
X132633916Y-47014912D01*
X132433087Y-46943795D01*
X132433083Y-46943794D01*
X132428212Y-46942069D01*
X132423119Y-46941162D01*
X132423116Y-46941161D01*
X132213373Y-46903800D01*
X132213367Y-46903799D01*
X132208284Y-46902894D01*
X132134452Y-46901992D01*
X131990081Y-46900228D01*
X131990079Y-46900228D01*
X131984911Y-46900165D01*
X131764091Y-46933955D01*
X131551756Y-47003357D01*
X131353607Y-47106507D01*
X131349474Y-47109610D01*
X131349471Y-47109612D01*
X131194694Y-47225822D01*
X131174965Y-47240635D01*
X131020629Y-47402138D01*
X130913201Y-47559621D01*
X130858293Y-47604621D01*
X130787768Y-47612792D01*
X130724021Y-47581538D01*
X130703324Y-47557054D01*
X130622822Y-47432617D01*
X130622820Y-47432614D01*
X130620014Y-47428277D01*
X130469670Y-47263051D01*
X130465619Y-47259852D01*
X130465615Y-47259848D01*
X130298414Y-47127800D01*
X130298410Y-47127798D01*
X130294359Y-47124598D01*
X130258028Y-47104542D01*
X130242136Y-47095769D01*
X130098789Y-47016638D01*
X130093920Y-47014914D01*
X130093916Y-47014912D01*
X129893087Y-46943795D01*
X129893083Y-46943794D01*
X129888212Y-46942069D01*
X129883119Y-46941162D01*
X129883116Y-46941161D01*
X129673373Y-46903800D01*
X129673367Y-46903799D01*
X129668284Y-46902894D01*
X129594452Y-46901992D01*
X129450081Y-46900228D01*
X129450079Y-46900228D01*
X129444911Y-46900165D01*
X129224091Y-46933955D01*
X129011756Y-47003357D01*
X128813607Y-47106507D01*
X128809474Y-47109610D01*
X128809471Y-47109612D01*
X128654694Y-47225822D01*
X128634965Y-47240635D01*
X128480629Y-47402138D01*
X128373201Y-47559621D01*
X128318293Y-47604621D01*
X128247768Y-47612792D01*
X128184021Y-47581538D01*
X128163324Y-47557054D01*
X128082822Y-47432617D01*
X128082820Y-47432614D01*
X128080014Y-47428277D01*
X127929670Y-47263051D01*
X127925619Y-47259852D01*
X127925615Y-47259848D01*
X127758414Y-47127800D01*
X127758410Y-47127798D01*
X127754359Y-47124598D01*
X127718028Y-47104542D01*
X127702136Y-47095769D01*
X127558789Y-47016638D01*
X127553920Y-47014914D01*
X127553916Y-47014912D01*
X127353087Y-46943795D01*
X127353083Y-46943794D01*
X127348212Y-46942069D01*
X127343119Y-46941162D01*
X127343116Y-46941161D01*
X127133373Y-46903800D01*
X127133367Y-46903799D01*
X127128284Y-46902894D01*
X127054452Y-46901992D01*
X126910081Y-46900228D01*
X126910079Y-46900228D01*
X126904911Y-46900165D01*
X126684091Y-46933955D01*
X126471756Y-47003357D01*
X126273607Y-47106507D01*
X126269474Y-47109610D01*
X126269471Y-47109612D01*
X126114694Y-47225822D01*
X126094965Y-47240635D01*
X125940629Y-47402138D01*
X125833201Y-47559621D01*
X125778293Y-47604621D01*
X125707768Y-47612792D01*
X125644021Y-47581538D01*
X125623324Y-47557054D01*
X125542822Y-47432617D01*
X125542820Y-47432614D01*
X125540014Y-47428277D01*
X125389670Y-47263051D01*
X125385619Y-47259852D01*
X125385615Y-47259848D01*
X125218414Y-47127800D01*
X125218410Y-47127798D01*
X125214359Y-47124598D01*
X125178028Y-47104542D01*
X125162136Y-47095769D01*
X125018789Y-47016638D01*
X125013920Y-47014914D01*
X125013916Y-47014912D01*
X124813087Y-46943795D01*
X124813083Y-46943794D01*
X124808212Y-46942069D01*
X124803119Y-46941162D01*
X124803116Y-46941161D01*
X124593373Y-46903800D01*
X124593367Y-46903799D01*
X124588284Y-46902894D01*
X124514452Y-46901992D01*
X124370081Y-46900228D01*
X124370079Y-46900228D01*
X124364911Y-46900165D01*
X124144091Y-46933955D01*
X123931756Y-47003357D01*
X123733607Y-47106507D01*
X123729474Y-47109610D01*
X123729471Y-47109612D01*
X123574694Y-47225822D01*
X123554965Y-47240635D01*
X123400629Y-47402138D01*
X123293201Y-47559621D01*
X123238293Y-47604621D01*
X123167768Y-47612792D01*
X123104021Y-47581538D01*
X123083324Y-47557054D01*
X123002822Y-47432617D01*
X123002820Y-47432614D01*
X123000014Y-47428277D01*
X122849670Y-47263051D01*
X122845619Y-47259852D01*
X122845615Y-47259848D01*
X122678414Y-47127800D01*
X122678410Y-47127798D01*
X122674359Y-47124598D01*
X122638028Y-47104542D01*
X122622136Y-47095769D01*
X122478789Y-47016638D01*
X122473920Y-47014914D01*
X122473916Y-47014912D01*
X122273087Y-46943795D01*
X122273083Y-46943794D01*
X122268212Y-46942069D01*
X122263119Y-46941162D01*
X122263116Y-46941161D01*
X122053373Y-46903800D01*
X122053367Y-46903799D01*
X122048284Y-46902894D01*
X121974452Y-46901992D01*
X121830081Y-46900228D01*
X121830079Y-46900228D01*
X121824911Y-46900165D01*
X121604091Y-46933955D01*
X121391756Y-47003357D01*
X121193607Y-47106507D01*
X121189474Y-47109610D01*
X121189471Y-47109612D01*
X121034694Y-47225822D01*
X121014965Y-47240635D01*
X120860629Y-47402138D01*
X120753201Y-47559621D01*
X120698293Y-47604621D01*
X120627768Y-47612792D01*
X120564021Y-47581538D01*
X120543324Y-47557054D01*
X120462822Y-47432617D01*
X120462820Y-47432614D01*
X120460014Y-47428277D01*
X120309670Y-47263051D01*
X120305619Y-47259852D01*
X120305615Y-47259848D01*
X120138414Y-47127800D01*
X120138410Y-47127798D01*
X120134359Y-47124598D01*
X120098028Y-47104542D01*
X120082136Y-47095769D01*
X119938789Y-47016638D01*
X119933920Y-47014914D01*
X119933916Y-47014912D01*
X119733087Y-46943795D01*
X119733083Y-46943794D01*
X119728212Y-46942069D01*
X119723119Y-46941162D01*
X119723116Y-46941161D01*
X119513373Y-46903800D01*
X119513367Y-46903799D01*
X119508284Y-46902894D01*
X119434452Y-46901992D01*
X119290081Y-46900228D01*
X119290079Y-46900228D01*
X119284911Y-46900165D01*
X119064091Y-46933955D01*
X118851756Y-47003357D01*
X118653607Y-47106507D01*
X118649474Y-47109610D01*
X118649471Y-47109612D01*
X118494694Y-47225822D01*
X118474965Y-47240635D01*
X118320629Y-47402138D01*
X118213201Y-47559621D01*
X118158293Y-47604621D01*
X118087768Y-47612792D01*
X118024021Y-47581538D01*
X118003324Y-47557054D01*
X117922822Y-47432617D01*
X117922820Y-47432614D01*
X117920014Y-47428277D01*
X117769670Y-47263051D01*
X117765619Y-47259852D01*
X117765615Y-47259848D01*
X117598414Y-47127800D01*
X117598410Y-47127798D01*
X117594359Y-47124598D01*
X117558028Y-47104542D01*
X117542136Y-47095769D01*
X117398789Y-47016638D01*
X117393920Y-47014914D01*
X117393916Y-47014912D01*
X117193087Y-46943795D01*
X117193083Y-46943794D01*
X117188212Y-46942069D01*
X117183119Y-46941162D01*
X117183116Y-46941161D01*
X116973373Y-46903800D01*
X116973367Y-46903799D01*
X116968284Y-46902894D01*
X116894452Y-46901992D01*
X116750081Y-46900228D01*
X116750079Y-46900228D01*
X116744911Y-46900165D01*
X116524091Y-46933955D01*
X116311756Y-47003357D01*
X116113607Y-47106507D01*
X116109474Y-47109610D01*
X116109471Y-47109612D01*
X115954694Y-47225822D01*
X115934965Y-47240635D01*
X115780629Y-47402138D01*
X115673201Y-47559621D01*
X115618293Y-47604621D01*
X115547768Y-47612792D01*
X115484021Y-47581538D01*
X115463324Y-47557054D01*
X115382822Y-47432617D01*
X115382820Y-47432614D01*
X115380014Y-47428277D01*
X115229670Y-47263051D01*
X115225619Y-47259852D01*
X115225615Y-47259848D01*
X115058414Y-47127800D01*
X115058410Y-47127798D01*
X115054359Y-47124598D01*
X115018028Y-47104542D01*
X115002136Y-47095769D01*
X114858789Y-47016638D01*
X114853920Y-47014914D01*
X114853916Y-47014912D01*
X114653087Y-46943795D01*
X114653083Y-46943794D01*
X114648212Y-46942069D01*
X114643119Y-46941162D01*
X114643116Y-46941161D01*
X114433373Y-46903800D01*
X114433367Y-46903799D01*
X114428284Y-46902894D01*
X114354452Y-46901992D01*
X114210081Y-46900228D01*
X114210079Y-46900228D01*
X114204911Y-46900165D01*
X113984091Y-46933955D01*
X113771756Y-47003357D01*
X113573607Y-47106507D01*
X113569474Y-47109610D01*
X113569471Y-47109612D01*
X113414694Y-47225822D01*
X113394965Y-47240635D01*
X113240629Y-47402138D01*
X113237720Y-47406403D01*
X113237714Y-47406411D01*
X113225404Y-47424457D01*
X113133204Y-47559618D01*
X113132898Y-47560066D01*
X113077987Y-47605069D01*
X113007462Y-47613240D01*
X112943715Y-47581986D01*
X112923018Y-47557502D01*
X112842426Y-47432926D01*
X112836136Y-47424757D01*
X112692806Y-47267240D01*
X112685273Y-47260215D01*
X112518139Y-47128222D01*
X112509552Y-47122517D01*
X112323117Y-47019599D01*
X112313705Y-47015369D01*
X112112959Y-46944280D01*
X112102988Y-46941646D01*
X112031837Y-46928972D01*
X112018540Y-46930432D01*
X112014000Y-46944989D01*
X112014000Y-48388000D01*
X111993998Y-48456121D01*
X111940342Y-48502614D01*
X111888000Y-48514000D01*
X110443225Y-48514000D01*
X110429694Y-48517973D01*
X110428257Y-48527966D01*
X110458565Y-48662446D01*
X110461646Y-48672280D01*
X110482280Y-48723097D01*
X110489376Y-48793738D01*
X110457153Y-48857001D01*
X110395843Y-48892801D01*
X110365537Y-48896500D01*
X89050368Y-48896500D01*
X89039185Y-48895973D01*
X89031692Y-48894298D01*
X89023766Y-48894547D01*
X89023765Y-48894547D01*
X88963602Y-48896438D01*
X88959644Y-48896500D01*
X88931744Y-48896500D01*
X88927754Y-48897004D01*
X88915920Y-48897936D01*
X88871711Y-48899326D01*
X88864095Y-48901539D01*
X88864093Y-48901539D01*
X88852252Y-48904979D01*
X88832893Y-48908988D01*
X88831583Y-48909154D01*
X88812803Y-48911526D01*
X88805437Y-48914442D01*
X88805431Y-48914444D01*
X88771698Y-48927800D01*
X88760468Y-48931645D01*
X88725617Y-48941770D01*
X88718007Y-48943981D01*
X88711184Y-48948016D01*
X88700566Y-48954295D01*
X88682813Y-48962992D01*
X88675168Y-48966019D01*
X88663983Y-48970448D01*
X88657568Y-48975109D01*
X88628212Y-48996437D01*
X88618295Y-49002951D01*
X88580238Y-49025458D01*
X88565917Y-49039779D01*
X88550884Y-49052619D01*
X88534493Y-49064528D01*
X88529442Y-49070634D01*
X88506302Y-49098605D01*
X88498312Y-49107384D01*
X84539500Y-53066195D01*
X84477188Y-53100221D01*
X84450405Y-53103100D01*
X84394513Y-53103100D01*
X84388061Y-53104472D01*
X84388056Y-53104472D01*
X84301113Y-53122953D01*
X84207712Y-53142806D01*
X84201682Y-53145491D01*
X84201681Y-53145491D01*
X84039278Y-53217797D01*
X84039276Y-53217798D01*
X84033248Y-53220482D01*
X84027907Y-53224362D01*
X84027906Y-53224363D01*
X83977843Y-53260736D01*
X83878747Y-53332734D01*
X83750960Y-53474656D01*
X83655473Y-53640044D01*
X83596458Y-53821672D01*
X83595768Y-53828233D01*
X83595768Y-53828235D01*
X83582287Y-53956498D01*
X83576496Y-54011600D01*
X83596458Y-54201528D01*
X83655473Y-54383156D01*
X83750960Y-54548544D01*
X83878747Y-54690466D01*
X84033248Y-54802718D01*
X84039276Y-54805402D01*
X84039278Y-54805403D01*
X84201681Y-54877709D01*
X84207712Y-54880394D01*
X84301113Y-54900247D01*
X84388056Y-54918728D01*
X84388061Y-54918728D01*
X84394513Y-54920100D01*
X84585487Y-54920100D01*
X84591939Y-54918728D01*
X84591944Y-54918728D01*
X84678887Y-54900247D01*
X84772288Y-54880394D01*
X84778319Y-54877709D01*
X84940722Y-54805403D01*
X84940724Y-54805402D01*
X84946752Y-54802718D01*
X85101253Y-54690466D01*
X85229040Y-54548544D01*
X85324527Y-54383156D01*
X85383542Y-54201528D01*
X85400907Y-54036306D01*
X85427920Y-53970650D01*
X85437122Y-53960382D01*
X89197099Y-50200405D01*
X89259411Y-50166379D01*
X89286194Y-50163500D01*
X110275500Y-50163500D01*
X110343621Y-50183502D01*
X110390114Y-50237158D01*
X110401500Y-50289500D01*
X110401500Y-51698134D01*
X110408255Y-51760316D01*
X110459385Y-51896705D01*
X110546739Y-52013261D01*
X110663295Y-52100615D01*
X110799684Y-52151745D01*
X110861866Y-52158500D01*
X112658134Y-52158500D01*
X112720316Y-52151745D01*
X112856705Y-52100615D01*
X112973261Y-52013261D01*
X113060615Y-51896705D01*
X113082799Y-51837529D01*
X113104598Y-51779382D01*
X113147240Y-51722618D01*
X113213802Y-51697918D01*
X113283150Y-51713126D01*
X113317817Y-51741114D01*
X113346250Y-51773938D01*
X113518126Y-51916632D01*
X113604070Y-51966853D01*
X113652794Y-52018491D01*
X113666500Y-52075641D01*
X113666500Y-52626233D01*
X113665973Y-52637416D01*
X113664298Y-52644909D01*
X113664547Y-52652835D01*
X113664547Y-52652836D01*
X113666438Y-52712986D01*
X113666500Y-52716945D01*
X113666500Y-52744856D01*
X113666997Y-52748790D01*
X113666997Y-52748791D01*
X113667005Y-52748856D01*
X113667938Y-52760693D01*
X113669327Y-52804889D01*
X113673599Y-52819593D01*
X113674978Y-52824339D01*
X113678987Y-52843700D01*
X113681526Y-52863797D01*
X113684445Y-52871168D01*
X113684445Y-52871170D01*
X113697804Y-52904912D01*
X113701649Y-52916142D01*
X113710831Y-52947747D01*
X113713982Y-52958593D01*
X113718015Y-52965412D01*
X113718017Y-52965417D01*
X113724293Y-52976028D01*
X113732988Y-52993776D01*
X113740448Y-53012617D01*
X113745110Y-53019033D01*
X113745110Y-53019034D01*
X113766436Y-53048387D01*
X113772952Y-53058307D01*
X113795458Y-53096362D01*
X113809779Y-53110683D01*
X113822619Y-53125716D01*
X113834528Y-53142107D01*
X113840634Y-53147158D01*
X113868605Y-53170298D01*
X113877384Y-53178288D01*
X116336343Y-55637247D01*
X116343887Y-55645537D01*
X116348000Y-55652018D01*
X116353777Y-55657443D01*
X116397667Y-55698658D01*
X116400509Y-55701413D01*
X116420230Y-55721134D01*
X116423425Y-55723612D01*
X116432447Y-55731318D01*
X116464679Y-55761586D01*
X116471628Y-55765406D01*
X116482432Y-55771346D01*
X116498956Y-55782199D01*
X116514959Y-55794613D01*
X116555543Y-55812176D01*
X116566173Y-55817383D01*
X116604940Y-55838695D01*
X116612617Y-55840666D01*
X116612622Y-55840668D01*
X116624558Y-55843732D01*
X116643266Y-55850137D01*
X116661855Y-55858181D01*
X116669680Y-55859420D01*
X116669682Y-55859421D01*
X116705519Y-55865097D01*
X116717140Y-55867504D01*
X116752289Y-55876528D01*
X116759970Y-55878500D01*
X116780231Y-55878500D01*
X116799940Y-55880051D01*
X116819943Y-55883219D01*
X116827835Y-55882473D01*
X116833062Y-55881979D01*
X116863954Y-55879059D01*
X116875811Y-55878500D01*
X128640200Y-55878500D01*
X128708321Y-55898502D01*
X128754814Y-55952158D01*
X128764918Y-56022432D01*
X128749319Y-56067500D01*
X128705473Y-56143444D01*
X128646458Y-56325072D01*
X128626496Y-56515000D01*
X128646458Y-56704928D01*
X128705473Y-56886556D01*
X128800960Y-57051944D01*
X128874137Y-57133215D01*
X128904853Y-57197221D01*
X128906500Y-57217524D01*
X128906500Y-66669733D01*
X128905973Y-66680916D01*
X128904298Y-66688409D01*
X128904547Y-66696335D01*
X128904547Y-66696336D01*
X128906438Y-66756486D01*
X128906500Y-66760445D01*
X128906500Y-66788356D01*
X128906997Y-66792290D01*
X128906997Y-66792291D01*
X128907005Y-66792356D01*
X128907938Y-66804193D01*
X128909327Y-66848389D01*
X128914978Y-66867839D01*
X128918987Y-66887200D01*
X128921526Y-66907297D01*
X128924445Y-66914668D01*
X128924445Y-66914670D01*
X128937804Y-66948412D01*
X128941649Y-66959642D01*
X128953982Y-67002093D01*
X128958015Y-67008912D01*
X128958017Y-67008917D01*
X128964293Y-67019528D01*
X128972988Y-67037276D01*
X128980448Y-67056117D01*
X128985110Y-67062533D01*
X128985110Y-67062534D01*
X129006436Y-67091887D01*
X129012952Y-67101807D01*
X129035458Y-67139862D01*
X129049779Y-67154183D01*
X129062619Y-67169216D01*
X129074528Y-67185607D01*
X129080634Y-67190658D01*
X129108605Y-67213798D01*
X129117384Y-67221788D01*
X143557000Y-81661405D01*
X143591026Y-81723717D01*
X143585961Y-81794532D01*
X143543414Y-81851368D01*
X143476894Y-81876179D01*
X143467905Y-81876500D01*
X142261866Y-81876500D01*
X142199684Y-81883255D01*
X142063295Y-81934385D01*
X141946739Y-82021739D01*
X141941359Y-82028918D01*
X141935867Y-82036246D01*
X141879008Y-82078762D01*
X141808189Y-82083788D01*
X141748787Y-82052532D01*
X141739549Y-82043857D01*
X141736707Y-82041102D01*
X141716970Y-82021365D01*
X141713773Y-82018885D01*
X141704751Y-82011180D01*
X141678300Y-81986341D01*
X141672521Y-81980914D01*
X141665575Y-81977095D01*
X141665572Y-81977093D01*
X141654766Y-81971152D01*
X141638247Y-81960301D01*
X141628884Y-81953039D01*
X141622241Y-81947886D01*
X141614972Y-81944741D01*
X141614968Y-81944738D01*
X141581663Y-81930326D01*
X141571013Y-81925109D01*
X141532260Y-81903805D01*
X141512637Y-81898767D01*
X141493934Y-81892363D01*
X141482620Y-81887467D01*
X141482619Y-81887467D01*
X141475345Y-81884319D01*
X141467522Y-81883080D01*
X141467512Y-81883077D01*
X141431676Y-81877401D01*
X141420056Y-81874995D01*
X141384911Y-81865972D01*
X141384910Y-81865972D01*
X141377230Y-81864000D01*
X141356976Y-81864000D01*
X141337265Y-81862449D01*
X141325086Y-81860520D01*
X141317257Y-81859280D01*
X141309365Y-81860026D01*
X141273239Y-81863441D01*
X141261381Y-81864000D01*
X127936300Y-81864000D01*
X127868179Y-81843998D01*
X127848953Y-81827657D01*
X127848680Y-81827960D01*
X127843768Y-81823537D01*
X127839353Y-81818634D01*
X127806180Y-81794532D01*
X127690194Y-81710263D01*
X127690193Y-81710262D01*
X127684852Y-81706382D01*
X127678824Y-81703698D01*
X127678822Y-81703697D01*
X127516419Y-81631391D01*
X127516418Y-81631391D01*
X127510388Y-81628706D01*
X127416987Y-81608853D01*
X127330044Y-81590372D01*
X127330039Y-81590372D01*
X127323587Y-81589000D01*
X127132613Y-81589000D01*
X127126161Y-81590372D01*
X127126156Y-81590372D01*
X127039213Y-81608853D01*
X126945812Y-81628706D01*
X126939782Y-81631391D01*
X126939781Y-81631391D01*
X126777378Y-81703697D01*
X126777376Y-81703698D01*
X126771348Y-81706382D01*
X126766007Y-81710262D01*
X126766006Y-81710263D01*
X126715943Y-81746636D01*
X126616847Y-81818634D01*
X126612426Y-81823544D01*
X126612425Y-81823545D01*
X126503303Y-81944738D01*
X126489060Y-81960556D01*
X126393573Y-82125944D01*
X126334558Y-82307572D01*
X126314596Y-82497500D01*
X126334558Y-82687428D01*
X126393573Y-82869056D01*
X126489060Y-83034444D01*
X126493478Y-83039351D01*
X126493479Y-83039352D01*
X126580005Y-83135449D01*
X126616847Y-83176366D01*
X126771348Y-83288618D01*
X126777376Y-83291302D01*
X126777378Y-83291303D01*
X126848358Y-83322905D01*
X126945812Y-83366294D01*
X127035924Y-83385448D01*
X127126156Y-83404628D01*
X127126161Y-83404628D01*
X127132613Y-83406000D01*
X127323587Y-83406000D01*
X127330039Y-83404628D01*
X127330044Y-83404628D01*
X127420276Y-83385448D01*
X127510388Y-83366294D01*
X127607842Y-83322905D01*
X127678822Y-83291303D01*
X127678824Y-83291302D01*
X127684852Y-83288618D01*
X127839353Y-83176366D01*
X127843768Y-83171463D01*
X127848680Y-83167040D01*
X127849805Y-83168289D01*
X127903114Y-83135449D01*
X127936300Y-83131000D01*
X140982605Y-83131000D01*
X141050726Y-83151002D01*
X141071701Y-83167905D01*
X141289243Y-83385448D01*
X141481053Y-83577258D01*
X141488587Y-83585537D01*
X141492700Y-83592018D01*
X141542351Y-83638643D01*
X141545193Y-83641398D01*
X141564930Y-83661135D01*
X141568127Y-83663615D01*
X141577147Y-83671318D01*
X141609379Y-83701586D01*
X141616325Y-83705405D01*
X141616328Y-83705407D01*
X141627134Y-83711348D01*
X141643653Y-83722199D01*
X141659659Y-83734614D01*
X141666928Y-83737759D01*
X141666932Y-83737762D01*
X141700237Y-83752174D01*
X141710896Y-83757396D01*
X141736199Y-83771306D01*
X141786259Y-83821650D01*
X141801500Y-83881721D01*
X141801500Y-84033134D01*
X141808255Y-84095316D01*
X141859385Y-84231705D01*
X141946739Y-84348261D01*
X142063295Y-84435615D01*
X142199684Y-84486745D01*
X142210474Y-84487917D01*
X142212606Y-84488803D01*
X142215222Y-84489425D01*
X142215121Y-84489848D01*
X142276035Y-84515155D01*
X142316463Y-84573517D01*
X142318922Y-84644471D01*
X142282629Y-84705490D01*
X142273969Y-84712489D01*
X142270207Y-84715646D01*
X142265700Y-84718802D01*
X142103802Y-84880700D01*
X142100645Y-84885208D01*
X142100643Y-84885211D01*
X141993819Y-85037771D01*
X141938362Y-85082099D01*
X141890606Y-85091500D01*
X124626395Y-85091500D01*
X124558274Y-85071498D01*
X124537300Y-85054595D01*
X122093322Y-82610617D01*
X122059296Y-82548305D01*
X122057107Y-82534692D01*
X122040432Y-82376035D01*
X122040432Y-82376033D01*
X122039742Y-82369472D01*
X121980727Y-82187844D01*
X121885240Y-82022456D01*
X121879750Y-82016358D01*
X121761875Y-81885445D01*
X121761874Y-81885444D01*
X121757453Y-81880534D01*
X121602952Y-81768282D01*
X121596924Y-81765598D01*
X121596922Y-81765597D01*
X121434519Y-81693291D01*
X121434518Y-81693291D01*
X121428488Y-81690606D01*
X121335088Y-81670753D01*
X121248144Y-81652272D01*
X121248139Y-81652272D01*
X121241687Y-81650900D01*
X121050713Y-81650900D01*
X121044261Y-81652272D01*
X121044256Y-81652272D01*
X120957312Y-81670753D01*
X120863912Y-81690606D01*
X120857882Y-81693291D01*
X120857881Y-81693291D01*
X120695478Y-81765597D01*
X120695476Y-81765598D01*
X120689448Y-81768282D01*
X120534947Y-81880534D01*
X120530526Y-81885444D01*
X120530525Y-81885445D01*
X120412651Y-82016358D01*
X120407160Y-82022456D01*
X120311673Y-82187844D01*
X120252658Y-82369472D01*
X120232696Y-82559400D01*
X120233386Y-82565965D01*
X120251232Y-82735757D01*
X120252658Y-82749328D01*
X120311673Y-82930956D01*
X120407160Y-83096344D01*
X120534947Y-83238266D01*
X120689448Y-83350518D01*
X120695476Y-83353202D01*
X120695478Y-83353203D01*
X120857881Y-83425509D01*
X120863912Y-83428194D01*
X120957312Y-83448047D01*
X121044256Y-83466528D01*
X121044261Y-83466528D01*
X121050713Y-83467900D01*
X121106606Y-83467900D01*
X121174727Y-83487902D01*
X121195701Y-83504805D01*
X123808143Y-86117247D01*
X123815687Y-86125537D01*
X123819800Y-86132018D01*
X123825577Y-86137443D01*
X123869467Y-86178658D01*
X123872309Y-86181413D01*
X123892030Y-86201134D01*
X123895225Y-86203612D01*
X123904247Y-86211318D01*
X123936479Y-86241586D01*
X123943428Y-86245406D01*
X123954232Y-86251346D01*
X123970756Y-86262199D01*
X123986759Y-86274613D01*
X124027343Y-86292176D01*
X124037973Y-86297383D01*
X124076740Y-86318695D01*
X124084417Y-86320666D01*
X124084422Y-86320668D01*
X124096358Y-86323732D01*
X124115066Y-86330137D01*
X124133655Y-86338181D01*
X124141480Y-86339420D01*
X124141482Y-86339421D01*
X124177319Y-86345097D01*
X124188940Y-86347504D01*
X124224089Y-86356528D01*
X124231770Y-86358500D01*
X124252031Y-86358500D01*
X124271740Y-86360051D01*
X124291743Y-86363219D01*
X124299635Y-86362473D01*
X124304862Y-86361979D01*
X124335754Y-86359059D01*
X124347611Y-86358500D01*
X141890606Y-86358500D01*
X141958727Y-86378502D01*
X141993819Y-86412229D01*
X142041514Y-86480344D01*
X142103802Y-86569300D01*
X142265700Y-86731198D01*
X142270208Y-86734355D01*
X142270211Y-86734357D01*
X142348389Y-86789098D01*
X142453251Y-86862523D01*
X142458233Y-86864846D01*
X142458238Y-86864849D01*
X142492457Y-86880805D01*
X142545742Y-86927722D01*
X142565203Y-86995999D01*
X142544661Y-87063959D01*
X142492457Y-87109195D01*
X142458238Y-87125151D01*
X142458233Y-87125154D01*
X142453251Y-87127477D01*
X142348389Y-87200902D01*
X142270211Y-87255643D01*
X142270208Y-87255645D01*
X142265700Y-87258802D01*
X142103802Y-87420700D01*
X142100645Y-87425208D01*
X142100643Y-87425211D01*
X141993819Y-87577771D01*
X141938362Y-87622099D01*
X141890606Y-87631500D01*
X121639594Y-87631500D01*
X121571473Y-87611498D01*
X121550499Y-87594595D01*
X116504622Y-82548717D01*
X116470596Y-82486405D01*
X116468407Y-82472792D01*
X116451732Y-82314135D01*
X116451732Y-82314133D01*
X116451042Y-82307572D01*
X116392027Y-82125944D01*
X116296540Y-81960556D01*
X116282298Y-81944738D01*
X116173175Y-81823545D01*
X116173174Y-81823544D01*
X116168753Y-81818634D01*
X116069657Y-81746636D01*
X116019594Y-81710263D01*
X116019593Y-81710262D01*
X116014252Y-81706382D01*
X116008224Y-81703698D01*
X116008222Y-81703697D01*
X115845819Y-81631391D01*
X115845818Y-81631391D01*
X115839788Y-81628706D01*
X115746387Y-81608853D01*
X115659444Y-81590372D01*
X115659439Y-81590372D01*
X115652987Y-81589000D01*
X115462013Y-81589000D01*
X115455561Y-81590372D01*
X115455556Y-81590372D01*
X115368613Y-81608853D01*
X115275212Y-81628706D01*
X115269182Y-81631391D01*
X115269181Y-81631391D01*
X115106778Y-81703697D01*
X115106776Y-81703698D01*
X115100748Y-81706382D01*
X115095407Y-81710262D01*
X115095406Y-81710263D01*
X115045343Y-81746636D01*
X114946247Y-81818634D01*
X114941826Y-81823544D01*
X114941825Y-81823545D01*
X114832703Y-81944738D01*
X114818460Y-81960556D01*
X114722973Y-82125944D01*
X114663958Y-82307572D01*
X114643996Y-82497500D01*
X114663958Y-82687428D01*
X114722973Y-82869056D01*
X114818460Y-83034444D01*
X114822878Y-83039351D01*
X114822879Y-83039352D01*
X114909405Y-83135449D01*
X114946247Y-83176366D01*
X115100748Y-83288618D01*
X115106776Y-83291302D01*
X115106778Y-83291303D01*
X115177758Y-83322905D01*
X115275212Y-83366294D01*
X115365324Y-83385448D01*
X115455556Y-83404628D01*
X115455561Y-83404628D01*
X115462013Y-83406000D01*
X115517906Y-83406000D01*
X115586027Y-83426002D01*
X115607001Y-83442905D01*
X120821348Y-88657253D01*
X120828888Y-88665539D01*
X120833000Y-88672018D01*
X120838777Y-88677443D01*
X120882651Y-88718643D01*
X120885493Y-88721398D01*
X120905230Y-88741135D01*
X120908427Y-88743615D01*
X120917447Y-88751318D01*
X120949679Y-88781586D01*
X120956624Y-88785404D01*
X120956628Y-88785407D01*
X120967434Y-88791348D01*
X120983953Y-88802199D01*
X120999959Y-88814614D01*
X121007228Y-88817759D01*
X121007232Y-88817762D01*
X121040537Y-88832174D01*
X121051187Y-88837391D01*
X121089940Y-88858695D01*
X121097615Y-88860666D01*
X121097616Y-88860666D01*
X121109562Y-88863733D01*
X121128267Y-88870137D01*
X121146855Y-88878181D01*
X121154678Y-88879420D01*
X121154688Y-88879423D01*
X121190524Y-88885099D01*
X121202144Y-88887505D01*
X121237289Y-88896528D01*
X121244970Y-88898500D01*
X121265224Y-88898500D01*
X121284934Y-88900051D01*
X121304943Y-88903220D01*
X121312835Y-88902474D01*
X121348961Y-88899059D01*
X121360819Y-88898500D01*
X141890606Y-88898500D01*
X141958727Y-88918502D01*
X141993819Y-88952229D01*
X142103802Y-89109300D01*
X142265700Y-89271198D01*
X142270208Y-89274355D01*
X142270211Y-89274357D01*
X142312390Y-89303891D01*
X142453251Y-89402523D01*
X142458233Y-89404846D01*
X142458238Y-89404849D01*
X142492457Y-89420805D01*
X142545742Y-89467722D01*
X142565203Y-89535999D01*
X142544661Y-89603959D01*
X142492457Y-89649195D01*
X142458238Y-89665151D01*
X142458233Y-89665154D01*
X142453251Y-89667477D01*
X142348389Y-89740902D01*
X142270211Y-89795643D01*
X142270208Y-89795645D01*
X142265700Y-89798802D01*
X142103802Y-89960700D01*
X142100645Y-89965208D01*
X142100643Y-89965211D01*
X141993819Y-90117771D01*
X141938362Y-90162099D01*
X141890606Y-90171500D01*
X115954994Y-90171500D01*
X115886873Y-90151498D01*
X115865899Y-90134595D01*
X109709822Y-83978517D01*
X109675796Y-83916205D01*
X109673607Y-83902592D01*
X109671414Y-83881721D01*
X109656242Y-83737372D01*
X109597227Y-83555744D01*
X109586983Y-83538000D01*
X109522320Y-83426002D01*
X109501740Y-83390356D01*
X109412553Y-83291303D01*
X109378375Y-83253345D01*
X109378374Y-83253344D01*
X109373953Y-83248434D01*
X109219452Y-83136182D01*
X109213424Y-83133498D01*
X109213422Y-83133497D01*
X109051019Y-83061191D01*
X109051018Y-83061191D01*
X109044988Y-83058506D01*
X108931786Y-83034444D01*
X108864644Y-83020172D01*
X108864639Y-83020172D01*
X108858187Y-83018800D01*
X108667213Y-83018800D01*
X108660761Y-83020172D01*
X108660756Y-83020172D01*
X108593614Y-83034444D01*
X108480412Y-83058506D01*
X108474382Y-83061191D01*
X108474381Y-83061191D01*
X108311978Y-83133497D01*
X108311976Y-83133498D01*
X108305948Y-83136182D01*
X108151447Y-83248434D01*
X108147026Y-83253344D01*
X108147025Y-83253345D01*
X108112848Y-83291303D01*
X108023660Y-83390356D01*
X108003080Y-83426002D01*
X107938418Y-83538000D01*
X107928173Y-83555744D01*
X107869158Y-83737372D01*
X107849196Y-83927300D01*
X107849886Y-83933865D01*
X107867633Y-84102715D01*
X107869158Y-84117228D01*
X107928173Y-84298856D01*
X108023660Y-84464244D01*
X108028078Y-84469151D01*
X108028079Y-84469152D01*
X108118158Y-84569195D01*
X108151447Y-84606166D01*
X108305948Y-84718418D01*
X108311976Y-84721102D01*
X108311978Y-84721103D01*
X108315563Y-84722699D01*
X108480412Y-84796094D01*
X108573813Y-84815947D01*
X108660756Y-84834428D01*
X108660761Y-84834428D01*
X108667213Y-84835800D01*
X108723106Y-84835800D01*
X108791227Y-84855802D01*
X108812201Y-84872705D01*
X115136743Y-91197247D01*
X115144287Y-91205537D01*
X115148400Y-91212018D01*
X115154177Y-91217443D01*
X115198067Y-91258658D01*
X115200909Y-91261413D01*
X115220631Y-91281135D01*
X115223755Y-91283558D01*
X115223759Y-91283562D01*
X115223824Y-91283612D01*
X115232845Y-91291317D01*
X115265079Y-91321586D01*
X115272027Y-91325405D01*
X115272029Y-91325407D01*
X115282832Y-91331346D01*
X115299359Y-91342202D01*
X115309098Y-91349757D01*
X115309100Y-91349758D01*
X115315360Y-91354614D01*
X115355940Y-91372174D01*
X115366588Y-91377391D01*
X115405340Y-91398695D01*
X115413016Y-91400666D01*
X115413019Y-91400667D01*
X115424962Y-91403733D01*
X115443667Y-91410137D01*
X115462255Y-91418181D01*
X115470078Y-91419420D01*
X115470088Y-91419423D01*
X115505924Y-91425099D01*
X115517544Y-91427505D01*
X115552689Y-91436528D01*
X115560370Y-91438500D01*
X115580624Y-91438500D01*
X115600334Y-91440051D01*
X115620343Y-91443220D01*
X115628235Y-91442474D01*
X115664361Y-91439059D01*
X115676219Y-91438500D01*
X141890606Y-91438500D01*
X141958727Y-91458502D01*
X141993819Y-91492229D01*
X142103802Y-91649300D01*
X142265700Y-91811198D01*
X142270208Y-91814355D01*
X142270211Y-91814357D01*
X142348389Y-91869098D01*
X142453251Y-91942523D01*
X142458233Y-91944846D01*
X142458238Y-91944849D01*
X142492457Y-91960805D01*
X142545742Y-92007722D01*
X142565203Y-92075999D01*
X142544661Y-92143959D01*
X142492457Y-92189195D01*
X142458238Y-92205151D01*
X142458233Y-92205154D01*
X142453251Y-92207477D01*
X142366487Y-92268230D01*
X142270211Y-92335643D01*
X142270208Y-92335645D01*
X142265700Y-92338802D01*
X142103802Y-92500700D01*
X142100645Y-92505208D01*
X142100643Y-92505211D01*
X141993819Y-92657771D01*
X141938362Y-92702099D01*
X141890606Y-92711500D01*
X112322394Y-92711500D01*
X112254273Y-92691498D01*
X112233299Y-92674595D01*
X103537222Y-83978517D01*
X103503196Y-83916205D01*
X103501007Y-83902592D01*
X103498814Y-83881721D01*
X103483642Y-83737372D01*
X103424627Y-83555744D01*
X103414383Y-83538000D01*
X103349720Y-83426002D01*
X103329140Y-83390356D01*
X103239953Y-83291303D01*
X103205775Y-83253345D01*
X103205774Y-83253344D01*
X103201353Y-83248434D01*
X103046852Y-83136182D01*
X103040824Y-83133498D01*
X103040822Y-83133497D01*
X102878419Y-83061191D01*
X102878418Y-83061191D01*
X102872388Y-83058506D01*
X102759186Y-83034444D01*
X102692044Y-83020172D01*
X102692039Y-83020172D01*
X102685587Y-83018800D01*
X102494613Y-83018800D01*
X102488161Y-83020172D01*
X102488156Y-83020172D01*
X102421014Y-83034444D01*
X102307812Y-83058506D01*
X102301782Y-83061191D01*
X102301781Y-83061191D01*
X102139378Y-83133497D01*
X102139376Y-83133498D01*
X102133348Y-83136182D01*
X101978847Y-83248434D01*
X101974426Y-83253344D01*
X101974425Y-83253345D01*
X101940248Y-83291303D01*
X101851060Y-83390356D01*
X101830480Y-83426002D01*
X101765818Y-83538000D01*
X101755573Y-83555744D01*
X101696558Y-83737372D01*
X101676596Y-83927300D01*
X101677286Y-83933865D01*
X101695033Y-84102715D01*
X101696558Y-84117228D01*
X101755573Y-84298856D01*
X101851060Y-84464244D01*
X101855478Y-84469151D01*
X101855479Y-84469152D01*
X101945558Y-84569195D01*
X101978847Y-84606166D01*
X102133348Y-84718418D01*
X102139376Y-84721102D01*
X102139378Y-84721103D01*
X102142963Y-84722699D01*
X102307812Y-84796094D01*
X102401213Y-84815947D01*
X102488156Y-84834428D01*
X102488161Y-84834428D01*
X102494613Y-84835800D01*
X102550506Y-84835800D01*
X102618627Y-84855802D01*
X102639601Y-84872705D01*
X107143092Y-89376197D01*
X111504148Y-93737253D01*
X111511688Y-93745539D01*
X111515800Y-93752018D01*
X111521577Y-93757443D01*
X111528186Y-93763649D01*
X111564152Y-93824862D01*
X111561315Y-93895802D01*
X111520575Y-93953946D01*
X111454867Y-93980835D01*
X111441934Y-93981500D01*
X109064894Y-93981500D01*
X108996773Y-93961498D01*
X108975799Y-93944595D01*
X103068118Y-88036913D01*
X97136452Y-82105247D01*
X97128912Y-82096961D01*
X97124800Y-82090482D01*
X97075148Y-82043856D01*
X97072307Y-82041102D01*
X97052570Y-82021365D01*
X97049373Y-82018885D01*
X97040351Y-82011180D01*
X97013900Y-81986341D01*
X97008121Y-81980914D01*
X97001175Y-81977095D01*
X97001172Y-81977093D01*
X96990366Y-81971152D01*
X96973847Y-81960301D01*
X96964484Y-81953039D01*
X96957841Y-81947886D01*
X96950572Y-81944741D01*
X96950568Y-81944738D01*
X96917263Y-81930326D01*
X96906613Y-81925109D01*
X96867860Y-81903805D01*
X96848237Y-81898767D01*
X96829534Y-81892363D01*
X96818220Y-81887467D01*
X96818219Y-81887467D01*
X96810945Y-81884319D01*
X96803122Y-81883080D01*
X96803112Y-81883077D01*
X96767276Y-81877401D01*
X96755656Y-81874995D01*
X96720511Y-81865972D01*
X96720510Y-81865972D01*
X96712830Y-81864000D01*
X96692576Y-81864000D01*
X96672865Y-81862449D01*
X96660686Y-81860520D01*
X96652857Y-81859280D01*
X96644965Y-81860026D01*
X96608839Y-81863441D01*
X96596981Y-81864000D01*
X76411200Y-81864000D01*
X76343079Y-81843998D01*
X76323853Y-81827657D01*
X76323580Y-81827960D01*
X76318668Y-81823537D01*
X76314253Y-81818634D01*
X76281080Y-81794532D01*
X76165094Y-81710263D01*
X76165093Y-81710262D01*
X76159752Y-81706382D01*
X76153724Y-81703698D01*
X76153722Y-81703697D01*
X75991319Y-81631391D01*
X75991318Y-81631391D01*
X75985288Y-81628706D01*
X75891887Y-81608853D01*
X75804944Y-81590372D01*
X75804939Y-81590372D01*
X75798487Y-81589000D01*
X75607513Y-81589000D01*
X75601061Y-81590372D01*
X75601056Y-81590372D01*
X75514113Y-81608853D01*
X75420712Y-81628706D01*
X75414682Y-81631391D01*
X75414681Y-81631391D01*
X75252278Y-81703697D01*
X75252276Y-81703698D01*
X75246248Y-81706382D01*
X75240907Y-81710262D01*
X75240906Y-81710263D01*
X75190843Y-81746636D01*
X75091747Y-81818634D01*
X75087326Y-81823544D01*
X75087325Y-81823545D01*
X74978203Y-81944738D01*
X74963960Y-81960556D01*
X74868473Y-82125944D01*
X74809458Y-82307572D01*
X74789496Y-82497500D01*
X74809458Y-82687428D01*
X74868473Y-82869056D01*
X74963960Y-83034444D01*
X74968378Y-83039351D01*
X74968379Y-83039352D01*
X75054905Y-83135449D01*
X75091747Y-83176366D01*
X75246248Y-83288618D01*
X75252276Y-83291302D01*
X75252278Y-83291303D01*
X75323258Y-83322905D01*
X75420712Y-83366294D01*
X75510824Y-83385448D01*
X75601056Y-83404628D01*
X75601061Y-83404628D01*
X75607513Y-83406000D01*
X75798487Y-83406000D01*
X75804939Y-83404628D01*
X75804944Y-83404628D01*
X75895176Y-83385448D01*
X75985288Y-83366294D01*
X76082742Y-83322905D01*
X76153722Y-83291303D01*
X76153724Y-83291302D01*
X76159752Y-83288618D01*
X76314253Y-83176366D01*
X76318668Y-83171463D01*
X76323580Y-83167040D01*
X76324705Y-83168289D01*
X76378014Y-83135449D01*
X76411200Y-83131000D01*
X96318206Y-83131000D01*
X96386327Y-83151002D01*
X96407301Y-83167905D01*
X108246648Y-95007253D01*
X108254188Y-95015539D01*
X108258300Y-95022018D01*
X108264077Y-95027443D01*
X108270686Y-95033649D01*
X108306652Y-95094862D01*
X108303815Y-95165802D01*
X108263075Y-95223946D01*
X108197367Y-95250835D01*
X108184434Y-95251500D01*
X107569095Y-95251500D01*
X107500974Y-95231498D01*
X107480000Y-95214595D01*
X106826022Y-94560617D01*
X106791996Y-94498305D01*
X106789807Y-94484692D01*
X106773132Y-94326035D01*
X106773132Y-94326033D01*
X106772442Y-94319472D01*
X106713427Y-94137844D01*
X106617940Y-93972456D01*
X106608074Y-93961498D01*
X106494575Y-93835445D01*
X106494574Y-93835444D01*
X106490153Y-93830534D01*
X106382085Y-93752018D01*
X106340994Y-93722163D01*
X106340993Y-93722162D01*
X106335652Y-93718282D01*
X106329624Y-93715598D01*
X106329622Y-93715597D01*
X106167219Y-93643291D01*
X106167218Y-93643291D01*
X106161188Y-93640606D01*
X106067787Y-93620753D01*
X105980844Y-93602272D01*
X105980839Y-93602272D01*
X105974387Y-93600900D01*
X105783413Y-93600900D01*
X105776961Y-93602272D01*
X105776956Y-93602272D01*
X105690013Y-93620753D01*
X105596612Y-93640606D01*
X105590582Y-93643291D01*
X105590581Y-93643291D01*
X105428178Y-93715597D01*
X105428176Y-93715598D01*
X105422148Y-93718282D01*
X105416807Y-93722162D01*
X105416806Y-93722163D01*
X105375715Y-93752018D01*
X105267647Y-93830534D01*
X105263226Y-93835444D01*
X105263225Y-93835445D01*
X105149727Y-93961498D01*
X105139860Y-93972456D01*
X105044373Y-94137844D01*
X105042332Y-94144126D01*
X104988817Y-94308826D01*
X104948743Y-94367431D01*
X104883346Y-94395068D01*
X104813390Y-94382961D01*
X104779888Y-94358984D01*
X104643652Y-94222747D01*
X104452121Y-94031216D01*
X104418096Y-93968904D01*
X104415907Y-93955291D01*
X104399232Y-93796635D01*
X104399232Y-93796633D01*
X104398542Y-93790072D01*
X104339527Y-93608444D01*
X104335172Y-93600900D01*
X104247341Y-93448774D01*
X104244040Y-93443056D01*
X104151760Y-93340568D01*
X104120675Y-93306045D01*
X104120674Y-93306044D01*
X104116253Y-93301134D01*
X103995322Y-93213272D01*
X103967094Y-93192763D01*
X103967093Y-93192762D01*
X103961752Y-93188882D01*
X103955724Y-93186198D01*
X103955722Y-93186197D01*
X103793319Y-93113891D01*
X103793318Y-93113891D01*
X103787288Y-93111206D01*
X103693887Y-93091353D01*
X103606944Y-93072872D01*
X103606939Y-93072872D01*
X103600487Y-93071500D01*
X103409513Y-93071500D01*
X103403061Y-93072872D01*
X103403056Y-93072872D01*
X103316113Y-93091353D01*
X103222712Y-93111206D01*
X103216682Y-93113891D01*
X103216681Y-93113891D01*
X103054278Y-93186197D01*
X103054276Y-93186198D01*
X103048248Y-93188882D01*
X103042907Y-93192762D01*
X103042906Y-93192763D01*
X103014678Y-93213272D01*
X102893747Y-93301134D01*
X102889326Y-93306044D01*
X102889325Y-93306045D01*
X102858241Y-93340568D01*
X102765960Y-93443056D01*
X102762659Y-93448774D01*
X102674829Y-93600900D01*
X102670473Y-93608444D01*
X102668432Y-93614726D01*
X102633555Y-93722064D01*
X102593481Y-93780669D01*
X102528084Y-93808306D01*
X102458127Y-93796199D01*
X102424627Y-93772222D01*
X95555522Y-86903117D01*
X95521496Y-86840805D01*
X95519307Y-86827192D01*
X95502632Y-86668535D01*
X95502632Y-86668533D01*
X95501942Y-86661972D01*
X95442927Y-86480344D01*
X95347440Y-86314956D01*
X95329049Y-86294530D01*
X95224075Y-86177945D01*
X95224074Y-86177944D01*
X95219653Y-86173034D01*
X95065152Y-86060782D01*
X95059124Y-86058098D01*
X95059122Y-86058097D01*
X94896719Y-85985791D01*
X94896718Y-85985791D01*
X94890688Y-85983106D01*
X94797288Y-85963253D01*
X94710344Y-85944772D01*
X94710339Y-85944772D01*
X94703887Y-85943400D01*
X94512913Y-85943400D01*
X94506461Y-85944772D01*
X94506456Y-85944772D01*
X94419512Y-85963253D01*
X94326112Y-85983106D01*
X94320082Y-85985791D01*
X94320081Y-85985791D01*
X94157678Y-86058097D01*
X94157676Y-86058098D01*
X94151648Y-86060782D01*
X93997147Y-86173034D01*
X93992726Y-86177944D01*
X93992725Y-86177945D01*
X93887752Y-86294530D01*
X93869360Y-86314956D01*
X93773873Y-86480344D01*
X93714858Y-86661972D01*
X93694896Y-86851900D01*
X93714858Y-87041828D01*
X93773873Y-87223456D01*
X93869360Y-87388844D01*
X93997147Y-87530766D01*
X94061844Y-87577771D01*
X94122856Y-87622099D01*
X94151648Y-87643018D01*
X94157676Y-87645702D01*
X94157678Y-87645703D01*
X94320081Y-87718009D01*
X94326112Y-87720694D01*
X94419512Y-87740547D01*
X94506456Y-87759028D01*
X94506461Y-87759028D01*
X94512913Y-87760400D01*
X94568806Y-87760400D01*
X94636927Y-87780402D01*
X94657901Y-87797305D01*
X100191718Y-93331123D01*
X105677848Y-98817253D01*
X105685388Y-98825539D01*
X105689500Y-98832018D01*
X105695277Y-98837443D01*
X105739151Y-98878643D01*
X105741993Y-98881398D01*
X105761730Y-98901135D01*
X105764927Y-98903615D01*
X105773949Y-98911320D01*
X105789635Y-98926050D01*
X105825600Y-98987262D01*
X105822763Y-99058202D01*
X105782023Y-99116346D01*
X105716315Y-99143235D01*
X105703382Y-99143900D01*
X103266995Y-99143900D01*
X103198874Y-99123898D01*
X103177900Y-99106995D01*
X94292122Y-90221217D01*
X94258096Y-90158905D01*
X94255907Y-90145292D01*
X94239232Y-89986635D01*
X94239232Y-89986633D01*
X94238542Y-89980072D01*
X94179527Y-89798444D01*
X94084040Y-89633056D01*
X94056328Y-89602278D01*
X93960675Y-89496045D01*
X93960674Y-89496044D01*
X93956253Y-89491134D01*
X93801752Y-89378882D01*
X93795724Y-89376198D01*
X93795722Y-89376197D01*
X93633319Y-89303891D01*
X93633318Y-89303891D01*
X93627288Y-89301206D01*
X93533887Y-89281353D01*
X93446944Y-89262872D01*
X93446939Y-89262872D01*
X93440487Y-89261500D01*
X93249513Y-89261500D01*
X93243061Y-89262872D01*
X93243056Y-89262872D01*
X93156113Y-89281353D01*
X93062712Y-89301206D01*
X93056682Y-89303891D01*
X93056681Y-89303891D01*
X92894278Y-89376197D01*
X92894276Y-89376198D01*
X92888248Y-89378882D01*
X92733747Y-89491134D01*
X92729326Y-89496044D01*
X92729325Y-89496045D01*
X92633673Y-89602278D01*
X92605960Y-89633056D01*
X92510473Y-89798444D01*
X92451458Y-89980072D01*
X92431496Y-90170000D01*
X92451458Y-90359928D01*
X92510473Y-90541556D01*
X92605960Y-90706944D01*
X92610378Y-90711851D01*
X92610379Y-90711852D01*
X92729325Y-90843955D01*
X92733747Y-90848866D01*
X92888248Y-90961118D01*
X92894276Y-90963802D01*
X92894278Y-90963803D01*
X93056681Y-91036109D01*
X93062712Y-91038794D01*
X93156113Y-91058647D01*
X93243056Y-91077128D01*
X93243061Y-91077128D01*
X93249513Y-91078500D01*
X93305406Y-91078500D01*
X93373527Y-91098502D01*
X93394501Y-91115405D01*
X102448743Y-100169647D01*
X102456287Y-100177937D01*
X102460400Y-100184418D01*
X102466177Y-100189843D01*
X102510067Y-100231058D01*
X102512909Y-100233813D01*
X102532630Y-100253534D01*
X102535825Y-100256012D01*
X102544847Y-100263718D01*
X102577079Y-100293986D01*
X102584028Y-100297806D01*
X102594832Y-100303746D01*
X102611356Y-100314599D01*
X102627359Y-100327013D01*
X102667943Y-100344576D01*
X102678573Y-100349783D01*
X102717340Y-100371095D01*
X102725017Y-100373066D01*
X102725022Y-100373068D01*
X102736958Y-100376132D01*
X102755666Y-100382537D01*
X102774255Y-100390581D01*
X102782080Y-100391820D01*
X102782082Y-100391821D01*
X102817919Y-100397497D01*
X102829540Y-100399904D01*
X102864689Y-100408928D01*
X102872370Y-100410900D01*
X102892631Y-100410900D01*
X102912340Y-100412451D01*
X102932343Y-100415619D01*
X102940235Y-100414873D01*
X102945462Y-100414379D01*
X102976354Y-100411459D01*
X102988211Y-100410900D01*
X141740123Y-100410900D01*
X141808244Y-100430902D01*
X141854737Y-100484558D01*
X141864841Y-100554832D01*
X141861830Y-100569511D01*
X141828606Y-100693503D01*
X141828942Y-100707599D01*
X141836884Y-100711000D01*
X145177967Y-100711000D01*
X145191498Y-100707027D01*
X145192727Y-100698478D01*
X145158170Y-100569511D01*
X145159860Y-100498535D01*
X145199654Y-100439739D01*
X145264918Y-100411791D01*
X145279877Y-100410900D01*
X148102505Y-100410900D01*
X148170626Y-100430902D01*
X148191601Y-100447805D01*
X149101053Y-101357258D01*
X149108587Y-101365537D01*
X149112700Y-101372018D01*
X149162351Y-101418643D01*
X149165193Y-101421398D01*
X149184930Y-101441135D01*
X149188127Y-101443615D01*
X149197147Y-101451318D01*
X149229379Y-101481586D01*
X149236325Y-101485405D01*
X149236328Y-101485407D01*
X149247134Y-101491348D01*
X149263653Y-101502199D01*
X149279659Y-101514614D01*
X149286928Y-101517759D01*
X149286932Y-101517762D01*
X149320237Y-101532174D01*
X149330887Y-101537391D01*
X149369640Y-101558695D01*
X149377315Y-101560666D01*
X149377316Y-101560666D01*
X149389262Y-101563733D01*
X149407967Y-101570137D01*
X149426555Y-101578181D01*
X149434378Y-101579420D01*
X149434388Y-101579423D01*
X149470224Y-101585099D01*
X149481844Y-101587505D01*
X149516989Y-101596528D01*
X149524670Y-101598500D01*
X149527223Y-101598500D01*
X149590108Y-101625925D01*
X149612454Y-101650279D01*
X149723802Y-101809300D01*
X149885700Y-101971198D01*
X149890208Y-101974355D01*
X149890211Y-101974357D01*
X149968389Y-102029098D01*
X150073251Y-102102523D01*
X150078233Y-102104846D01*
X150078238Y-102104849D01*
X150274765Y-102196490D01*
X150280757Y-102199284D01*
X150286065Y-102200706D01*
X150286067Y-102200707D01*
X150496598Y-102257119D01*
X150496600Y-102257119D01*
X150501913Y-102258543D01*
X150600120Y-102267135D01*
X150670149Y-102273262D01*
X150670156Y-102273262D01*
X150672873Y-102273500D01*
X151587127Y-102273500D01*
X151589844Y-102273262D01*
X151589851Y-102273262D01*
X151659880Y-102267135D01*
X151758087Y-102258543D01*
X151763400Y-102257119D01*
X151763402Y-102257119D01*
X151973933Y-102200707D01*
X151973935Y-102200706D01*
X151979243Y-102199284D01*
X151985235Y-102196490D01*
X152181762Y-102104849D01*
X152181767Y-102104846D01*
X152186749Y-102102523D01*
X152291611Y-102029098D01*
X152369789Y-101974357D01*
X152369792Y-101974355D01*
X152374300Y-101971198D01*
X152536198Y-101809300D01*
X152667523Y-101621749D01*
X152669846Y-101616767D01*
X152669849Y-101616762D01*
X152761961Y-101419225D01*
X152761961Y-101419224D01*
X152764284Y-101414243D01*
X152812970Y-101232548D01*
X152822119Y-101198402D01*
X152822119Y-101198400D01*
X152823543Y-101193087D01*
X152843498Y-100965000D01*
X152823543Y-100736913D01*
X152811911Y-100693503D01*
X152765707Y-100521067D01*
X152765706Y-100521065D01*
X152764284Y-100515757D01*
X152732598Y-100447805D01*
X152669849Y-100313238D01*
X152669846Y-100313233D01*
X152667523Y-100308251D01*
X152570471Y-100169647D01*
X152539357Y-100125211D01*
X152539355Y-100125208D01*
X152536198Y-100120700D01*
X152374300Y-99958802D01*
X152369792Y-99955645D01*
X152369789Y-99955643D01*
X152291611Y-99900902D01*
X152186749Y-99827477D01*
X152181767Y-99825154D01*
X152181762Y-99825151D01*
X152147543Y-99809195D01*
X152094258Y-99762278D01*
X152074797Y-99694001D01*
X152095339Y-99626041D01*
X152147543Y-99580805D01*
X152181762Y-99564849D01*
X152181767Y-99564846D01*
X152186749Y-99562523D01*
X152291611Y-99489098D01*
X152369789Y-99434357D01*
X152369792Y-99434355D01*
X152374300Y-99431198D01*
X152536198Y-99269300D01*
X152544816Y-99256993D01*
X152614621Y-99157301D01*
X152667523Y-99081749D01*
X152669846Y-99076767D01*
X152669849Y-99076762D01*
X152761961Y-98879225D01*
X152761961Y-98879224D01*
X152764284Y-98874243D01*
X152823543Y-98653087D01*
X152843498Y-98425000D01*
X152823543Y-98196913D01*
X152764284Y-97975757D01*
X152761959Y-97970770D01*
X152669849Y-97773238D01*
X152669846Y-97773233D01*
X152667523Y-97768251D01*
X152566224Y-97623581D01*
X152539357Y-97585211D01*
X152539355Y-97585208D01*
X152536198Y-97580700D01*
X152374300Y-97418802D01*
X152369792Y-97415645D01*
X152369789Y-97415643D01*
X152291611Y-97360902D01*
X152186749Y-97287477D01*
X152181767Y-97285154D01*
X152181762Y-97285151D01*
X152147543Y-97269195D01*
X152094258Y-97222278D01*
X152074797Y-97154001D01*
X152095339Y-97086041D01*
X152147543Y-97040805D01*
X152181762Y-97024849D01*
X152181767Y-97024846D01*
X152186749Y-97022523D01*
X152291611Y-96949098D01*
X152369789Y-96894357D01*
X152369792Y-96894355D01*
X152374300Y-96891198D01*
X152536198Y-96729300D01*
X152667523Y-96541749D01*
X152669846Y-96536767D01*
X152669849Y-96536762D01*
X152761961Y-96339225D01*
X152761961Y-96339224D01*
X152764284Y-96334243D01*
X152823543Y-96113087D01*
X152843498Y-95885000D01*
X152823543Y-95656913D01*
X152764284Y-95435757D01*
X152755957Y-95417900D01*
X152669849Y-95233238D01*
X152669846Y-95233233D01*
X152667523Y-95228251D01*
X152536198Y-95040700D01*
X152374300Y-94878802D01*
X152369792Y-94875645D01*
X152369789Y-94875643D01*
X152291611Y-94820902D01*
X152186749Y-94747477D01*
X152181767Y-94745154D01*
X152181762Y-94745151D01*
X152147543Y-94729195D01*
X152094258Y-94682278D01*
X152074797Y-94614001D01*
X152095339Y-94546041D01*
X152147543Y-94500805D01*
X152181762Y-94484849D01*
X152181767Y-94484846D01*
X152186749Y-94482523D01*
X152351117Y-94367431D01*
X152369789Y-94354357D01*
X152369792Y-94354355D01*
X152374300Y-94351198D01*
X152536198Y-94189300D01*
X152573211Y-94136441D01*
X152648029Y-94029589D01*
X152703486Y-93985261D01*
X152739501Y-93977580D01*
X152739435Y-93977163D01*
X152747269Y-93975922D01*
X152755189Y-93975673D01*
X152774643Y-93970021D01*
X152794000Y-93966013D01*
X152806230Y-93964468D01*
X152806231Y-93964468D01*
X152814097Y-93963474D01*
X152821468Y-93960555D01*
X152821470Y-93960555D01*
X152855212Y-93947196D01*
X152866442Y-93943351D01*
X152901283Y-93933229D01*
X152901284Y-93933229D01*
X152908893Y-93931018D01*
X152915712Y-93926985D01*
X152915717Y-93926983D01*
X152926328Y-93920707D01*
X152944076Y-93912012D01*
X152962917Y-93904552D01*
X152998687Y-93878564D01*
X153008607Y-93872048D01*
X153039835Y-93853580D01*
X153039838Y-93853578D01*
X153046662Y-93849542D01*
X153060983Y-93835221D01*
X153076017Y-93822380D01*
X153085994Y-93815131D01*
X153092407Y-93810472D01*
X153120598Y-93776395D01*
X153128588Y-93767616D01*
X153547647Y-93348557D01*
X153555937Y-93341013D01*
X153562418Y-93336900D01*
X153609059Y-93287232D01*
X153611813Y-93284391D01*
X153631534Y-93264670D01*
X153634012Y-93261475D01*
X153641718Y-93252453D01*
X153666558Y-93226001D01*
X153671986Y-93220221D01*
X153681746Y-93202468D01*
X153692599Y-93185945D01*
X153700153Y-93176206D01*
X153705013Y-93169941D01*
X153722576Y-93129357D01*
X153727783Y-93118727D01*
X153749095Y-93079960D01*
X153751066Y-93072283D01*
X153751068Y-93072278D01*
X153754132Y-93060342D01*
X153760538Y-93041630D01*
X153765433Y-93030319D01*
X153768581Y-93023045D01*
X153769821Y-93015217D01*
X153769823Y-93015210D01*
X153775499Y-92979376D01*
X153777905Y-92967756D01*
X153786928Y-92932611D01*
X153786928Y-92932610D01*
X153788900Y-92924930D01*
X153788900Y-92904676D01*
X153790451Y-92884965D01*
X153792380Y-92872786D01*
X153793620Y-92864957D01*
X153789459Y-92820938D01*
X153788900Y-92809081D01*
X153788900Y-57436268D01*
X153789427Y-57425085D01*
X153791102Y-57417592D01*
X153788962Y-57349501D01*
X153788900Y-57345544D01*
X153788900Y-57317644D01*
X153788396Y-57313653D01*
X153787463Y-57301811D01*
X153786323Y-57265536D01*
X153786074Y-57257611D01*
X153780421Y-57238152D01*
X153776412Y-57218793D01*
X153776246Y-57217483D01*
X153773874Y-57198703D01*
X153770958Y-57191337D01*
X153770956Y-57191331D01*
X153757600Y-57157598D01*
X153753755Y-57146368D01*
X153743630Y-57111517D01*
X153743630Y-57111516D01*
X153741419Y-57103907D01*
X153731105Y-57086466D01*
X153722408Y-57068713D01*
X153717872Y-57057258D01*
X153714952Y-57049883D01*
X153688963Y-57014112D01*
X153682447Y-57004192D01*
X153659942Y-56966138D01*
X153645621Y-56951817D01*
X153632780Y-56936783D01*
X153625531Y-56926806D01*
X153620872Y-56920393D01*
X153586795Y-56892202D01*
X153578016Y-56884212D01*
X149260405Y-52566600D01*
X149226379Y-52504288D01*
X149223500Y-52477505D01*
X149223500Y-52194189D01*
X149243502Y-52126068D01*
X149297158Y-52079575D01*
X149367432Y-52069471D01*
X149394449Y-52076479D01*
X149437643Y-52092973D01*
X149479692Y-52109030D01*
X149484760Y-52110061D01*
X149484763Y-52110062D01*
X149532431Y-52119760D01*
X149698597Y-52153567D01*
X149703772Y-52153757D01*
X149703774Y-52153757D01*
X149916673Y-52161564D01*
X149916677Y-52161564D01*
X149921837Y-52161753D01*
X149926957Y-52161097D01*
X149926959Y-52161097D01*
X150138288Y-52134025D01*
X150138289Y-52134025D01*
X150143416Y-52133368D01*
X150148366Y-52131883D01*
X150352429Y-52070661D01*
X150352434Y-52070659D01*
X150357384Y-52069174D01*
X150557994Y-51970896D01*
X150739860Y-51841173D01*
X150898096Y-51683489D01*
X151028453Y-51502077D01*
X151029776Y-51503028D01*
X151076645Y-51459857D01*
X151146580Y-51447625D01*
X151212026Y-51475144D01*
X151239875Y-51506994D01*
X151299987Y-51605088D01*
X151446250Y-51773938D01*
X151618126Y-51916632D01*
X151811000Y-52029338D01*
X151815825Y-52031180D01*
X151815826Y-52031181D01*
X151869031Y-52051498D01*
X152019692Y-52109030D01*
X152024760Y-52110061D01*
X152024763Y-52110062D01*
X152072431Y-52119760D01*
X152238597Y-52153567D01*
X152243772Y-52153757D01*
X152243774Y-52153757D01*
X152456673Y-52161564D01*
X152456677Y-52161564D01*
X152461837Y-52161753D01*
X152466957Y-52161097D01*
X152466959Y-52161097D01*
X152678288Y-52134025D01*
X152678289Y-52134025D01*
X152683416Y-52133368D01*
X152688366Y-52131883D01*
X152892429Y-52070661D01*
X152892434Y-52070659D01*
X152897384Y-52069174D01*
X153097994Y-51970896D01*
X153279860Y-51841173D01*
X153438096Y-51683489D01*
X153568453Y-51502077D01*
X153569776Y-51503028D01*
X153616645Y-51459857D01*
X153686580Y-51447625D01*
X153752026Y-51475144D01*
X153779875Y-51506994D01*
X153839987Y-51605088D01*
X153986250Y-51773938D01*
X154158126Y-51916632D01*
X154351000Y-52029338D01*
X154355825Y-52031180D01*
X154355826Y-52031181D01*
X154409031Y-52051498D01*
X154559692Y-52109030D01*
X154564760Y-52110061D01*
X154564763Y-52110062D01*
X154612431Y-52119760D01*
X154778597Y-52153567D01*
X154783772Y-52153757D01*
X154783774Y-52153757D01*
X154996673Y-52161564D01*
X154996677Y-52161564D01*
X155001837Y-52161753D01*
X155006957Y-52161097D01*
X155006959Y-52161097D01*
X155218288Y-52134025D01*
X155218289Y-52134025D01*
X155223416Y-52133368D01*
X155228366Y-52131883D01*
X155432429Y-52070661D01*
X155432434Y-52070659D01*
X155437384Y-52069174D01*
X155637994Y-51970896D01*
X155819860Y-51841173D01*
X155978096Y-51683489D01*
X156108453Y-51502077D01*
X156129320Y-51459857D01*
X156205136Y-51306453D01*
X156205137Y-51306451D01*
X156207430Y-51301811D01*
X156258425Y-51133968D01*
X156270865Y-51093023D01*
X156270865Y-51093021D01*
X156272370Y-51088069D01*
X156301529Y-50866590D01*
X156303156Y-50800000D01*
X156284852Y-50577361D01*
X156230431Y-50360702D01*
X156141354Y-50155840D01*
X156053618Y-50020221D01*
X156022822Y-49972617D01*
X156022820Y-49972614D01*
X156020014Y-49968277D01*
X155869670Y-49803051D01*
X155865619Y-49799852D01*
X155865615Y-49799848D01*
X155698414Y-49667800D01*
X155698410Y-49667798D01*
X155694359Y-49664598D01*
X155653053Y-49641796D01*
X155603084Y-49591364D01*
X155588312Y-49521921D01*
X155613428Y-49455516D01*
X155640780Y-49428909D01*
X155698500Y-49387738D01*
X155819860Y-49301173D01*
X155978096Y-49143489D01*
X156037594Y-49060689D01*
X156105435Y-48966277D01*
X156108453Y-48962077D01*
X156115403Y-48948016D01*
X156205136Y-48766453D01*
X156205137Y-48766451D01*
X156207430Y-48761811D01*
X156272370Y-48548069D01*
X156301529Y-48326590D01*
X156303156Y-48260000D01*
X156284852Y-48037361D01*
X156230431Y-47820702D01*
X156141354Y-47615840D01*
X156036975Y-47454495D01*
X156022822Y-47432617D01*
X156022820Y-47432614D01*
X156020014Y-47428277D01*
X155869670Y-47263051D01*
X155865619Y-47259852D01*
X155865615Y-47259848D01*
X155698414Y-47127800D01*
X155698410Y-47127798D01*
X155694359Y-47124598D01*
X155658028Y-47104542D01*
X155642136Y-47095769D01*
X155498789Y-47016638D01*
X155493920Y-47014914D01*
X155493916Y-47014912D01*
X155293087Y-46943795D01*
X155293083Y-46943794D01*
X155288212Y-46942069D01*
X155283119Y-46941162D01*
X155283116Y-46941161D01*
X155073373Y-46903800D01*
X155073367Y-46903799D01*
X155068284Y-46902894D01*
X154994452Y-46901992D01*
X154850081Y-46900228D01*
X154850079Y-46900228D01*
X154844911Y-46900165D01*
X154624091Y-46933955D01*
X154411756Y-47003357D01*
X154213607Y-47106507D01*
X154209474Y-47109610D01*
X154209471Y-47109612D01*
X154054694Y-47225822D01*
X154034965Y-47240635D01*
X153880629Y-47402138D01*
X153773201Y-47559621D01*
X153718293Y-47604621D01*
X153647768Y-47612792D01*
X153584021Y-47581538D01*
X153563324Y-47557054D01*
X153482822Y-47432617D01*
X153482820Y-47432614D01*
X153480014Y-47428277D01*
X153329670Y-47263051D01*
X153325619Y-47259852D01*
X153325615Y-47259848D01*
X153158414Y-47127800D01*
X153158410Y-47127798D01*
X153154359Y-47124598D01*
X153118028Y-47104542D01*
X153102136Y-47095769D01*
X152958789Y-47016638D01*
X152953920Y-47014914D01*
X152953916Y-47014912D01*
X152753087Y-46943795D01*
X152753083Y-46943794D01*
X152748212Y-46942069D01*
X152743119Y-46941162D01*
X152743116Y-46941161D01*
X152533373Y-46903800D01*
X152533367Y-46903799D01*
X152528284Y-46902894D01*
X152454452Y-46901992D01*
X152310081Y-46900228D01*
X152310079Y-46900228D01*
X152304911Y-46900165D01*
X152084091Y-46933955D01*
X151871756Y-47003357D01*
X151673607Y-47106507D01*
X151669474Y-47109610D01*
X151669471Y-47109612D01*
X151514694Y-47225822D01*
X151494965Y-47240635D01*
X151340629Y-47402138D01*
X151233201Y-47559621D01*
X151178293Y-47604621D01*
X151107768Y-47612792D01*
X151044021Y-47581538D01*
X151023324Y-47557054D01*
X150942822Y-47432617D01*
X150942820Y-47432614D01*
X150940014Y-47428277D01*
X150789670Y-47263051D01*
X150785619Y-47259852D01*
X150785615Y-47259848D01*
X150618414Y-47127800D01*
X150618410Y-47127798D01*
X150614359Y-47124598D01*
X150578028Y-47104542D01*
X150562136Y-47095769D01*
X150418789Y-47016638D01*
X150413920Y-47014914D01*
X150413916Y-47014912D01*
X150213087Y-46943795D01*
X150213083Y-46943794D01*
X150208212Y-46942069D01*
X150203119Y-46941162D01*
X150203116Y-46941161D01*
X149993373Y-46903800D01*
X149993367Y-46903799D01*
X149988284Y-46902894D01*
X149914452Y-46901992D01*
X149770081Y-46900228D01*
X149770079Y-46900228D01*
X149764911Y-46900165D01*
X149544091Y-46933955D01*
X149331756Y-47003357D01*
X149133607Y-47106507D01*
X148987896Y-47215910D01*
X148921411Y-47240815D01*
X148852015Y-47225822D01*
X148823151Y-47204247D01*
X148062498Y-46443593D01*
X148028474Y-46381283D01*
X148033539Y-46310467D01*
X148076086Y-46253632D01*
X148142606Y-46228821D01*
X148151595Y-46228500D01*
X159335633Y-46228500D01*
X159355018Y-46230000D01*
X159369853Y-46232310D01*
X159369855Y-46232310D01*
X159378724Y-46233691D01*
X159384508Y-46232935D01*
X159450868Y-46253307D01*
X159496700Y-46307528D01*
X159505165Y-46348873D01*
X159506309Y-46348723D01*
X159506309Y-46348724D01*
X159506329Y-46348873D01*
X159510436Y-46380283D01*
X159511500Y-46396621D01*
X159511500Y-144095633D01*
X159510000Y-144115018D01*
X159506309Y-144138724D01*
X159507065Y-144144508D01*
X159486693Y-144210868D01*
X159432472Y-144256700D01*
X159391127Y-144265165D01*
X159391277Y-144266309D01*
X159391276Y-144266309D01*
X159359714Y-144270436D01*
X159343379Y-144271500D01*
X61644367Y-144271500D01*
X61624982Y-144270000D01*
X61610148Y-144267690D01*
X61610145Y-144267690D01*
X61601276Y-144266309D01*
X61596065Y-144266990D01*
X61529984Y-144246706D01*
X61484150Y-144192486D01*
X61473671Y-144149778D01*
X61473729Y-144145000D01*
X61469773Y-144117376D01*
X61468500Y-144099514D01*
X61468500Y-141012277D01*
X62907009Y-141012277D01*
X62932625Y-141280769D01*
X62933710Y-141285203D01*
X62933711Y-141285209D01*
X62995645Y-141538312D01*
X62996731Y-141542750D01*
X63097985Y-141792733D01*
X63234265Y-142025482D01*
X63237118Y-142029049D01*
X63354686Y-142176060D01*
X63402716Y-142236119D01*
X63599809Y-142420234D01*
X63821416Y-142573968D01*
X63825499Y-142575999D01*
X63825502Y-142576001D01*
X63941013Y-142633466D01*
X64062894Y-142694101D01*
X64067228Y-142695522D01*
X64067231Y-142695523D01*
X64314853Y-142776698D01*
X64314859Y-142776699D01*
X64319186Y-142778118D01*
X64323677Y-142778898D01*
X64323678Y-142778898D01*
X64581140Y-142823601D01*
X64581148Y-142823602D01*
X64584921Y-142824257D01*
X64588758Y-142824448D01*
X64668578Y-142828422D01*
X64668586Y-142828422D01*
X64670149Y-142828500D01*
X64838512Y-142828500D01*
X64840780Y-142828335D01*
X64840792Y-142828335D01*
X64971884Y-142818823D01*
X65039004Y-142813953D01*
X65043459Y-142812969D01*
X65043462Y-142812969D01*
X65297912Y-142756791D01*
X65297916Y-142756790D01*
X65302372Y-142755806D01*
X65428480Y-142708028D01*
X65550318Y-142661868D01*
X65550321Y-142661867D01*
X65554588Y-142660250D01*
X65790368Y-142529286D01*
X66004773Y-142365657D01*
X66193312Y-142172792D01*
X66352034Y-141954730D01*
X66435190Y-141796676D01*
X66475490Y-141720079D01*
X66475493Y-141720073D01*
X66477615Y-141716039D01*
X66540378Y-141538312D01*
X66565902Y-141466033D01*
X66565902Y-141466032D01*
X66567425Y-141461720D01*
X66619581Y-141197100D01*
X66628782Y-141012277D01*
X154347009Y-141012277D01*
X154372625Y-141280769D01*
X154373710Y-141285203D01*
X154373711Y-141285209D01*
X154435645Y-141538312D01*
X154436731Y-141542750D01*
X154537985Y-141792733D01*
X154674265Y-142025482D01*
X154677118Y-142029049D01*
X154794686Y-142176060D01*
X154842716Y-142236119D01*
X155039809Y-142420234D01*
X155261416Y-142573968D01*
X155265499Y-142575999D01*
X155265502Y-142576001D01*
X155381013Y-142633466D01*
X155502894Y-142694101D01*
X155507228Y-142695522D01*
X155507231Y-142695523D01*
X155754853Y-142776698D01*
X155754859Y-142776699D01*
X155759186Y-142778118D01*
X155763677Y-142778898D01*
X155763678Y-142778898D01*
X156021140Y-142823601D01*
X156021148Y-142823602D01*
X156024921Y-142824257D01*
X156028758Y-142824448D01*
X156108578Y-142828422D01*
X156108586Y-142828422D01*
X156110149Y-142828500D01*
X156278512Y-142828500D01*
X156280780Y-142828335D01*
X156280792Y-142828335D01*
X156411884Y-142818823D01*
X156479004Y-142813953D01*
X156483459Y-142812969D01*
X156483462Y-142812969D01*
X156737912Y-142756791D01*
X156737916Y-142756790D01*
X156742372Y-142755806D01*
X156868480Y-142708028D01*
X156990318Y-142661868D01*
X156990321Y-142661867D01*
X156994588Y-142660250D01*
X157230368Y-142529286D01*
X157444773Y-142365657D01*
X157633312Y-142172792D01*
X157792034Y-141954730D01*
X157875190Y-141796676D01*
X157915490Y-141720079D01*
X157915493Y-141720073D01*
X157917615Y-141716039D01*
X157980378Y-141538312D01*
X158005902Y-141466033D01*
X158005902Y-141466032D01*
X158007425Y-141461720D01*
X158059581Y-141197100D01*
X158068782Y-141012277D01*
X158072764Y-140932292D01*
X158072764Y-140932286D01*
X158072991Y-140927723D01*
X158047375Y-140659231D01*
X158014714Y-140525753D01*
X157984355Y-140401688D01*
X157983269Y-140397250D01*
X157882015Y-140147267D01*
X157745735Y-139914518D01*
X157627928Y-139767208D01*
X157580136Y-139707447D01*
X157580135Y-139707445D01*
X157577284Y-139703881D01*
X157380191Y-139519766D01*
X157158584Y-139366032D01*
X157154501Y-139364001D01*
X157154498Y-139363999D01*
X156989606Y-139281967D01*
X156917106Y-139245899D01*
X156912772Y-139244478D01*
X156912769Y-139244477D01*
X156665147Y-139163302D01*
X156665141Y-139163301D01*
X156660814Y-139161882D01*
X156656322Y-139161102D01*
X156398860Y-139116399D01*
X156398852Y-139116398D01*
X156395079Y-139115743D01*
X156383817Y-139115182D01*
X156311422Y-139111578D01*
X156311414Y-139111578D01*
X156309851Y-139111500D01*
X156141488Y-139111500D01*
X156139220Y-139111665D01*
X156139208Y-139111665D01*
X156008116Y-139121177D01*
X155940996Y-139126047D01*
X155936541Y-139127031D01*
X155936538Y-139127031D01*
X155682088Y-139183209D01*
X155682084Y-139183210D01*
X155677628Y-139184194D01*
X155564010Y-139227240D01*
X155429682Y-139278132D01*
X155429679Y-139278133D01*
X155425412Y-139279750D01*
X155189632Y-139410714D01*
X154975227Y-139574343D01*
X154972034Y-139577609D01*
X154972032Y-139577611D01*
X154885811Y-139665811D01*
X154786688Y-139767208D01*
X154627966Y-139985270D01*
X154625844Y-139989304D01*
X154504510Y-140219921D01*
X154504507Y-140219927D01*
X154502385Y-140223961D01*
X154500865Y-140228266D01*
X154500863Y-140228270D01*
X154414429Y-140473030D01*
X154412575Y-140478280D01*
X154360419Y-140742900D01*
X154360192Y-140747453D01*
X154360192Y-140747456D01*
X154350991Y-140932292D01*
X154347009Y-141012277D01*
X66628782Y-141012277D01*
X66632764Y-140932292D01*
X66632764Y-140932286D01*
X66632991Y-140927723D01*
X66607375Y-140659231D01*
X66574714Y-140525753D01*
X66544355Y-140401688D01*
X66543269Y-140397250D01*
X66442015Y-140147267D01*
X66392168Y-140062134D01*
X87225500Y-140062134D01*
X87232255Y-140124316D01*
X87283385Y-140260705D01*
X87370739Y-140377261D01*
X87487295Y-140464615D01*
X87623684Y-140515745D01*
X87685866Y-140522500D01*
X89482134Y-140522500D01*
X89544316Y-140515745D01*
X89680705Y-140464615D01*
X89797261Y-140377261D01*
X89884615Y-140260705D01*
X89906799Y-140201529D01*
X89928598Y-140143382D01*
X89971240Y-140086618D01*
X90037802Y-140061918D01*
X90107150Y-140077126D01*
X90141817Y-140105114D01*
X90170250Y-140137938D01*
X90342126Y-140280632D01*
X90535000Y-140393338D01*
X90743692Y-140473030D01*
X90748760Y-140474061D01*
X90748763Y-140474062D01*
X90856017Y-140495883D01*
X90962597Y-140517567D01*
X90967772Y-140517757D01*
X90967774Y-140517757D01*
X91180673Y-140525564D01*
X91180677Y-140525564D01*
X91185837Y-140525753D01*
X91190957Y-140525097D01*
X91190959Y-140525097D01*
X91402288Y-140498025D01*
X91402289Y-140498025D01*
X91407416Y-140497368D01*
X91456100Y-140482762D01*
X91616429Y-140434661D01*
X91616434Y-140434659D01*
X91621384Y-140433174D01*
X91821994Y-140334896D01*
X92003860Y-140205173D01*
X92162096Y-140047489D01*
X92292453Y-139866077D01*
X92293776Y-139867028D01*
X92340645Y-139823857D01*
X92410580Y-139811625D01*
X92476026Y-139839144D01*
X92503875Y-139870994D01*
X92563987Y-139969088D01*
X92710250Y-140137938D01*
X92882126Y-140280632D01*
X93075000Y-140393338D01*
X93283692Y-140473030D01*
X93288760Y-140474061D01*
X93288763Y-140474062D01*
X93396017Y-140495883D01*
X93502597Y-140517567D01*
X93507772Y-140517757D01*
X93507774Y-140517757D01*
X93720673Y-140525564D01*
X93720677Y-140525564D01*
X93725837Y-140525753D01*
X93730957Y-140525097D01*
X93730959Y-140525097D01*
X93942288Y-140498025D01*
X93942289Y-140498025D01*
X93947416Y-140497368D01*
X93996100Y-140482762D01*
X94156429Y-140434661D01*
X94156434Y-140434659D01*
X94161384Y-140433174D01*
X94361994Y-140334896D01*
X94543860Y-140205173D01*
X94702096Y-140047489D01*
X94832453Y-139866077D01*
X94833776Y-139867028D01*
X94880645Y-139823857D01*
X94950580Y-139811625D01*
X95016026Y-139839144D01*
X95043875Y-139870994D01*
X95103987Y-139969088D01*
X95250250Y-140137938D01*
X95422126Y-140280632D01*
X95615000Y-140393338D01*
X95823692Y-140473030D01*
X95828760Y-140474061D01*
X95828763Y-140474062D01*
X95936017Y-140495883D01*
X96042597Y-140517567D01*
X96047772Y-140517757D01*
X96047774Y-140517757D01*
X96260673Y-140525564D01*
X96260677Y-140525564D01*
X96265837Y-140525753D01*
X96270957Y-140525097D01*
X96270959Y-140525097D01*
X96482288Y-140498025D01*
X96482289Y-140498025D01*
X96487416Y-140497368D01*
X96536100Y-140482762D01*
X96696429Y-140434661D01*
X96696434Y-140434659D01*
X96701384Y-140433174D01*
X96901994Y-140334896D01*
X97083860Y-140205173D01*
X97242096Y-140047489D01*
X97372453Y-139866077D01*
X97373776Y-139867028D01*
X97420645Y-139823857D01*
X97490580Y-139811625D01*
X97556026Y-139839144D01*
X97583875Y-139870994D01*
X97643987Y-139969088D01*
X97790250Y-140137938D01*
X97962126Y-140280632D01*
X98155000Y-140393338D01*
X98363692Y-140473030D01*
X98368760Y-140474061D01*
X98368763Y-140474062D01*
X98476017Y-140495883D01*
X98582597Y-140517567D01*
X98587772Y-140517757D01*
X98587774Y-140517757D01*
X98800673Y-140525564D01*
X98800677Y-140525564D01*
X98805837Y-140525753D01*
X98810957Y-140525097D01*
X98810959Y-140525097D01*
X99022288Y-140498025D01*
X99022289Y-140498025D01*
X99027416Y-140497368D01*
X99076100Y-140482762D01*
X99236429Y-140434661D01*
X99236434Y-140434659D01*
X99241384Y-140433174D01*
X99441994Y-140334896D01*
X99623860Y-140205173D01*
X99782096Y-140047489D01*
X99912453Y-139866077D01*
X99913776Y-139867028D01*
X99960645Y-139823857D01*
X100030580Y-139811625D01*
X100096026Y-139839144D01*
X100123875Y-139870994D01*
X100183987Y-139969088D01*
X100330250Y-140137938D01*
X100502126Y-140280632D01*
X100695000Y-140393338D01*
X100903692Y-140473030D01*
X100908760Y-140474061D01*
X100908763Y-140474062D01*
X101016017Y-140495883D01*
X101122597Y-140517567D01*
X101127772Y-140517757D01*
X101127774Y-140517757D01*
X101340673Y-140525564D01*
X101340677Y-140525564D01*
X101345837Y-140525753D01*
X101350957Y-140525097D01*
X101350959Y-140525097D01*
X101562288Y-140498025D01*
X101562289Y-140498025D01*
X101567416Y-140497368D01*
X101616100Y-140482762D01*
X101776429Y-140434661D01*
X101776434Y-140434659D01*
X101781384Y-140433174D01*
X101981994Y-140334896D01*
X102163860Y-140205173D01*
X102322096Y-140047489D01*
X102452453Y-139866077D01*
X102453776Y-139867028D01*
X102500645Y-139823857D01*
X102570580Y-139811625D01*
X102636026Y-139839144D01*
X102663875Y-139870994D01*
X102723987Y-139969088D01*
X102870250Y-140137938D01*
X103042126Y-140280632D01*
X103235000Y-140393338D01*
X103443692Y-140473030D01*
X103448760Y-140474061D01*
X103448763Y-140474062D01*
X103556017Y-140495883D01*
X103662597Y-140517567D01*
X103667772Y-140517757D01*
X103667774Y-140517757D01*
X103880673Y-140525564D01*
X103880677Y-140525564D01*
X103885837Y-140525753D01*
X103890957Y-140525097D01*
X103890959Y-140525097D01*
X104102288Y-140498025D01*
X104102289Y-140498025D01*
X104107416Y-140497368D01*
X104156100Y-140482762D01*
X104316429Y-140434661D01*
X104316434Y-140434659D01*
X104321384Y-140433174D01*
X104521994Y-140334896D01*
X104703860Y-140205173D01*
X104862096Y-140047489D01*
X104992453Y-139866077D01*
X104993776Y-139867028D01*
X105040645Y-139823857D01*
X105110580Y-139811625D01*
X105176026Y-139839144D01*
X105203875Y-139870994D01*
X105263987Y-139969088D01*
X105410250Y-140137938D01*
X105582126Y-140280632D01*
X105775000Y-140393338D01*
X105983692Y-140473030D01*
X105988760Y-140474061D01*
X105988763Y-140474062D01*
X106096017Y-140495883D01*
X106202597Y-140517567D01*
X106207772Y-140517757D01*
X106207774Y-140517757D01*
X106420673Y-140525564D01*
X106420677Y-140525564D01*
X106425837Y-140525753D01*
X106430957Y-140525097D01*
X106430959Y-140525097D01*
X106642288Y-140498025D01*
X106642289Y-140498025D01*
X106647416Y-140497368D01*
X106696100Y-140482762D01*
X106856429Y-140434661D01*
X106856434Y-140434659D01*
X106861384Y-140433174D01*
X107061994Y-140334896D01*
X107243860Y-140205173D01*
X107402096Y-140047489D01*
X107532453Y-139866077D01*
X107533776Y-139867028D01*
X107580645Y-139823857D01*
X107650580Y-139811625D01*
X107716026Y-139839144D01*
X107743875Y-139870994D01*
X107803987Y-139969088D01*
X107950250Y-140137938D01*
X108122126Y-140280632D01*
X108315000Y-140393338D01*
X108523692Y-140473030D01*
X108528760Y-140474061D01*
X108528763Y-140474062D01*
X108636017Y-140495883D01*
X108742597Y-140517567D01*
X108747772Y-140517757D01*
X108747774Y-140517757D01*
X108960673Y-140525564D01*
X108960677Y-140525564D01*
X108965837Y-140525753D01*
X108970957Y-140525097D01*
X108970959Y-140525097D01*
X109182288Y-140498025D01*
X109182289Y-140498025D01*
X109187416Y-140497368D01*
X109236100Y-140482762D01*
X109396429Y-140434661D01*
X109396434Y-140434659D01*
X109401384Y-140433174D01*
X109601994Y-140334896D01*
X109783860Y-140205173D01*
X109942096Y-140047489D01*
X110072453Y-139866077D01*
X110073776Y-139867028D01*
X110120645Y-139823857D01*
X110190580Y-139811625D01*
X110256026Y-139839144D01*
X110283875Y-139870994D01*
X110343987Y-139969088D01*
X110490250Y-140137938D01*
X110662126Y-140280632D01*
X110855000Y-140393338D01*
X111063692Y-140473030D01*
X111068760Y-140474061D01*
X111068763Y-140474062D01*
X111176017Y-140495883D01*
X111282597Y-140517567D01*
X111287772Y-140517757D01*
X111287774Y-140517757D01*
X111500673Y-140525564D01*
X111500677Y-140525564D01*
X111505837Y-140525753D01*
X111510957Y-140525097D01*
X111510959Y-140525097D01*
X111722288Y-140498025D01*
X111722289Y-140498025D01*
X111727416Y-140497368D01*
X111776100Y-140482762D01*
X111936429Y-140434661D01*
X111936434Y-140434659D01*
X111941384Y-140433174D01*
X112141994Y-140334896D01*
X112323860Y-140205173D01*
X112482096Y-140047489D01*
X112612453Y-139866077D01*
X112633320Y-139823857D01*
X112709136Y-139670453D01*
X112709137Y-139670451D01*
X112711430Y-139665811D01*
X112776370Y-139452069D01*
X112805529Y-139230590D01*
X112807156Y-139164000D01*
X112788852Y-138941361D01*
X112734431Y-138724702D01*
X112645354Y-138519840D01*
X112524014Y-138332277D01*
X112373670Y-138167051D01*
X112369619Y-138163852D01*
X112369615Y-138163848D01*
X112202414Y-138031800D01*
X112202410Y-138031798D01*
X112198359Y-138028598D01*
X112002789Y-137920638D01*
X111997920Y-137918914D01*
X111997916Y-137918912D01*
X111797087Y-137847795D01*
X111797083Y-137847794D01*
X111792212Y-137846069D01*
X111787119Y-137845162D01*
X111787116Y-137845161D01*
X111577373Y-137807800D01*
X111577367Y-137807799D01*
X111572284Y-137806894D01*
X111498452Y-137805992D01*
X111354081Y-137804228D01*
X111354079Y-137804228D01*
X111348911Y-137804165D01*
X111128091Y-137837955D01*
X110915756Y-137907357D01*
X110717607Y-138010507D01*
X110713474Y-138013610D01*
X110713471Y-138013612D01*
X110543100Y-138141530D01*
X110538965Y-138144635D01*
X110535393Y-138148373D01*
X110427729Y-138261037D01*
X110384629Y-138306138D01*
X110277201Y-138463621D01*
X110222293Y-138508621D01*
X110151768Y-138516792D01*
X110088021Y-138485538D01*
X110067324Y-138461054D01*
X109986822Y-138336617D01*
X109986820Y-138336614D01*
X109984014Y-138332277D01*
X109833670Y-138167051D01*
X109829619Y-138163852D01*
X109829615Y-138163848D01*
X109662414Y-138031800D01*
X109662410Y-138031798D01*
X109658359Y-138028598D01*
X109462789Y-137920638D01*
X109457920Y-137918914D01*
X109457916Y-137918912D01*
X109257087Y-137847795D01*
X109257083Y-137847794D01*
X109252212Y-137846069D01*
X109247119Y-137845162D01*
X109247116Y-137845161D01*
X109037373Y-137807800D01*
X109037367Y-137807799D01*
X109032284Y-137806894D01*
X108958452Y-137805992D01*
X108814081Y-137804228D01*
X108814079Y-137804228D01*
X108808911Y-137804165D01*
X108588091Y-137837955D01*
X108375756Y-137907357D01*
X108177607Y-138010507D01*
X108173474Y-138013610D01*
X108173471Y-138013612D01*
X108003100Y-138141530D01*
X107998965Y-138144635D01*
X107995393Y-138148373D01*
X107887729Y-138261037D01*
X107844629Y-138306138D01*
X107737201Y-138463621D01*
X107682293Y-138508621D01*
X107611768Y-138516792D01*
X107548021Y-138485538D01*
X107527324Y-138461054D01*
X107446822Y-138336617D01*
X107446820Y-138336614D01*
X107444014Y-138332277D01*
X107293670Y-138167051D01*
X107289619Y-138163852D01*
X107289615Y-138163848D01*
X107122414Y-138031800D01*
X107122410Y-138031798D01*
X107118359Y-138028598D01*
X106922789Y-137920638D01*
X106917920Y-137918914D01*
X106917916Y-137918912D01*
X106717087Y-137847795D01*
X106717083Y-137847794D01*
X106712212Y-137846069D01*
X106707119Y-137845162D01*
X106707116Y-137845161D01*
X106497373Y-137807800D01*
X106497367Y-137807799D01*
X106492284Y-137806894D01*
X106418452Y-137805992D01*
X106274081Y-137804228D01*
X106274079Y-137804228D01*
X106268911Y-137804165D01*
X106048091Y-137837955D01*
X105835756Y-137907357D01*
X105637607Y-138010507D01*
X105633474Y-138013610D01*
X105633471Y-138013612D01*
X105463100Y-138141530D01*
X105458965Y-138144635D01*
X105455393Y-138148373D01*
X105347729Y-138261037D01*
X105304629Y-138306138D01*
X105197201Y-138463621D01*
X105142293Y-138508621D01*
X105071768Y-138516792D01*
X105008021Y-138485538D01*
X104987324Y-138461054D01*
X104906822Y-138336617D01*
X104906820Y-138336614D01*
X104904014Y-138332277D01*
X104753670Y-138167051D01*
X104749619Y-138163852D01*
X104749615Y-138163848D01*
X104582414Y-138031800D01*
X104582410Y-138031798D01*
X104578359Y-138028598D01*
X104382789Y-137920638D01*
X104377920Y-137918914D01*
X104377916Y-137918912D01*
X104177087Y-137847795D01*
X104177083Y-137847794D01*
X104172212Y-137846069D01*
X104167119Y-137845162D01*
X104167116Y-137845161D01*
X103957373Y-137807800D01*
X103957367Y-137807799D01*
X103952284Y-137806894D01*
X103878452Y-137805992D01*
X103734081Y-137804228D01*
X103734079Y-137804228D01*
X103728911Y-137804165D01*
X103508091Y-137837955D01*
X103295756Y-137907357D01*
X103097607Y-138010507D01*
X103093474Y-138013610D01*
X103093471Y-138013612D01*
X102923100Y-138141530D01*
X102918965Y-138144635D01*
X102915393Y-138148373D01*
X102807729Y-138261037D01*
X102764629Y-138306138D01*
X102657201Y-138463621D01*
X102602293Y-138508621D01*
X102531768Y-138516792D01*
X102468021Y-138485538D01*
X102447324Y-138461054D01*
X102366822Y-138336617D01*
X102366820Y-138336614D01*
X102364014Y-138332277D01*
X102213670Y-138167051D01*
X102209619Y-138163852D01*
X102209615Y-138163848D01*
X102042414Y-138031800D01*
X102042410Y-138031798D01*
X102038359Y-138028598D01*
X101842789Y-137920638D01*
X101837920Y-137918914D01*
X101837916Y-137918912D01*
X101637087Y-137847795D01*
X101637083Y-137847794D01*
X101632212Y-137846069D01*
X101627119Y-137845162D01*
X101627116Y-137845161D01*
X101417373Y-137807800D01*
X101417367Y-137807799D01*
X101412284Y-137806894D01*
X101338452Y-137805992D01*
X101194081Y-137804228D01*
X101194079Y-137804228D01*
X101188911Y-137804165D01*
X100968091Y-137837955D01*
X100755756Y-137907357D01*
X100557607Y-138010507D01*
X100553474Y-138013610D01*
X100553471Y-138013612D01*
X100383100Y-138141530D01*
X100378965Y-138144635D01*
X100375393Y-138148373D01*
X100267729Y-138261037D01*
X100224629Y-138306138D01*
X100117201Y-138463621D01*
X100062293Y-138508621D01*
X99991768Y-138516792D01*
X99928021Y-138485538D01*
X99907324Y-138461054D01*
X99826822Y-138336617D01*
X99826820Y-138336614D01*
X99824014Y-138332277D01*
X99673670Y-138167051D01*
X99669619Y-138163852D01*
X99669615Y-138163848D01*
X99502414Y-138031800D01*
X99502410Y-138031798D01*
X99498359Y-138028598D01*
X99302789Y-137920638D01*
X99297920Y-137918914D01*
X99297916Y-137918912D01*
X99097087Y-137847795D01*
X99097083Y-137847794D01*
X99092212Y-137846069D01*
X99087119Y-137845162D01*
X99087116Y-137845161D01*
X98877373Y-137807800D01*
X98877367Y-137807799D01*
X98872284Y-137806894D01*
X98798452Y-137805992D01*
X98654081Y-137804228D01*
X98654079Y-137804228D01*
X98648911Y-137804165D01*
X98428091Y-137837955D01*
X98215756Y-137907357D01*
X98017607Y-138010507D01*
X98013474Y-138013610D01*
X98013471Y-138013612D01*
X97843100Y-138141530D01*
X97838965Y-138144635D01*
X97835393Y-138148373D01*
X97727729Y-138261037D01*
X97684629Y-138306138D01*
X97577201Y-138463621D01*
X97522293Y-138508621D01*
X97451768Y-138516792D01*
X97388021Y-138485538D01*
X97367324Y-138461054D01*
X97286822Y-138336617D01*
X97286820Y-138336614D01*
X97284014Y-138332277D01*
X97133670Y-138167051D01*
X97129619Y-138163852D01*
X97129615Y-138163848D01*
X96962414Y-138031800D01*
X96962410Y-138031798D01*
X96958359Y-138028598D01*
X96762789Y-137920638D01*
X96757920Y-137918914D01*
X96757916Y-137918912D01*
X96557087Y-137847795D01*
X96557083Y-137847794D01*
X96552212Y-137846069D01*
X96547119Y-137845162D01*
X96547116Y-137845161D01*
X96337373Y-137807800D01*
X96337367Y-137807799D01*
X96332284Y-137806894D01*
X96258452Y-137805992D01*
X96114081Y-137804228D01*
X96114079Y-137804228D01*
X96108911Y-137804165D01*
X95888091Y-137837955D01*
X95675756Y-137907357D01*
X95477607Y-138010507D01*
X95473474Y-138013610D01*
X95473471Y-138013612D01*
X95303100Y-138141530D01*
X95298965Y-138144635D01*
X95295393Y-138148373D01*
X95187729Y-138261037D01*
X95144629Y-138306138D01*
X95037201Y-138463621D01*
X94982293Y-138508621D01*
X94911768Y-138516792D01*
X94848021Y-138485538D01*
X94827324Y-138461054D01*
X94746822Y-138336617D01*
X94746820Y-138336614D01*
X94744014Y-138332277D01*
X94593670Y-138167051D01*
X94589619Y-138163852D01*
X94589615Y-138163848D01*
X94422414Y-138031800D01*
X94422410Y-138031798D01*
X94418359Y-138028598D01*
X94222789Y-137920638D01*
X94217920Y-137918914D01*
X94217916Y-137918912D01*
X94017087Y-137847795D01*
X94017083Y-137847794D01*
X94012212Y-137846069D01*
X94007119Y-137845162D01*
X94007116Y-137845161D01*
X93797373Y-137807800D01*
X93797367Y-137807799D01*
X93792284Y-137806894D01*
X93718452Y-137805992D01*
X93574081Y-137804228D01*
X93574079Y-137804228D01*
X93568911Y-137804165D01*
X93348091Y-137837955D01*
X93135756Y-137907357D01*
X92937607Y-138010507D01*
X92933474Y-138013610D01*
X92933471Y-138013612D01*
X92763100Y-138141530D01*
X92758965Y-138144635D01*
X92755393Y-138148373D01*
X92647729Y-138261037D01*
X92604629Y-138306138D01*
X92497201Y-138463621D01*
X92442293Y-138508621D01*
X92371768Y-138516792D01*
X92308021Y-138485538D01*
X92287324Y-138461054D01*
X92206822Y-138336617D01*
X92206820Y-138336614D01*
X92204014Y-138332277D01*
X92053670Y-138167051D01*
X92049619Y-138163852D01*
X92049615Y-138163848D01*
X91882414Y-138031800D01*
X91882410Y-138031798D01*
X91878359Y-138028598D01*
X91682789Y-137920638D01*
X91677920Y-137918914D01*
X91677916Y-137918912D01*
X91477087Y-137847795D01*
X91477083Y-137847794D01*
X91472212Y-137846069D01*
X91467119Y-137845162D01*
X91467116Y-137845161D01*
X91257373Y-137807800D01*
X91257367Y-137807799D01*
X91252284Y-137806894D01*
X91178452Y-137805992D01*
X91034081Y-137804228D01*
X91034079Y-137804228D01*
X91028911Y-137804165D01*
X90808091Y-137837955D01*
X90595756Y-137907357D01*
X90397607Y-138010507D01*
X90393474Y-138013610D01*
X90393471Y-138013612D01*
X90223100Y-138141530D01*
X90218965Y-138144635D01*
X90162537Y-138203684D01*
X90138283Y-138229064D01*
X90076759Y-138264494D01*
X90005846Y-138261037D01*
X89948060Y-138219791D01*
X89929207Y-138186243D01*
X89887767Y-138075703D01*
X89884615Y-138067295D01*
X89797261Y-137950739D01*
X89680705Y-137863385D01*
X89544316Y-137812255D01*
X89482134Y-137805500D01*
X87685866Y-137805500D01*
X87623684Y-137812255D01*
X87487295Y-137863385D01*
X87370739Y-137950739D01*
X87283385Y-138067295D01*
X87232255Y-138203684D01*
X87225500Y-138265866D01*
X87225500Y-140062134D01*
X66392168Y-140062134D01*
X66305735Y-139914518D01*
X66187928Y-139767208D01*
X66140136Y-139707447D01*
X66140135Y-139707445D01*
X66137284Y-139703881D01*
X65940191Y-139519766D01*
X65718584Y-139366032D01*
X65714501Y-139364001D01*
X65714498Y-139363999D01*
X65549606Y-139281967D01*
X65477106Y-139245899D01*
X65472772Y-139244478D01*
X65472769Y-139244477D01*
X65225147Y-139163302D01*
X65225141Y-139163301D01*
X65220814Y-139161882D01*
X65216322Y-139161102D01*
X64958860Y-139116399D01*
X64958852Y-139116398D01*
X64955079Y-139115743D01*
X64943817Y-139115182D01*
X64871422Y-139111578D01*
X64871414Y-139111578D01*
X64869851Y-139111500D01*
X64701488Y-139111500D01*
X64699220Y-139111665D01*
X64699208Y-139111665D01*
X64568116Y-139121177D01*
X64500996Y-139126047D01*
X64496541Y-139127031D01*
X64496538Y-139127031D01*
X64242088Y-139183209D01*
X64242084Y-139183210D01*
X64237628Y-139184194D01*
X64124010Y-139227240D01*
X63989682Y-139278132D01*
X63989679Y-139278133D01*
X63985412Y-139279750D01*
X63749632Y-139410714D01*
X63535227Y-139574343D01*
X63532034Y-139577609D01*
X63532032Y-139577611D01*
X63445811Y-139665811D01*
X63346688Y-139767208D01*
X63187966Y-139985270D01*
X63185844Y-139989304D01*
X63064510Y-140219921D01*
X63064507Y-140219927D01*
X63062385Y-140223961D01*
X63060865Y-140228266D01*
X63060863Y-140228270D01*
X62974429Y-140473030D01*
X62972575Y-140478280D01*
X62920419Y-140742900D01*
X62920192Y-140747453D01*
X62920192Y-140747456D01*
X62910991Y-140932292D01*
X62907009Y-141012277D01*
X61468500Y-141012277D01*
X61468500Y-134371655D01*
X68823858Y-134371655D01*
X68859104Y-134630638D01*
X68860412Y-134635124D01*
X68860412Y-134635126D01*
X68880098Y-134702664D01*
X68932243Y-134881567D01*
X69041668Y-135118928D01*
X69044231Y-135122837D01*
X69182410Y-135333596D01*
X69182414Y-135333601D01*
X69184976Y-135337509D01*
X69359018Y-135532506D01*
X69559970Y-135699637D01*
X69563973Y-135702066D01*
X69779422Y-135832804D01*
X69779426Y-135832806D01*
X69783419Y-135835229D01*
X70024455Y-135936303D01*
X70277783Y-136000641D01*
X70282434Y-136001109D01*
X70282438Y-136001110D01*
X70475308Y-136020531D01*
X70494867Y-136022500D01*
X70650354Y-136022500D01*
X70652679Y-136022327D01*
X70652685Y-136022327D01*
X70840000Y-136008407D01*
X70840004Y-136008406D01*
X70844652Y-136008061D01*
X70849200Y-136007032D01*
X70849206Y-136007031D01*
X71035601Y-135964853D01*
X71099577Y-135950377D01*
X71135769Y-135936303D01*
X71338824Y-135857340D01*
X71338827Y-135857339D01*
X71343177Y-135855647D01*
X71570098Y-135725951D01*
X71775357Y-135564138D01*
X71954443Y-135373763D01*
X72103424Y-135159009D01*
X72219025Y-134924593D01*
X72298707Y-134675665D01*
X72340721Y-134417693D01*
X72341324Y-134371655D01*
X128823858Y-134371655D01*
X128859104Y-134630638D01*
X128860412Y-134635124D01*
X128860412Y-134635126D01*
X128880098Y-134702664D01*
X128932243Y-134881567D01*
X129041668Y-135118928D01*
X129044231Y-135122837D01*
X129182410Y-135333596D01*
X129182414Y-135333601D01*
X129184976Y-135337509D01*
X129359018Y-135532506D01*
X129559970Y-135699637D01*
X129563973Y-135702066D01*
X129779422Y-135832804D01*
X129779426Y-135832806D01*
X129783419Y-135835229D01*
X130024455Y-135936303D01*
X130277783Y-136000641D01*
X130282434Y-136001109D01*
X130282438Y-136001110D01*
X130475308Y-136020531D01*
X130494867Y-136022500D01*
X130650354Y-136022500D01*
X130652679Y-136022327D01*
X130652685Y-136022327D01*
X130840000Y-136008407D01*
X130840004Y-136008406D01*
X130844652Y-136008061D01*
X130849200Y-136007032D01*
X130849206Y-136007031D01*
X131035601Y-135964853D01*
X131099577Y-135950377D01*
X131135769Y-135936303D01*
X131338824Y-135857340D01*
X131338827Y-135857339D01*
X131343177Y-135855647D01*
X131570098Y-135725951D01*
X131775357Y-135564138D01*
X131954443Y-135373763D01*
X132103424Y-135159009D01*
X132219025Y-134924593D01*
X132298707Y-134675665D01*
X132340721Y-134417693D01*
X132344142Y-134156345D01*
X132308896Y-133897362D01*
X132294473Y-133847877D01*
X132237068Y-133650932D01*
X132236253Y-133648134D01*
X144326500Y-133648134D01*
X144333255Y-133710316D01*
X144384385Y-133846705D01*
X144471739Y-133963261D01*
X144588295Y-134050615D01*
X144724684Y-134101745D01*
X144786866Y-134108500D01*
X148083134Y-134108500D01*
X148145316Y-134101745D01*
X148281705Y-134050615D01*
X148398261Y-133963261D01*
X148485615Y-133846705D01*
X148536745Y-133710316D01*
X148543500Y-133648134D01*
X148543500Y-131551866D01*
X148536745Y-131489684D01*
X148485615Y-131353295D01*
X148398261Y-131236739D01*
X148281705Y-131149385D01*
X148145316Y-131098255D01*
X148083134Y-131091500D01*
X144786866Y-131091500D01*
X144724684Y-131098255D01*
X144588295Y-131149385D01*
X144471739Y-131236739D01*
X144384385Y-131353295D01*
X144333255Y-131489684D01*
X144326500Y-131551866D01*
X144326500Y-133648134D01*
X132236253Y-133648134D01*
X132235757Y-133646433D01*
X132126332Y-133409072D01*
X132093519Y-133359024D01*
X131985590Y-133194404D01*
X131985586Y-133194399D01*
X131983024Y-133190491D01*
X131808982Y-132995494D01*
X131608030Y-132828363D01*
X131560844Y-132799730D01*
X131388578Y-132695196D01*
X131388574Y-132695194D01*
X131384581Y-132692771D01*
X131143545Y-132591697D01*
X130890217Y-132527359D01*
X130885566Y-132526891D01*
X130885562Y-132526890D01*
X130676271Y-132505816D01*
X130673133Y-132505500D01*
X130517646Y-132505500D01*
X130515321Y-132505673D01*
X130515315Y-132505673D01*
X130328000Y-132519593D01*
X130327996Y-132519594D01*
X130323348Y-132519939D01*
X130318800Y-132520968D01*
X130318794Y-132520969D01*
X130132399Y-132563147D01*
X130068423Y-132577623D01*
X130064071Y-132579315D01*
X130064069Y-132579316D01*
X129829176Y-132670660D01*
X129829173Y-132670661D01*
X129824823Y-132672353D01*
X129597902Y-132802049D01*
X129392643Y-132963862D01*
X129213557Y-133154237D01*
X129064576Y-133368991D01*
X128948975Y-133603407D01*
X128869293Y-133852335D01*
X128827279Y-134110307D01*
X128823858Y-134371655D01*
X72341324Y-134371655D01*
X72344142Y-134156345D01*
X72308896Y-133897362D01*
X72294473Y-133847877D01*
X72237068Y-133650932D01*
X72235757Y-133646433D01*
X72126332Y-133409072D01*
X72093519Y-133359024D01*
X71985590Y-133194404D01*
X71985586Y-133194399D01*
X71983024Y-133190491D01*
X71808982Y-132995494D01*
X71608030Y-132828363D01*
X71560844Y-132799730D01*
X71388578Y-132695196D01*
X71388574Y-132695194D01*
X71384581Y-132692771D01*
X71143545Y-132591697D01*
X70890217Y-132527359D01*
X70885566Y-132526891D01*
X70885562Y-132526890D01*
X70676271Y-132505816D01*
X70673133Y-132505500D01*
X70517646Y-132505500D01*
X70515321Y-132505673D01*
X70515315Y-132505673D01*
X70328000Y-132519593D01*
X70327996Y-132519594D01*
X70323348Y-132519939D01*
X70318800Y-132520968D01*
X70318794Y-132520969D01*
X70132399Y-132563147D01*
X70068423Y-132577623D01*
X70064071Y-132579315D01*
X70064069Y-132579316D01*
X69829176Y-132670660D01*
X69829173Y-132670661D01*
X69824823Y-132672353D01*
X69597902Y-132802049D01*
X69392643Y-132963862D01*
X69213557Y-133154237D01*
X69064576Y-133368991D01*
X68948975Y-133603407D01*
X68869293Y-133852335D01*
X68827279Y-134110307D01*
X68823858Y-134371655D01*
X61468500Y-134371655D01*
X61468500Y-130732670D01*
X138567160Y-130732670D01*
X138572887Y-130740320D01*
X138744042Y-130845205D01*
X138752837Y-130849687D01*
X138962988Y-130936734D01*
X138972373Y-130939783D01*
X139193554Y-130992885D01*
X139203301Y-130994428D01*
X139430070Y-131012275D01*
X139439930Y-131012275D01*
X139666699Y-130994428D01*
X139676446Y-130992885D01*
X139897627Y-130939783D01*
X139907012Y-130936734D01*
X140117163Y-130849687D01*
X140125958Y-130845205D01*
X140293445Y-130742568D01*
X140302907Y-130732110D01*
X140299124Y-130723334D01*
X139447812Y-129872022D01*
X139433868Y-129864408D01*
X139432035Y-129864539D01*
X139425420Y-129868790D01*
X138573920Y-130720290D01*
X138567160Y-130732670D01*
X61468500Y-130732670D01*
X61468500Y-129504930D01*
X137922725Y-129504930D01*
X137940572Y-129731699D01*
X137942115Y-129741446D01*
X137995217Y-129962627D01*
X137998266Y-129972012D01*
X138085313Y-130182163D01*
X138089795Y-130190958D01*
X138192432Y-130358445D01*
X138202890Y-130367907D01*
X138211666Y-130364124D01*
X139062978Y-129512812D01*
X139069356Y-129501132D01*
X139799408Y-129501132D01*
X139799539Y-129502965D01*
X139803790Y-129509580D01*
X140655290Y-130361080D01*
X140667670Y-130367840D01*
X140675320Y-130362113D01*
X140780205Y-130190958D01*
X140784687Y-130182163D01*
X140871734Y-129972012D01*
X140874783Y-129962627D01*
X140927885Y-129741446D01*
X140929428Y-129731699D01*
X140947275Y-129504930D01*
X140947275Y-129495070D01*
X140929428Y-129268301D01*
X140927885Y-129258554D01*
X140874783Y-129037373D01*
X140871734Y-129027988D01*
X140784687Y-128817837D01*
X140780205Y-128809042D01*
X140677568Y-128641555D01*
X140667110Y-128632093D01*
X140658334Y-128635876D01*
X139807022Y-129487188D01*
X139799408Y-129501132D01*
X139069356Y-129501132D01*
X139070592Y-129498868D01*
X139070461Y-129497035D01*
X139066210Y-129490420D01*
X138214710Y-128638920D01*
X138202330Y-128632160D01*
X138194680Y-128637887D01*
X138089795Y-128809042D01*
X138085313Y-128817837D01*
X137998266Y-129027988D01*
X137995217Y-129037373D01*
X137942115Y-129258554D01*
X137940572Y-129268301D01*
X137922725Y-129495070D01*
X137922725Y-129504930D01*
X61468500Y-129504930D01*
X61468500Y-128267890D01*
X138567093Y-128267890D01*
X138570876Y-128276666D01*
X139422188Y-129127978D01*
X139436132Y-129135592D01*
X139437965Y-129135461D01*
X139444580Y-129131210D01*
X140296080Y-128279710D01*
X140302840Y-128267330D01*
X140297113Y-128259680D01*
X140125958Y-128154795D01*
X140117163Y-128150313D01*
X139907012Y-128063266D01*
X139897627Y-128060217D01*
X139676446Y-128007115D01*
X139666699Y-128005572D01*
X139439930Y-127987725D01*
X139430070Y-127987725D01*
X139203301Y-128005572D01*
X139193554Y-128007115D01*
X138972373Y-128060217D01*
X138962988Y-128063266D01*
X138752837Y-128150313D01*
X138744042Y-128154795D01*
X138576555Y-128257432D01*
X138567093Y-128267890D01*
X61468500Y-128267890D01*
X61468500Y-127004930D01*
X152422725Y-127004930D01*
X152440572Y-127231699D01*
X152442115Y-127241446D01*
X152495217Y-127462627D01*
X152498266Y-127472012D01*
X152585313Y-127682163D01*
X152589795Y-127690958D01*
X152711230Y-127889121D01*
X152709149Y-127890396D01*
X152729720Y-127947739D01*
X152713758Y-128016918D01*
X152679503Y-128055974D01*
X152578920Y-128131357D01*
X152571739Y-128136739D01*
X152484385Y-128253295D01*
X152433255Y-128389684D01*
X152426500Y-128451866D01*
X152426500Y-130548134D01*
X152433255Y-130610316D01*
X152484385Y-130746705D01*
X152571739Y-130863261D01*
X152688295Y-130950615D01*
X152824684Y-131001745D01*
X152886866Y-131008500D01*
X154983134Y-131008500D01*
X155045316Y-131001745D01*
X155181705Y-130950615D01*
X155298261Y-130863261D01*
X155385615Y-130746705D01*
X155436745Y-130610316D01*
X155443500Y-130548134D01*
X155443500Y-128451866D01*
X155436745Y-128389684D01*
X155385615Y-128253295D01*
X155298261Y-128136739D01*
X155291080Y-128131357D01*
X155190497Y-128055974D01*
X155147982Y-127999115D01*
X155142956Y-127928296D01*
X155160176Y-127889983D01*
X155158770Y-127889121D01*
X155280205Y-127690958D01*
X155284687Y-127682163D01*
X155371734Y-127472012D01*
X155374783Y-127462627D01*
X155427885Y-127241446D01*
X155429428Y-127231699D01*
X155447275Y-127004930D01*
X155447275Y-126995070D01*
X155429428Y-126768301D01*
X155427885Y-126758554D01*
X155374783Y-126537373D01*
X155371734Y-126527988D01*
X155284687Y-126317837D01*
X155280205Y-126309042D01*
X155177568Y-126141555D01*
X155167110Y-126132093D01*
X155158334Y-126135876D01*
X154024095Y-127270115D01*
X153961783Y-127304141D01*
X153890968Y-127299076D01*
X153845905Y-127270115D01*
X152714710Y-126138920D01*
X152702330Y-126132160D01*
X152694680Y-126137887D01*
X152589795Y-126309042D01*
X152585313Y-126317837D01*
X152498266Y-126527988D01*
X152495217Y-126537373D01*
X152442115Y-126758554D01*
X152440572Y-126768301D01*
X152422725Y-126995070D01*
X152422725Y-127004930D01*
X61468500Y-127004930D01*
X61468500Y-124500000D01*
X137921835Y-124500000D01*
X137940465Y-124736711D01*
X137995895Y-124967594D01*
X138086760Y-125186963D01*
X138089346Y-125191183D01*
X138208241Y-125385202D01*
X138208245Y-125385208D01*
X138210824Y-125389416D01*
X138365031Y-125569969D01*
X138545584Y-125724176D01*
X138549792Y-125726755D01*
X138549798Y-125726759D01*
X138743817Y-125845654D01*
X138748037Y-125848240D01*
X138752607Y-125850133D01*
X138752611Y-125850135D01*
X138962833Y-125937211D01*
X138967406Y-125939105D01*
X139047609Y-125958360D01*
X139193476Y-125993380D01*
X139193482Y-125993381D01*
X139198289Y-125994535D01*
X139435000Y-126013165D01*
X139671711Y-125994535D01*
X139676518Y-125993381D01*
X139676524Y-125993380D01*
X139822391Y-125958360D01*
X139902594Y-125939105D01*
X139907167Y-125937211D01*
X140117389Y-125850135D01*
X140117393Y-125850133D01*
X140121963Y-125848240D01*
X140126183Y-125845654D01*
X140320202Y-125726759D01*
X140320208Y-125726755D01*
X140324416Y-125724176D01*
X140504969Y-125569969D01*
X140659176Y-125389416D01*
X140661755Y-125385208D01*
X140661759Y-125385202D01*
X140780654Y-125191183D01*
X140783240Y-125186963D01*
X140874105Y-124967594D01*
X140929535Y-124736711D01*
X140948165Y-124500000D01*
X152421835Y-124500000D01*
X152440465Y-124736711D01*
X152495895Y-124967594D01*
X152586760Y-125186963D01*
X152589346Y-125191183D01*
X152708241Y-125385202D01*
X152708245Y-125385208D01*
X152710824Y-125389416D01*
X152865031Y-125569969D01*
X152868787Y-125573177D01*
X153027526Y-125708753D01*
X153061402Y-125754686D01*
X153070878Y-125776668D01*
X153922188Y-126627978D01*
X153936132Y-126635592D01*
X153937965Y-126635461D01*
X153944580Y-126631210D01*
X154796080Y-125779710D01*
X154817026Y-125741352D01*
X154845782Y-125705928D01*
X155001213Y-125573177D01*
X155004969Y-125569969D01*
X155159176Y-125389416D01*
X155161755Y-125385208D01*
X155161759Y-125385202D01*
X155280654Y-125191183D01*
X155283240Y-125186963D01*
X155374105Y-124967594D01*
X155429535Y-124736711D01*
X155448165Y-124500000D01*
X155429535Y-124263289D01*
X155374105Y-124032406D01*
X155283240Y-123813037D01*
X155280654Y-123808817D01*
X155161759Y-123614798D01*
X155161755Y-123614792D01*
X155159176Y-123610584D01*
X155004969Y-123430031D01*
X154824416Y-123275824D01*
X154820208Y-123273245D01*
X154820202Y-123273241D01*
X154626183Y-123154346D01*
X154621963Y-123151760D01*
X154617393Y-123149867D01*
X154617389Y-123149865D01*
X154407167Y-123062789D01*
X154407165Y-123062788D01*
X154402594Y-123060895D01*
X154322391Y-123041640D01*
X154176524Y-123006620D01*
X154176518Y-123006619D01*
X154171711Y-123005465D01*
X153935000Y-122986835D01*
X153698289Y-123005465D01*
X153693482Y-123006619D01*
X153693476Y-123006620D01*
X153547609Y-123041640D01*
X153467406Y-123060895D01*
X153462835Y-123062788D01*
X153462833Y-123062789D01*
X153252611Y-123149865D01*
X153252607Y-123149867D01*
X153248037Y-123151760D01*
X153243817Y-123154346D01*
X153049798Y-123273241D01*
X153049792Y-123273245D01*
X153045584Y-123275824D01*
X152865031Y-123430031D01*
X152710824Y-123610584D01*
X152708245Y-123614792D01*
X152708241Y-123614798D01*
X152589346Y-123808817D01*
X152586760Y-123813037D01*
X152495895Y-124032406D01*
X152440465Y-124263289D01*
X152421835Y-124500000D01*
X140948165Y-124500000D01*
X140929535Y-124263289D01*
X140874105Y-124032406D01*
X140783240Y-123813037D01*
X140780654Y-123808817D01*
X140661759Y-123614798D01*
X140661755Y-123614792D01*
X140659176Y-123610584D01*
X140504969Y-123430031D01*
X140324416Y-123275824D01*
X140320208Y-123273245D01*
X140320202Y-123273241D01*
X140126183Y-123154346D01*
X140121963Y-123151760D01*
X140117393Y-123149867D01*
X140117389Y-123149865D01*
X139907167Y-123062789D01*
X139907165Y-123062788D01*
X139902594Y-123060895D01*
X139822391Y-123041640D01*
X139676524Y-123006620D01*
X139676518Y-123006619D01*
X139671711Y-123005465D01*
X139435000Y-122986835D01*
X139198289Y-123005465D01*
X139193482Y-123006619D01*
X139193476Y-123006620D01*
X139047609Y-123041640D01*
X138967406Y-123060895D01*
X138962835Y-123062788D01*
X138962833Y-123062789D01*
X138752611Y-123149865D01*
X138752607Y-123149867D01*
X138748037Y-123151760D01*
X138743817Y-123154346D01*
X138549798Y-123273241D01*
X138549792Y-123273245D01*
X138545584Y-123275824D01*
X138365031Y-123430031D01*
X138210824Y-123610584D01*
X138208245Y-123614792D01*
X138208241Y-123614798D01*
X138089346Y-123808817D01*
X138086760Y-123813037D01*
X137995895Y-124032406D01*
X137940465Y-124263289D01*
X137921835Y-124500000D01*
X61468500Y-124500000D01*
X61468500Y-122448134D01*
X144326500Y-122448134D01*
X144333255Y-122510316D01*
X144384385Y-122646705D01*
X144471739Y-122763261D01*
X144588295Y-122850615D01*
X144724684Y-122901745D01*
X144786866Y-122908500D01*
X148083134Y-122908500D01*
X148145316Y-122901745D01*
X148281705Y-122850615D01*
X148398261Y-122763261D01*
X148485615Y-122646705D01*
X148536745Y-122510316D01*
X148543500Y-122448134D01*
X148543500Y-120351866D01*
X148536745Y-120289684D01*
X148485615Y-120153295D01*
X148398261Y-120036739D01*
X148281705Y-119949385D01*
X148145316Y-119898255D01*
X148083134Y-119891500D01*
X144786866Y-119891500D01*
X144724684Y-119898255D01*
X144588295Y-119949385D01*
X144471739Y-120036739D01*
X144384385Y-120153295D01*
X144333255Y-120289684D01*
X144326500Y-120351866D01*
X144326500Y-122448134D01*
X61468500Y-122448134D01*
X61468500Y-113344669D01*
X145277001Y-113344669D01*
X145277371Y-113351490D01*
X145282895Y-113402352D01*
X145286521Y-113417604D01*
X145331676Y-113538054D01*
X145340214Y-113553649D01*
X145416715Y-113655724D01*
X145429276Y-113668285D01*
X145531351Y-113744786D01*
X145546946Y-113753324D01*
X145667394Y-113798478D01*
X145682649Y-113802105D01*
X145733514Y-113807631D01*
X145740328Y-113808000D01*
X146412885Y-113808000D01*
X146428124Y-113803525D01*
X146429329Y-113802135D01*
X146431000Y-113794452D01*
X146431000Y-113789884D01*
X146939000Y-113789884D01*
X146943475Y-113805123D01*
X146944865Y-113806328D01*
X146952548Y-113807999D01*
X147629669Y-113807999D01*
X147636490Y-113807629D01*
X147687352Y-113802105D01*
X147702604Y-113798479D01*
X147823054Y-113753324D01*
X147838649Y-113744786D01*
X147940724Y-113668285D01*
X147953285Y-113655724D01*
X148029786Y-113553649D01*
X148038324Y-113538054D01*
X148083478Y-113417606D01*
X148087105Y-113402351D01*
X148092631Y-113351486D01*
X148093000Y-113344672D01*
X148093000Y-112672115D01*
X148088525Y-112656876D01*
X148087135Y-112655671D01*
X148079452Y-112654000D01*
X146957115Y-112654000D01*
X146941876Y-112658475D01*
X146940671Y-112659865D01*
X146939000Y-112667548D01*
X146939000Y-113789884D01*
X146431000Y-113789884D01*
X146431000Y-112672115D01*
X146426525Y-112656876D01*
X146425135Y-112655671D01*
X146417452Y-112654000D01*
X145295116Y-112654000D01*
X145279877Y-112658475D01*
X145278672Y-112659865D01*
X145277001Y-112667548D01*
X145277001Y-113344669D01*
X61468500Y-113344669D01*
X61468500Y-109825469D01*
X145272095Y-109825469D01*
X145272392Y-109830622D01*
X145272392Y-109830625D01*
X145278067Y-109929041D01*
X145285427Y-110056697D01*
X145286564Y-110061743D01*
X145286565Y-110061749D01*
X145318741Y-110204523D01*
X145336346Y-110282642D01*
X145338288Y-110287424D01*
X145338289Y-110287428D01*
X145421540Y-110492450D01*
X145423484Y-110497237D01*
X145544501Y-110694719D01*
X145547882Y-110698622D01*
X145656653Y-110824191D01*
X145686135Y-110888776D01*
X145676020Y-110959049D01*
X145629519Y-111012697D01*
X145605646Y-111024670D01*
X145546944Y-111046677D01*
X145531351Y-111055214D01*
X145429276Y-111131715D01*
X145416715Y-111144276D01*
X145340214Y-111246351D01*
X145331676Y-111261946D01*
X145286522Y-111382394D01*
X145282895Y-111397649D01*
X145277369Y-111448514D01*
X145277000Y-111455328D01*
X145277000Y-112127885D01*
X145281475Y-112143124D01*
X145282865Y-112144329D01*
X145290548Y-112146000D01*
X148074884Y-112146000D01*
X148090123Y-112141525D01*
X148091328Y-112140135D01*
X148092999Y-112132452D01*
X148092999Y-111455331D01*
X148092629Y-111448510D01*
X148087105Y-111397648D01*
X148083479Y-111382396D01*
X148038324Y-111261946D01*
X148029786Y-111246351D01*
X147953285Y-111144276D01*
X147940724Y-111131715D01*
X147838649Y-111055214D01*
X147823052Y-111046675D01*
X147764415Y-111024693D01*
X147707650Y-110982052D01*
X147682950Y-110915490D01*
X147698157Y-110846141D01*
X147719703Y-110817461D01*
X147757641Y-110779654D01*
X147761303Y-110776005D01*
X147896458Y-110587917D01*
X147943641Y-110492450D01*
X147996784Y-110384922D01*
X147996785Y-110384920D01*
X147999078Y-110380280D01*
X148066408Y-110158671D01*
X148096640Y-109929041D01*
X148098327Y-109860000D01*
X148092032Y-109783434D01*
X148079773Y-109634318D01*
X148079772Y-109634312D01*
X148079349Y-109629167D01*
X148022925Y-109404533D01*
X148020866Y-109399797D01*
X147932630Y-109196868D01*
X147932628Y-109196865D01*
X147930570Y-109192131D01*
X147804764Y-108997665D01*
X147648887Y-108826358D01*
X147644836Y-108823159D01*
X147644832Y-108823155D01*
X147471177Y-108686011D01*
X147471172Y-108686008D01*
X147467123Y-108682810D01*
X147462607Y-108680317D01*
X147462604Y-108680315D01*
X147268879Y-108573373D01*
X147268875Y-108573371D01*
X147264355Y-108570876D01*
X147259486Y-108569152D01*
X147259482Y-108569150D01*
X147050903Y-108495288D01*
X147050899Y-108495287D01*
X147046028Y-108493562D01*
X147040935Y-108492655D01*
X147040932Y-108492654D01*
X146823095Y-108453851D01*
X146823089Y-108453850D01*
X146818006Y-108452945D01*
X146745096Y-108452054D01*
X146591581Y-108450179D01*
X146591579Y-108450179D01*
X146586411Y-108450116D01*
X146357464Y-108485150D01*
X146137314Y-108557106D01*
X146132726Y-108559494D01*
X146132722Y-108559496D01*
X146106065Y-108573373D01*
X145931872Y-108664052D01*
X145927739Y-108667155D01*
X145927736Y-108667157D01*
X145902625Y-108686011D01*
X145746655Y-108803117D01*
X145586639Y-108970564D01*
X145583725Y-108974836D01*
X145583724Y-108974837D01*
X145568152Y-108997665D01*
X145456119Y-109161899D01*
X145358602Y-109371981D01*
X145296707Y-109595169D01*
X145272095Y-109825469D01*
X61468500Y-109825469D01*
X61468500Y-101231522D01*
X141827273Y-101231522D01*
X141874764Y-101408761D01*
X141878510Y-101419053D01*
X141970586Y-101616511D01*
X141976069Y-101626007D01*
X142101028Y-101804467D01*
X142108084Y-101812875D01*
X142262125Y-101966916D01*
X142270533Y-101973972D01*
X142448993Y-102098931D01*
X142458489Y-102104414D01*
X142655947Y-102196490D01*
X142666239Y-102200236D01*
X142876688Y-102256625D01*
X142887481Y-102258528D01*
X143050170Y-102272762D01*
X143055635Y-102273000D01*
X143237885Y-102273000D01*
X143253124Y-102268525D01*
X143254329Y-102267135D01*
X143256000Y-102259452D01*
X143256000Y-102254885D01*
X143764000Y-102254885D01*
X143768475Y-102270124D01*
X143769865Y-102271329D01*
X143777548Y-102273000D01*
X143964365Y-102273000D01*
X143969830Y-102272762D01*
X144132519Y-102258528D01*
X144143312Y-102256625D01*
X144353761Y-102200236D01*
X144364053Y-102196490D01*
X144561511Y-102104414D01*
X144571007Y-102098931D01*
X144749467Y-101973972D01*
X144757875Y-101966916D01*
X144911916Y-101812875D01*
X144918972Y-101804467D01*
X145043931Y-101626007D01*
X145049414Y-101616511D01*
X145141490Y-101419053D01*
X145145236Y-101408761D01*
X145191394Y-101236497D01*
X145191058Y-101222401D01*
X145183116Y-101219000D01*
X143782115Y-101219000D01*
X143766876Y-101223475D01*
X143765671Y-101224865D01*
X143764000Y-101232548D01*
X143764000Y-102254885D01*
X143256000Y-102254885D01*
X143256000Y-101237115D01*
X143251525Y-101221876D01*
X143250135Y-101220671D01*
X143242452Y-101219000D01*
X141842033Y-101219000D01*
X141828502Y-101222973D01*
X141827273Y-101231522D01*
X61468500Y-101231522D01*
X61468500Y-75771655D01*
X68823858Y-75771655D01*
X68859104Y-76030638D01*
X68860412Y-76035124D01*
X68860412Y-76035126D01*
X68880098Y-76102664D01*
X68932243Y-76281567D01*
X69041668Y-76518928D01*
X69044231Y-76522837D01*
X69182410Y-76733596D01*
X69182414Y-76733601D01*
X69184976Y-76737509D01*
X69359018Y-76932506D01*
X69559970Y-77099637D01*
X69563973Y-77102066D01*
X69779422Y-77232804D01*
X69779426Y-77232806D01*
X69783419Y-77235229D01*
X70024455Y-77336303D01*
X70277783Y-77400641D01*
X70282434Y-77401109D01*
X70282438Y-77401110D01*
X70475308Y-77420531D01*
X70494867Y-77422500D01*
X70650354Y-77422500D01*
X70652679Y-77422327D01*
X70652685Y-77422327D01*
X70840000Y-77408407D01*
X70840004Y-77408406D01*
X70844652Y-77408061D01*
X70849200Y-77407032D01*
X70849206Y-77407031D01*
X71035601Y-77364853D01*
X71099577Y-77350377D01*
X71135769Y-77336303D01*
X71338824Y-77257340D01*
X71338827Y-77257339D01*
X71343177Y-77255647D01*
X71570098Y-77125951D01*
X71775357Y-76964138D01*
X71954443Y-76773763D01*
X72103424Y-76559009D01*
X72219025Y-76324593D01*
X72298707Y-76075665D01*
X72340721Y-75817693D01*
X72341324Y-75771655D01*
X128823858Y-75771655D01*
X128859104Y-76030638D01*
X128860412Y-76035124D01*
X128860412Y-76035126D01*
X128880098Y-76102664D01*
X128932243Y-76281567D01*
X129041668Y-76518928D01*
X129044231Y-76522837D01*
X129182410Y-76733596D01*
X129182414Y-76733601D01*
X129184976Y-76737509D01*
X129359018Y-76932506D01*
X129559970Y-77099637D01*
X129563973Y-77102066D01*
X129779422Y-77232804D01*
X129779426Y-77232806D01*
X129783419Y-77235229D01*
X130024455Y-77336303D01*
X130277783Y-77400641D01*
X130282434Y-77401109D01*
X130282438Y-77401110D01*
X130475308Y-77420531D01*
X130494867Y-77422500D01*
X130650354Y-77422500D01*
X130652679Y-77422327D01*
X130652685Y-77422327D01*
X130840000Y-77408407D01*
X130840004Y-77408406D01*
X130844652Y-77408061D01*
X130849200Y-77407032D01*
X130849206Y-77407031D01*
X131035601Y-77364853D01*
X131099577Y-77350377D01*
X131135769Y-77336303D01*
X131338824Y-77257340D01*
X131338827Y-77257339D01*
X131343177Y-77255647D01*
X131570098Y-77125951D01*
X131775357Y-76964138D01*
X131954443Y-76773763D01*
X132103424Y-76559009D01*
X132219025Y-76324593D01*
X132298707Y-76075665D01*
X132340721Y-75817693D01*
X132344142Y-75556345D01*
X132308896Y-75297362D01*
X132294473Y-75247877D01*
X132237068Y-75050932D01*
X132235757Y-75046433D01*
X132126332Y-74809072D01*
X132052216Y-74696026D01*
X131985590Y-74594404D01*
X131985586Y-74594399D01*
X131983024Y-74590491D01*
X131808982Y-74395494D01*
X131608030Y-74228363D01*
X131560844Y-74199730D01*
X131388578Y-74095196D01*
X131388574Y-74095194D01*
X131384581Y-74092771D01*
X131143545Y-73991697D01*
X130890217Y-73927359D01*
X130885566Y-73926891D01*
X130885562Y-73926890D01*
X130676271Y-73905816D01*
X130673133Y-73905500D01*
X130517646Y-73905500D01*
X130515321Y-73905673D01*
X130515315Y-73905673D01*
X130328000Y-73919593D01*
X130327996Y-73919594D01*
X130323348Y-73919939D01*
X130318800Y-73920968D01*
X130318794Y-73920969D01*
X130132399Y-73963147D01*
X130068423Y-73977623D01*
X130064071Y-73979315D01*
X130064069Y-73979316D01*
X129829176Y-74070660D01*
X129829173Y-74070661D01*
X129824823Y-74072353D01*
X129597902Y-74202049D01*
X129392643Y-74363862D01*
X129213557Y-74554237D01*
X129121284Y-74687247D01*
X129067254Y-74765131D01*
X129064576Y-74768991D01*
X129062510Y-74773181D01*
X129062508Y-74773184D01*
X128992524Y-74915099D01*
X128948975Y-75003407D01*
X128869293Y-75252335D01*
X128827279Y-75510307D01*
X128823858Y-75771655D01*
X72341324Y-75771655D01*
X72344142Y-75556345D01*
X72308896Y-75297362D01*
X72294473Y-75247877D01*
X72237068Y-75050932D01*
X72235757Y-75046433D01*
X72126332Y-74809072D01*
X72052216Y-74696026D01*
X71985590Y-74594404D01*
X71985586Y-74594399D01*
X71983024Y-74590491D01*
X71808982Y-74395494D01*
X71608030Y-74228363D01*
X71560844Y-74199730D01*
X71388578Y-74095196D01*
X71388574Y-74095194D01*
X71384581Y-74092771D01*
X71143545Y-73991697D01*
X70890217Y-73927359D01*
X70885566Y-73926891D01*
X70885562Y-73926890D01*
X70676271Y-73905816D01*
X70673133Y-73905500D01*
X70517646Y-73905500D01*
X70515321Y-73905673D01*
X70515315Y-73905673D01*
X70328000Y-73919593D01*
X70327996Y-73919594D01*
X70323348Y-73919939D01*
X70318800Y-73920968D01*
X70318794Y-73920969D01*
X70132399Y-73963147D01*
X70068423Y-73977623D01*
X70064071Y-73979315D01*
X70064069Y-73979316D01*
X69829176Y-74070660D01*
X69829173Y-74070661D01*
X69824823Y-74072353D01*
X69597902Y-74202049D01*
X69392643Y-74363862D01*
X69213557Y-74554237D01*
X69121284Y-74687247D01*
X69067254Y-74765131D01*
X69064576Y-74768991D01*
X69062510Y-74773181D01*
X69062508Y-74773184D01*
X68992524Y-74915099D01*
X68948975Y-75003407D01*
X68869293Y-75252335D01*
X68827279Y-75510307D01*
X68823858Y-75771655D01*
X61468500Y-75771655D01*
X61468500Y-68332943D01*
X72835480Y-68332943D01*
X72836226Y-68340835D01*
X72839641Y-68376961D01*
X72840200Y-68388819D01*
X72840200Y-70290433D01*
X72839673Y-70301616D01*
X72837998Y-70309109D01*
X72838247Y-70317035D01*
X72838247Y-70317036D01*
X72840138Y-70377186D01*
X72840200Y-70381145D01*
X72840200Y-70409056D01*
X72840697Y-70412990D01*
X72840697Y-70412991D01*
X72840705Y-70413056D01*
X72841638Y-70424893D01*
X72843027Y-70469089D01*
X72848678Y-70488539D01*
X72852687Y-70507900D01*
X72855226Y-70527997D01*
X72858144Y-70535367D01*
X72858145Y-70535371D01*
X72871502Y-70569106D01*
X72875348Y-70580338D01*
X72885471Y-70615181D01*
X72887682Y-70622793D01*
X72891715Y-70629612D01*
X72891717Y-70629617D01*
X72897993Y-70640228D01*
X72906688Y-70657976D01*
X72914148Y-70676817D01*
X72918810Y-70683233D01*
X72918810Y-70683234D01*
X72940136Y-70712587D01*
X72946652Y-70722507D01*
X72955559Y-70737567D01*
X72969158Y-70760562D01*
X72983479Y-70774883D01*
X72996319Y-70789916D01*
X73008228Y-70806307D01*
X73014334Y-70811358D01*
X73042305Y-70834498D01*
X73051084Y-70842488D01*
X73191143Y-70982547D01*
X73198687Y-70990837D01*
X73202800Y-70997318D01*
X73208577Y-71002743D01*
X73252467Y-71043958D01*
X73255309Y-71046713D01*
X73275031Y-71066435D01*
X73278155Y-71068858D01*
X73278159Y-71068862D01*
X73278224Y-71068912D01*
X73287245Y-71076617D01*
X73319479Y-71106886D01*
X73326427Y-71110705D01*
X73326429Y-71110707D01*
X73337232Y-71116646D01*
X73353759Y-71127502D01*
X73363498Y-71135057D01*
X73363500Y-71135058D01*
X73369760Y-71139914D01*
X73410340Y-71157474D01*
X73420988Y-71162691D01*
X73445776Y-71176318D01*
X73459740Y-71183995D01*
X73467416Y-71185966D01*
X73467419Y-71185967D01*
X73479362Y-71189033D01*
X73498067Y-71195437D01*
X73516655Y-71203481D01*
X73524478Y-71204720D01*
X73524488Y-71204723D01*
X73560324Y-71210399D01*
X73571944Y-71212805D01*
X73603759Y-71220973D01*
X73614770Y-71223800D01*
X73635024Y-71223800D01*
X73654734Y-71225351D01*
X73674743Y-71228520D01*
X73682635Y-71227774D01*
X73701380Y-71226002D01*
X73718762Y-71224359D01*
X73730619Y-71223800D01*
X75803933Y-71223800D01*
X75815116Y-71224327D01*
X75822609Y-71226002D01*
X75830535Y-71225753D01*
X75830536Y-71225753D01*
X75890686Y-71223862D01*
X75894645Y-71223800D01*
X75922556Y-71223800D01*
X75926491Y-71223303D01*
X75926556Y-71223295D01*
X75938393Y-71222362D01*
X75970651Y-71221348D01*
X75974670Y-71221222D01*
X75982589Y-71220973D01*
X76002043Y-71215321D01*
X76021400Y-71211313D01*
X76033630Y-71209768D01*
X76033631Y-71209768D01*
X76041497Y-71208774D01*
X76048868Y-71205855D01*
X76048870Y-71205855D01*
X76082612Y-71192496D01*
X76093842Y-71188651D01*
X76128683Y-71178529D01*
X76128684Y-71178529D01*
X76136293Y-71176318D01*
X76143112Y-71172285D01*
X76143117Y-71172283D01*
X76153728Y-71166007D01*
X76171476Y-71157312D01*
X76190317Y-71149852D01*
X76226087Y-71123864D01*
X76236007Y-71117348D01*
X76267235Y-71098880D01*
X76267238Y-71098878D01*
X76274062Y-71094842D01*
X76288383Y-71080521D01*
X76303417Y-71067680D01*
X76305131Y-71066435D01*
X76319807Y-71055772D01*
X76347998Y-71021695D01*
X76355988Y-71012916D01*
X76633549Y-70735355D01*
X76695861Y-70701329D01*
X76747762Y-70700979D01*
X76927597Y-70737567D01*
X76932772Y-70737757D01*
X76932774Y-70737757D01*
X77145673Y-70745564D01*
X77145677Y-70745564D01*
X77150837Y-70745753D01*
X77155957Y-70745097D01*
X77155959Y-70745097D01*
X77367288Y-70718025D01*
X77367289Y-70718025D01*
X77372416Y-70717368D01*
X77388352Y-70712587D01*
X77581429Y-70654661D01*
X77581434Y-70654659D01*
X77586384Y-70653174D01*
X77786994Y-70554896D01*
X77968860Y-70425173D01*
X77979011Y-70415058D01*
X78073054Y-70321342D01*
X78127096Y-70267489D01*
X78257453Y-70086077D01*
X78258776Y-70087028D01*
X78305645Y-70043857D01*
X78375580Y-70031625D01*
X78441026Y-70059144D01*
X78468875Y-70090994D01*
X78528987Y-70189088D01*
X78675250Y-70357938D01*
X78847126Y-70500632D01*
X79040000Y-70613338D01*
X79044825Y-70615180D01*
X79044826Y-70615181D01*
X79064760Y-70622793D01*
X79248692Y-70693030D01*
X79253760Y-70694061D01*
X79253763Y-70694062D01*
X79344817Y-70712587D01*
X79467597Y-70737567D01*
X79472772Y-70737757D01*
X79472774Y-70737757D01*
X79685673Y-70745564D01*
X79685677Y-70745564D01*
X79690837Y-70745753D01*
X79695957Y-70745097D01*
X79695959Y-70745097D01*
X79907288Y-70718025D01*
X79907289Y-70718025D01*
X79912416Y-70717368D01*
X79928352Y-70712587D01*
X80121429Y-70654661D01*
X80121434Y-70654659D01*
X80126384Y-70653174D01*
X80326994Y-70554896D01*
X80508860Y-70425173D01*
X80519011Y-70415058D01*
X80613054Y-70321342D01*
X80667096Y-70267489D01*
X80797453Y-70086077D01*
X80798776Y-70087028D01*
X80845645Y-70043857D01*
X80915580Y-70031625D01*
X80981026Y-70059144D01*
X81008875Y-70090994D01*
X81068987Y-70189088D01*
X81215250Y-70357938D01*
X81387126Y-70500632D01*
X81580000Y-70613338D01*
X81584825Y-70615180D01*
X81584826Y-70615181D01*
X81604760Y-70622793D01*
X81788692Y-70693030D01*
X81793760Y-70694061D01*
X81793763Y-70694062D01*
X81884817Y-70712587D01*
X82007597Y-70737567D01*
X82012772Y-70737757D01*
X82012774Y-70737757D01*
X82225673Y-70745564D01*
X82225677Y-70745564D01*
X82230837Y-70745753D01*
X82235957Y-70745097D01*
X82235959Y-70745097D01*
X82447288Y-70718025D01*
X82447289Y-70718025D01*
X82452416Y-70717368D01*
X82457367Y-70715883D01*
X82457370Y-70715882D01*
X82498829Y-70703444D01*
X82569825Y-70703028D01*
X82624131Y-70735035D01*
X83760543Y-71871447D01*
X83768087Y-71879737D01*
X83772200Y-71886218D01*
X83777977Y-71891643D01*
X83821867Y-71932858D01*
X83824709Y-71935613D01*
X83844430Y-71955334D01*
X83847625Y-71957812D01*
X83856647Y-71965518D01*
X83888879Y-71995786D01*
X83895828Y-71999606D01*
X83906632Y-72005546D01*
X83923156Y-72016399D01*
X83939159Y-72028813D01*
X83979743Y-72046376D01*
X83990373Y-72051583D01*
X84029140Y-72072895D01*
X84036817Y-72074866D01*
X84036822Y-72074868D01*
X84048758Y-72077932D01*
X84067466Y-72084337D01*
X84086055Y-72092381D01*
X84093883Y-72093621D01*
X84093890Y-72093623D01*
X84129724Y-72099299D01*
X84141344Y-72101705D01*
X84173159Y-72109873D01*
X84184170Y-72112700D01*
X84204424Y-72112700D01*
X84224134Y-72114251D01*
X84244143Y-72117420D01*
X84252035Y-72116674D01*
X84270780Y-72114902D01*
X84288162Y-72113259D01*
X84300019Y-72112700D01*
X121029333Y-72112700D01*
X121040516Y-72113227D01*
X121048009Y-72114902D01*
X121055935Y-72114653D01*
X121055936Y-72114653D01*
X121116086Y-72112762D01*
X121120045Y-72112700D01*
X121147956Y-72112700D01*
X121151891Y-72112203D01*
X121151956Y-72112195D01*
X121163793Y-72111262D01*
X121196051Y-72110248D01*
X121200070Y-72110122D01*
X121207989Y-72109873D01*
X121227443Y-72104221D01*
X121246800Y-72100213D01*
X121259030Y-72098668D01*
X121259031Y-72098668D01*
X121266897Y-72097674D01*
X121274268Y-72094755D01*
X121274270Y-72094755D01*
X121308012Y-72081396D01*
X121319242Y-72077551D01*
X121354083Y-72067429D01*
X121354084Y-72067429D01*
X121361693Y-72065218D01*
X121368512Y-72061185D01*
X121368517Y-72061183D01*
X121379128Y-72054907D01*
X121396876Y-72046212D01*
X121415717Y-72038752D01*
X121436087Y-72023953D01*
X121451487Y-72012764D01*
X121461407Y-72006248D01*
X121492635Y-71987780D01*
X121492638Y-71987778D01*
X121499462Y-71983742D01*
X121513783Y-71969421D01*
X121528817Y-71956580D01*
X121530532Y-71955334D01*
X121545207Y-71944672D01*
X121573398Y-71910595D01*
X121581388Y-71901816D01*
X123044047Y-70439158D01*
X123106359Y-70405132D01*
X123177175Y-70410197D01*
X123213624Y-70431307D01*
X123268296Y-70476697D01*
X123290292Y-70494958D01*
X123297126Y-70500632D01*
X123490000Y-70613338D01*
X123494825Y-70615180D01*
X123494826Y-70615181D01*
X123514760Y-70622793D01*
X123698692Y-70693030D01*
X123703760Y-70694061D01*
X123703763Y-70694062D01*
X123794817Y-70712587D01*
X123917597Y-70737567D01*
X123922772Y-70737757D01*
X123922774Y-70737757D01*
X124135673Y-70745564D01*
X124135677Y-70745564D01*
X124140837Y-70745753D01*
X124145957Y-70745097D01*
X124145959Y-70745097D01*
X124357288Y-70718025D01*
X124357289Y-70718025D01*
X124362416Y-70717368D01*
X124378352Y-70712587D01*
X124571429Y-70654661D01*
X124571434Y-70654659D01*
X124576384Y-70653174D01*
X124776994Y-70554896D01*
X124958860Y-70425173D01*
X124969011Y-70415058D01*
X125063054Y-70321342D01*
X125117096Y-70267489D01*
X125247453Y-70086077D01*
X125248776Y-70087028D01*
X125295645Y-70043857D01*
X125365580Y-70031625D01*
X125431026Y-70059144D01*
X125458875Y-70090994D01*
X125518987Y-70189088D01*
X125665250Y-70357938D01*
X125837126Y-70500632D01*
X126030000Y-70613338D01*
X126034825Y-70615180D01*
X126034826Y-70615181D01*
X126054760Y-70622793D01*
X126238692Y-70693030D01*
X126243760Y-70694061D01*
X126243763Y-70694062D01*
X126334817Y-70712587D01*
X126457597Y-70737567D01*
X126462772Y-70737757D01*
X126462774Y-70737757D01*
X126675673Y-70745564D01*
X126675677Y-70745564D01*
X126680837Y-70745753D01*
X126685957Y-70745097D01*
X126685959Y-70745097D01*
X126897288Y-70718025D01*
X126897289Y-70718025D01*
X126902416Y-70717368D01*
X126918352Y-70712587D01*
X127111429Y-70654661D01*
X127111434Y-70654659D01*
X127116384Y-70653174D01*
X127316994Y-70554896D01*
X127498860Y-70425173D01*
X127509011Y-70415058D01*
X127603054Y-70321342D01*
X127657096Y-70267489D01*
X127787453Y-70086077D01*
X127808320Y-70043857D01*
X127884136Y-69890453D01*
X127884137Y-69890451D01*
X127886430Y-69885811D01*
X127951370Y-69672069D01*
X127980529Y-69450590D01*
X127982156Y-69384000D01*
X127963852Y-69161361D01*
X127909431Y-68944702D01*
X127820354Y-68739840D01*
X127758300Y-68643919D01*
X127701822Y-68556617D01*
X127701820Y-68556614D01*
X127699014Y-68552277D01*
X127548670Y-68387051D01*
X127544619Y-68383852D01*
X127544615Y-68383848D01*
X127377414Y-68251800D01*
X127377410Y-68251798D01*
X127373359Y-68248598D01*
X127177789Y-68140638D01*
X127172920Y-68138914D01*
X127172916Y-68138912D01*
X126972087Y-68067795D01*
X126972083Y-68067794D01*
X126967212Y-68066069D01*
X126962119Y-68065162D01*
X126962116Y-68065161D01*
X126752373Y-68027800D01*
X126752367Y-68027799D01*
X126747284Y-68026894D01*
X126673452Y-68025992D01*
X126529081Y-68024228D01*
X126529079Y-68024228D01*
X126523911Y-68024165D01*
X126303091Y-68057955D01*
X126090756Y-68127357D01*
X126060912Y-68142893D01*
X125898040Y-68227679D01*
X125892607Y-68230507D01*
X125888474Y-68233610D01*
X125888471Y-68233612D01*
X125718100Y-68361530D01*
X125713965Y-68364635D01*
X125695605Y-68383848D01*
X125580052Y-68504767D01*
X125559629Y-68526138D01*
X125452201Y-68683621D01*
X125397293Y-68728621D01*
X125326768Y-68736792D01*
X125263021Y-68705538D01*
X125242324Y-68681054D01*
X125161822Y-68556617D01*
X125161820Y-68556614D01*
X125159014Y-68552277D01*
X125008670Y-68387051D01*
X125004619Y-68383852D01*
X125004615Y-68383848D01*
X124837414Y-68251800D01*
X124837410Y-68251798D01*
X124833359Y-68248598D01*
X124637789Y-68140638D01*
X124632920Y-68138914D01*
X124632916Y-68138912D01*
X124432087Y-68067795D01*
X124432083Y-68067794D01*
X124427212Y-68066069D01*
X124422119Y-68065162D01*
X124422116Y-68065161D01*
X124212373Y-68027800D01*
X124212367Y-68027799D01*
X124207284Y-68026894D01*
X124133452Y-68025992D01*
X123989081Y-68024228D01*
X123989079Y-68024228D01*
X123983911Y-68024165D01*
X123763091Y-68057955D01*
X123550756Y-68127357D01*
X123520912Y-68142893D01*
X123358040Y-68227679D01*
X123352607Y-68230507D01*
X123348474Y-68233610D01*
X123348471Y-68233612D01*
X123328512Y-68248598D01*
X123231856Y-68321169D01*
X123165372Y-68346075D01*
X123095977Y-68331083D01*
X123067108Y-68309504D01*
X122831594Y-68073989D01*
X122531347Y-67773742D01*
X122523813Y-67765463D01*
X122519700Y-67758982D01*
X122470048Y-67712356D01*
X122467207Y-67709602D01*
X122447470Y-67689865D01*
X122444273Y-67687385D01*
X122435251Y-67679680D01*
X122421822Y-67667069D01*
X122403021Y-67649414D01*
X122396075Y-67645595D01*
X122396072Y-67645593D01*
X122385266Y-67639652D01*
X122368747Y-67628801D01*
X122368283Y-67628441D01*
X122352741Y-67616386D01*
X122345472Y-67613241D01*
X122345468Y-67613238D01*
X122312163Y-67598826D01*
X122301513Y-67593609D01*
X122262760Y-67572305D01*
X122251910Y-67569519D01*
X122248354Y-67568606D01*
X122243137Y-67567267D01*
X122224434Y-67560863D01*
X122213120Y-67555967D01*
X122213119Y-67555967D01*
X122205845Y-67552819D01*
X122198022Y-67551580D01*
X122198012Y-67551577D01*
X122162176Y-67545901D01*
X122150556Y-67543495D01*
X122115411Y-67534472D01*
X122115410Y-67534472D01*
X122107730Y-67532500D01*
X122087476Y-67532500D01*
X122067765Y-67530949D01*
X122055586Y-67529020D01*
X122047757Y-67527780D01*
X122018486Y-67530547D01*
X122003739Y-67531941D01*
X121991881Y-67532500D01*
X120295767Y-67532500D01*
X120284584Y-67531973D01*
X120277091Y-67530298D01*
X120269165Y-67530547D01*
X120269164Y-67530547D01*
X120209014Y-67532438D01*
X120205055Y-67532500D01*
X120177144Y-67532500D01*
X120173210Y-67532997D01*
X120173209Y-67532997D01*
X120173144Y-67533005D01*
X120161307Y-67533938D01*
X120129490Y-67534938D01*
X120125029Y-67535078D01*
X120117110Y-67535327D01*
X120099454Y-67540456D01*
X120097658Y-67540978D01*
X120078306Y-67544986D01*
X120071235Y-67545880D01*
X120058203Y-67547526D01*
X120050834Y-67550443D01*
X120050832Y-67550444D01*
X120017097Y-67563800D01*
X120005869Y-67567645D01*
X119963407Y-67579982D01*
X119956584Y-67584017D01*
X119956582Y-67584018D01*
X119945972Y-67590293D01*
X119928224Y-67598988D01*
X119909383Y-67606448D01*
X119902967Y-67611110D01*
X119902966Y-67611110D01*
X119873613Y-67632436D01*
X119863693Y-67638952D01*
X119832465Y-67657420D01*
X119832462Y-67657422D01*
X119825638Y-67661458D01*
X119811317Y-67675779D01*
X119796284Y-67688619D01*
X119779893Y-67700528D01*
X119774843Y-67706632D01*
X119774838Y-67706637D01*
X119751707Y-67734598D01*
X119743717Y-67743379D01*
X119456344Y-68030751D01*
X119394032Y-68064776D01*
X119345153Y-68065702D01*
X119132373Y-68027800D01*
X119132367Y-68027799D01*
X119127284Y-68026894D01*
X119053452Y-68025992D01*
X118909081Y-68024228D01*
X118909079Y-68024228D01*
X118903911Y-68024165D01*
X118683091Y-68057955D01*
X118470756Y-68127357D01*
X118440912Y-68142893D01*
X118278040Y-68227679D01*
X118272607Y-68230507D01*
X118268474Y-68233610D01*
X118268471Y-68233612D01*
X118098100Y-68361530D01*
X118093965Y-68364635D01*
X118075605Y-68383848D01*
X117960052Y-68504767D01*
X117939629Y-68526138D01*
X117832201Y-68683621D01*
X117777293Y-68728621D01*
X117706768Y-68736792D01*
X117643021Y-68705538D01*
X117622324Y-68681054D01*
X117541822Y-68556617D01*
X117541820Y-68556614D01*
X117539014Y-68552277D01*
X117388670Y-68387051D01*
X117384619Y-68383852D01*
X117384615Y-68383848D01*
X117217414Y-68251800D01*
X117217410Y-68251798D01*
X117213359Y-68248598D01*
X117017789Y-68140638D01*
X117012920Y-68138914D01*
X117012916Y-68138912D01*
X116812087Y-68067795D01*
X116812083Y-68067794D01*
X116807212Y-68066069D01*
X116802119Y-68065162D01*
X116802116Y-68065161D01*
X116592373Y-68027800D01*
X116592367Y-68027799D01*
X116587284Y-68026894D01*
X116513452Y-68025992D01*
X116369081Y-68024228D01*
X116369079Y-68024228D01*
X116363911Y-68024165D01*
X116143091Y-68057955D01*
X115930756Y-68127357D01*
X115900912Y-68142893D01*
X115738040Y-68227679D01*
X115732607Y-68230507D01*
X115728474Y-68233610D01*
X115728471Y-68233612D01*
X115558100Y-68361530D01*
X115553965Y-68364635D01*
X115535605Y-68383848D01*
X115420052Y-68504767D01*
X115399629Y-68526138D01*
X115292201Y-68683621D01*
X115237293Y-68728621D01*
X115166768Y-68736792D01*
X115103021Y-68705538D01*
X115082324Y-68681054D01*
X115001822Y-68556617D01*
X115001820Y-68556614D01*
X114999014Y-68552277D01*
X114848670Y-68387051D01*
X114844619Y-68383852D01*
X114844615Y-68383848D01*
X114677414Y-68251800D01*
X114677410Y-68251798D01*
X114673359Y-68248598D01*
X114477789Y-68140638D01*
X114472920Y-68138914D01*
X114472916Y-68138912D01*
X114272087Y-68067795D01*
X114272083Y-68067794D01*
X114267212Y-68066069D01*
X114262119Y-68065162D01*
X114262116Y-68065161D01*
X114052373Y-68027800D01*
X114052367Y-68027799D01*
X114047284Y-68026894D01*
X113973452Y-68025992D01*
X113829081Y-68024228D01*
X113829079Y-68024228D01*
X113823911Y-68024165D01*
X113603091Y-68057955D01*
X113590532Y-68062060D01*
X113519568Y-68064210D01*
X113462294Y-68031389D01*
X112303952Y-66873047D01*
X112296412Y-66864761D01*
X112292300Y-66858282D01*
X112242648Y-66811656D01*
X112239807Y-66808902D01*
X112220070Y-66789165D01*
X112216873Y-66786685D01*
X112207851Y-66778980D01*
X112194422Y-66766369D01*
X112175621Y-66748714D01*
X112168675Y-66744895D01*
X112168672Y-66744893D01*
X112157866Y-66738952D01*
X112141347Y-66728101D01*
X112140883Y-66727741D01*
X112125341Y-66715686D01*
X112118072Y-66712541D01*
X112118068Y-66712538D01*
X112084763Y-66698126D01*
X112074113Y-66692909D01*
X112035360Y-66671605D01*
X112015737Y-66666567D01*
X111997034Y-66660163D01*
X111985720Y-66655267D01*
X111985719Y-66655267D01*
X111978445Y-66652119D01*
X111970622Y-66650880D01*
X111970612Y-66650877D01*
X111934776Y-66645201D01*
X111923156Y-66642795D01*
X111888011Y-66633772D01*
X111888010Y-66633772D01*
X111880330Y-66631800D01*
X111860076Y-66631800D01*
X111840365Y-66630249D01*
X111828186Y-66628320D01*
X111820357Y-66627080D01*
X111791086Y-66629847D01*
X111776339Y-66631241D01*
X111764481Y-66631800D01*
X74640167Y-66631800D01*
X74628984Y-66631273D01*
X74621491Y-66629598D01*
X74613565Y-66629847D01*
X74613564Y-66629847D01*
X74553414Y-66631738D01*
X74549455Y-66631800D01*
X74521544Y-66631800D01*
X74517610Y-66632297D01*
X74517609Y-66632297D01*
X74517544Y-66632305D01*
X74505707Y-66633238D01*
X74473890Y-66634238D01*
X74469429Y-66634378D01*
X74461510Y-66634627D01*
X74443854Y-66639756D01*
X74442058Y-66640278D01*
X74422706Y-66644286D01*
X74415635Y-66645180D01*
X74402603Y-66646826D01*
X74395234Y-66649743D01*
X74395232Y-66649744D01*
X74361497Y-66663100D01*
X74350269Y-66666945D01*
X74307807Y-66679282D01*
X74300984Y-66683317D01*
X74300982Y-66683318D01*
X74290372Y-66689593D01*
X74272624Y-66698288D01*
X74253783Y-66705748D01*
X74247367Y-66710410D01*
X74247366Y-66710410D01*
X74218013Y-66731736D01*
X74208093Y-66738252D01*
X74176865Y-66756720D01*
X74176862Y-66756722D01*
X74170038Y-66760758D01*
X74155717Y-66775079D01*
X74140684Y-66787919D01*
X74124293Y-66799828D01*
X74115617Y-66810316D01*
X74096102Y-66833905D01*
X74088112Y-66842684D01*
X73081447Y-67849348D01*
X73073161Y-67856888D01*
X73066682Y-67861000D01*
X73061257Y-67866777D01*
X73020057Y-67910651D01*
X73017302Y-67913493D01*
X72997565Y-67933230D01*
X72995085Y-67936427D01*
X72987382Y-67945447D01*
X72957114Y-67977679D01*
X72953295Y-67984625D01*
X72953293Y-67984628D01*
X72947352Y-67995434D01*
X72936501Y-68011953D01*
X72924086Y-68027959D01*
X72920941Y-68035228D01*
X72920938Y-68035232D01*
X72906526Y-68068537D01*
X72901309Y-68079187D01*
X72880005Y-68117940D01*
X72878034Y-68125615D01*
X72878034Y-68125616D01*
X72874967Y-68137562D01*
X72868563Y-68156266D01*
X72860519Y-68174855D01*
X72859280Y-68182678D01*
X72859277Y-68182688D01*
X72853601Y-68218524D01*
X72851195Y-68230144D01*
X72843096Y-68261690D01*
X72840200Y-68272970D01*
X72840200Y-68293224D01*
X72838649Y-68312934D01*
X72835480Y-68332943D01*
X61468500Y-68332943D01*
X61468500Y-59190695D01*
X73186251Y-59190695D01*
X73186548Y-59195848D01*
X73186548Y-59195851D01*
X73192011Y-59290590D01*
X73199110Y-59413715D01*
X73200247Y-59418761D01*
X73200248Y-59418767D01*
X73220119Y-59506939D01*
X73248222Y-59631639D01*
X73332266Y-59838616D01*
X73383019Y-59921438D01*
X73446291Y-60024688D01*
X73448987Y-60029088D01*
X73595250Y-60197938D01*
X73767126Y-60340632D01*
X73960000Y-60453338D01*
X74168692Y-60533030D01*
X74173760Y-60534061D01*
X74173763Y-60534062D01*
X74281012Y-60555882D01*
X74387597Y-60577567D01*
X74392772Y-60577757D01*
X74392774Y-60577757D01*
X74605673Y-60585564D01*
X74605677Y-60585564D01*
X74610837Y-60585753D01*
X74615957Y-60585097D01*
X74615959Y-60585097D01*
X74827288Y-60558025D01*
X74827289Y-60558025D01*
X74832416Y-60557368D01*
X74878827Y-60543444D01*
X75041429Y-60494661D01*
X75041434Y-60494659D01*
X75046384Y-60493174D01*
X75246994Y-60394896D01*
X75399693Y-60285977D01*
X75466767Y-60262703D01*
X75535776Y-60279387D01*
X75561957Y-60299461D01*
X76096543Y-60834047D01*
X76104087Y-60842337D01*
X76108200Y-60848818D01*
X76113977Y-60854243D01*
X76157867Y-60895458D01*
X76160709Y-60898213D01*
X76180431Y-60917935D01*
X76183555Y-60920358D01*
X76183559Y-60920362D01*
X76183624Y-60920412D01*
X76192645Y-60928117D01*
X76224879Y-60958386D01*
X76231827Y-60962205D01*
X76231829Y-60962207D01*
X76242632Y-60968146D01*
X76259159Y-60979002D01*
X76268898Y-60986557D01*
X76268900Y-60986558D01*
X76275160Y-60991414D01*
X76315740Y-61008974D01*
X76326388Y-61014191D01*
X76356833Y-61030928D01*
X76365140Y-61035495D01*
X76372816Y-61037466D01*
X76372819Y-61037467D01*
X76384762Y-61040533D01*
X76403467Y-61046937D01*
X76422055Y-61054981D01*
X76429878Y-61056220D01*
X76429888Y-61056223D01*
X76465724Y-61061899D01*
X76477344Y-61064305D01*
X76509159Y-61072473D01*
X76520170Y-61075300D01*
X76540424Y-61075300D01*
X76560134Y-61076851D01*
X76580143Y-61080020D01*
X76588035Y-61079274D01*
X76606780Y-61077502D01*
X76624162Y-61075859D01*
X76636019Y-61075300D01*
X78332433Y-61075300D01*
X78343616Y-61075827D01*
X78351109Y-61077502D01*
X78359035Y-61077253D01*
X78359036Y-61077253D01*
X78419186Y-61075362D01*
X78423145Y-61075300D01*
X78451056Y-61075300D01*
X78454991Y-61074803D01*
X78455056Y-61074795D01*
X78466893Y-61073862D01*
X78499151Y-61072848D01*
X78503170Y-61072722D01*
X78511089Y-61072473D01*
X78530543Y-61066821D01*
X78549900Y-61062813D01*
X78562130Y-61061268D01*
X78562131Y-61061268D01*
X78569997Y-61060274D01*
X78577368Y-61057355D01*
X78577370Y-61057355D01*
X78611112Y-61043996D01*
X78622342Y-61040151D01*
X78657183Y-61030029D01*
X78657184Y-61030029D01*
X78664793Y-61027818D01*
X78671612Y-61023785D01*
X78671617Y-61023783D01*
X78682228Y-61017507D01*
X78699976Y-61008812D01*
X78718817Y-61001352D01*
X78737706Y-60987629D01*
X78754587Y-60975364D01*
X78764507Y-60968848D01*
X78795735Y-60950380D01*
X78795738Y-60950378D01*
X78802562Y-60946342D01*
X78816883Y-60932021D01*
X78831917Y-60919180D01*
X78836313Y-60915986D01*
X78848307Y-60907272D01*
X78876498Y-60873195D01*
X78884488Y-60864416D01*
X79173549Y-60575355D01*
X79235861Y-60541329D01*
X79287762Y-60540979D01*
X79467597Y-60577567D01*
X79472772Y-60577757D01*
X79472774Y-60577757D01*
X79685673Y-60585564D01*
X79685677Y-60585564D01*
X79690837Y-60585753D01*
X79695957Y-60585097D01*
X79695959Y-60585097D01*
X79907288Y-60558025D01*
X79907289Y-60558025D01*
X79912416Y-60557368D01*
X79958827Y-60543444D01*
X80121429Y-60494661D01*
X80121434Y-60494659D01*
X80126384Y-60493174D01*
X80326994Y-60394896D01*
X80508860Y-60265173D01*
X80667096Y-60107489D01*
X80726594Y-60024689D01*
X80797453Y-59926077D01*
X80798776Y-59927028D01*
X80845645Y-59883857D01*
X80915580Y-59871625D01*
X80981026Y-59899144D01*
X81008875Y-59930994D01*
X81068987Y-60029088D01*
X81215250Y-60197938D01*
X81387126Y-60340632D01*
X81580000Y-60453338D01*
X81788692Y-60533030D01*
X81793760Y-60534061D01*
X81793763Y-60534062D01*
X81901012Y-60555882D01*
X82007597Y-60577567D01*
X82012772Y-60577757D01*
X82012774Y-60577757D01*
X82225673Y-60585564D01*
X82225677Y-60585564D01*
X82230837Y-60585753D01*
X82235957Y-60585097D01*
X82235959Y-60585097D01*
X82447288Y-60558025D01*
X82447289Y-60558025D01*
X82452416Y-60557368D01*
X82498827Y-60543444D01*
X82661429Y-60494661D01*
X82661434Y-60494659D01*
X82666384Y-60493174D01*
X82866994Y-60394896D01*
X83048860Y-60265173D01*
X83207096Y-60107489D01*
X83266594Y-60024689D01*
X83337453Y-59926077D01*
X83338776Y-59927028D01*
X83385645Y-59883857D01*
X83455580Y-59871625D01*
X83521026Y-59899144D01*
X83548875Y-59930994D01*
X83608987Y-60029088D01*
X83755250Y-60197938D01*
X83927126Y-60340632D01*
X84120000Y-60453338D01*
X84328692Y-60533030D01*
X84333760Y-60534061D01*
X84333763Y-60534062D01*
X84441012Y-60555882D01*
X84547597Y-60577567D01*
X84552772Y-60577757D01*
X84552774Y-60577757D01*
X84765673Y-60585564D01*
X84765677Y-60585564D01*
X84770837Y-60585753D01*
X84775957Y-60585097D01*
X84775959Y-60585097D01*
X84987288Y-60558025D01*
X84987289Y-60558025D01*
X84992416Y-60557368D01*
X85038827Y-60543444D01*
X85201429Y-60494661D01*
X85201434Y-60494659D01*
X85206384Y-60493174D01*
X85406994Y-60394896D01*
X85588860Y-60265173D01*
X85747096Y-60107489D01*
X85806594Y-60024689D01*
X85877453Y-59926077D01*
X85878776Y-59927028D01*
X85925645Y-59883857D01*
X85995580Y-59871625D01*
X86061026Y-59899144D01*
X86088875Y-59930994D01*
X86148987Y-60029088D01*
X86295250Y-60197938D01*
X86467126Y-60340632D01*
X86660000Y-60453338D01*
X86868692Y-60533030D01*
X86873760Y-60534061D01*
X86873763Y-60534062D01*
X86981012Y-60555882D01*
X87087597Y-60577567D01*
X87092772Y-60577757D01*
X87092774Y-60577757D01*
X87305673Y-60585564D01*
X87305677Y-60585564D01*
X87310837Y-60585753D01*
X87315957Y-60585097D01*
X87315959Y-60585097D01*
X87527288Y-60558025D01*
X87527289Y-60558025D01*
X87532416Y-60557368D01*
X87537367Y-60555883D01*
X87537370Y-60555882D01*
X87578829Y-60543444D01*
X87649825Y-60543028D01*
X87704131Y-60575035D01*
X87920743Y-60791647D01*
X87928287Y-60799937D01*
X87932400Y-60806418D01*
X87938177Y-60811843D01*
X87982067Y-60853058D01*
X87984909Y-60855813D01*
X88004631Y-60875535D01*
X88007755Y-60877958D01*
X88007759Y-60877962D01*
X88007824Y-60878012D01*
X88016845Y-60885717D01*
X88049079Y-60915986D01*
X88056027Y-60919805D01*
X88056029Y-60919807D01*
X88066832Y-60925746D01*
X88083359Y-60936602D01*
X88093098Y-60944157D01*
X88093100Y-60944158D01*
X88099360Y-60949014D01*
X88139940Y-60966574D01*
X88150588Y-60971791D01*
X88175376Y-60985418D01*
X88189340Y-60993095D01*
X88197016Y-60995066D01*
X88197019Y-60995067D01*
X88208962Y-60998133D01*
X88227667Y-61004537D01*
X88246255Y-61012581D01*
X88254078Y-61013820D01*
X88254088Y-61013823D01*
X88289924Y-61019499D01*
X88301544Y-61021905D01*
X88333359Y-61030073D01*
X88344370Y-61032900D01*
X88364624Y-61032900D01*
X88384334Y-61034451D01*
X88404343Y-61037620D01*
X88412235Y-61036874D01*
X88430980Y-61035102D01*
X88448362Y-61033459D01*
X88460219Y-61032900D01*
X122824833Y-61032900D01*
X122836016Y-61033427D01*
X122843509Y-61035102D01*
X122851435Y-61034853D01*
X122851436Y-61034853D01*
X122911586Y-61032962D01*
X122915545Y-61032900D01*
X122943456Y-61032900D01*
X122947391Y-61032403D01*
X122947456Y-61032395D01*
X122959293Y-61031462D01*
X122991551Y-61030448D01*
X122995570Y-61030322D01*
X123003489Y-61030073D01*
X123022943Y-61024421D01*
X123042300Y-61020413D01*
X123054530Y-61018868D01*
X123054531Y-61018868D01*
X123062397Y-61017874D01*
X123069768Y-61014955D01*
X123069770Y-61014955D01*
X123103512Y-61001596D01*
X123114742Y-60997751D01*
X123149583Y-60987629D01*
X123149584Y-60987629D01*
X123157193Y-60985418D01*
X123164012Y-60981385D01*
X123164017Y-60981383D01*
X123174628Y-60975107D01*
X123192376Y-60966412D01*
X123211217Y-60958952D01*
X123228574Y-60946342D01*
X123246987Y-60932964D01*
X123256907Y-60926448D01*
X123288135Y-60907980D01*
X123288138Y-60907978D01*
X123294962Y-60903942D01*
X123309283Y-60889621D01*
X123324317Y-60876780D01*
X123329251Y-60873195D01*
X123340707Y-60864872D01*
X123368898Y-60830795D01*
X123376888Y-60822016D01*
X123623549Y-60575355D01*
X123685861Y-60541329D01*
X123737762Y-60540979D01*
X123917597Y-60577567D01*
X123922772Y-60577757D01*
X123922774Y-60577757D01*
X124135673Y-60585564D01*
X124135677Y-60585564D01*
X124140837Y-60585753D01*
X124145957Y-60585097D01*
X124145959Y-60585097D01*
X124357288Y-60558025D01*
X124357289Y-60558025D01*
X124362416Y-60557368D01*
X124408827Y-60543444D01*
X124571429Y-60494661D01*
X124571434Y-60494659D01*
X124576384Y-60493174D01*
X124776994Y-60394896D01*
X124958860Y-60265173D01*
X125117096Y-60107489D01*
X125176594Y-60024689D01*
X125247453Y-59926077D01*
X125248776Y-59927028D01*
X125295645Y-59883857D01*
X125365580Y-59871625D01*
X125431026Y-59899144D01*
X125458875Y-59930994D01*
X125518987Y-60029088D01*
X125665250Y-60197938D01*
X125837126Y-60340632D01*
X126030000Y-60453338D01*
X126238692Y-60533030D01*
X126243760Y-60534061D01*
X126243763Y-60534062D01*
X126351012Y-60555882D01*
X126457597Y-60577567D01*
X126462772Y-60577757D01*
X126462774Y-60577757D01*
X126675673Y-60585564D01*
X126675677Y-60585564D01*
X126680837Y-60585753D01*
X126685957Y-60585097D01*
X126685959Y-60585097D01*
X126897288Y-60558025D01*
X126897289Y-60558025D01*
X126902416Y-60557368D01*
X126948827Y-60543444D01*
X127111429Y-60494661D01*
X127111434Y-60494659D01*
X127116384Y-60493174D01*
X127316994Y-60394896D01*
X127498860Y-60265173D01*
X127657096Y-60107489D01*
X127716594Y-60024689D01*
X127784435Y-59930277D01*
X127787453Y-59926077D01*
X127808320Y-59883857D01*
X127884136Y-59730453D01*
X127884137Y-59730451D01*
X127886430Y-59725811D01*
X127951370Y-59512069D01*
X127980529Y-59290590D01*
X127982156Y-59224000D01*
X127963852Y-59001361D01*
X127909431Y-58784702D01*
X127820354Y-58579840D01*
X127699014Y-58392277D01*
X127548670Y-58227051D01*
X127544619Y-58223852D01*
X127544615Y-58223848D01*
X127377414Y-58091800D01*
X127377410Y-58091798D01*
X127373359Y-58088598D01*
X127177789Y-57980638D01*
X127172920Y-57978914D01*
X127172916Y-57978912D01*
X126972087Y-57907795D01*
X126972083Y-57907794D01*
X126967212Y-57906069D01*
X126962119Y-57905162D01*
X126962116Y-57905161D01*
X126752373Y-57867800D01*
X126752367Y-57867799D01*
X126747284Y-57866894D01*
X126673452Y-57865992D01*
X126529081Y-57864228D01*
X126529079Y-57864228D01*
X126523911Y-57864165D01*
X126303091Y-57897955D01*
X126090756Y-57967357D01*
X125892607Y-58070507D01*
X125888474Y-58073610D01*
X125888471Y-58073612D01*
X125747716Y-58179294D01*
X125713965Y-58204635D01*
X125559629Y-58366138D01*
X125452201Y-58523621D01*
X125397293Y-58568621D01*
X125326768Y-58576792D01*
X125263021Y-58545538D01*
X125242324Y-58521054D01*
X125161822Y-58396617D01*
X125161820Y-58396614D01*
X125159014Y-58392277D01*
X125008670Y-58227051D01*
X125004619Y-58223852D01*
X125004615Y-58223848D01*
X124837414Y-58091800D01*
X124837410Y-58091798D01*
X124833359Y-58088598D01*
X124637789Y-57980638D01*
X124632920Y-57978914D01*
X124632916Y-57978912D01*
X124432087Y-57907795D01*
X124432083Y-57907794D01*
X124427212Y-57906069D01*
X124422119Y-57905162D01*
X124422116Y-57905161D01*
X124212373Y-57867800D01*
X124212367Y-57867799D01*
X124207284Y-57866894D01*
X124133452Y-57865992D01*
X123989081Y-57864228D01*
X123989079Y-57864228D01*
X123983911Y-57864165D01*
X123763091Y-57897955D01*
X123550756Y-57967357D01*
X123352607Y-58070507D01*
X123348474Y-58073610D01*
X123348471Y-58073612D01*
X123207716Y-58179294D01*
X123173965Y-58204635D01*
X123019629Y-58366138D01*
X122912201Y-58523621D01*
X122857293Y-58568621D01*
X122786768Y-58576792D01*
X122723021Y-58545538D01*
X122702324Y-58521054D01*
X122621822Y-58396617D01*
X122621820Y-58396614D01*
X122619014Y-58392277D01*
X122468670Y-58227051D01*
X122464619Y-58223852D01*
X122464615Y-58223848D01*
X122297414Y-58091800D01*
X122297410Y-58091798D01*
X122293359Y-58088598D01*
X122097789Y-57980638D01*
X122092920Y-57978914D01*
X122092916Y-57978912D01*
X121892087Y-57907795D01*
X121892083Y-57907794D01*
X121887212Y-57906069D01*
X121882119Y-57905162D01*
X121882116Y-57905161D01*
X121672373Y-57867800D01*
X121672367Y-57867799D01*
X121667284Y-57866894D01*
X121593452Y-57865992D01*
X121449081Y-57864228D01*
X121449079Y-57864228D01*
X121443911Y-57864165D01*
X121223091Y-57897955D01*
X121010756Y-57967357D01*
X120812607Y-58070507D01*
X120808474Y-58073610D01*
X120808471Y-58073612D01*
X120667716Y-58179294D01*
X120633965Y-58204635D01*
X120479629Y-58366138D01*
X120372201Y-58523621D01*
X120317293Y-58568621D01*
X120246768Y-58576792D01*
X120183021Y-58545538D01*
X120162324Y-58521054D01*
X120081822Y-58396617D01*
X120081820Y-58396614D01*
X120079014Y-58392277D01*
X119928670Y-58227051D01*
X119924619Y-58223852D01*
X119924615Y-58223848D01*
X119757414Y-58091800D01*
X119757410Y-58091798D01*
X119753359Y-58088598D01*
X119557789Y-57980638D01*
X119552920Y-57978914D01*
X119552916Y-57978912D01*
X119352087Y-57907795D01*
X119352083Y-57907794D01*
X119347212Y-57906069D01*
X119342119Y-57905162D01*
X119342116Y-57905161D01*
X119132373Y-57867800D01*
X119132367Y-57867799D01*
X119127284Y-57866894D01*
X119053452Y-57865992D01*
X118909081Y-57864228D01*
X118909079Y-57864228D01*
X118903911Y-57864165D01*
X118683091Y-57897955D01*
X118470756Y-57967357D01*
X118272607Y-58070507D01*
X118268474Y-58073610D01*
X118268471Y-58073612D01*
X118127716Y-58179294D01*
X118093965Y-58204635D01*
X117939629Y-58366138D01*
X117832201Y-58523621D01*
X117777293Y-58568621D01*
X117706768Y-58576792D01*
X117643021Y-58545538D01*
X117622324Y-58521054D01*
X117541822Y-58396617D01*
X117541820Y-58396614D01*
X117539014Y-58392277D01*
X117388670Y-58227051D01*
X117384619Y-58223852D01*
X117384615Y-58223848D01*
X117217414Y-58091800D01*
X117217410Y-58091798D01*
X117213359Y-58088598D01*
X117017789Y-57980638D01*
X117012920Y-57978914D01*
X117012916Y-57978912D01*
X116812087Y-57907795D01*
X116812083Y-57907794D01*
X116807212Y-57906069D01*
X116802119Y-57905162D01*
X116802116Y-57905161D01*
X116592373Y-57867800D01*
X116592367Y-57867799D01*
X116587284Y-57866894D01*
X116513452Y-57865992D01*
X116369081Y-57864228D01*
X116369079Y-57864228D01*
X116363911Y-57864165D01*
X116143091Y-57897955D01*
X116130532Y-57902060D01*
X116059568Y-57904210D01*
X116002294Y-57871389D01*
X115334152Y-57203247D01*
X115326612Y-57194961D01*
X115322500Y-57188482D01*
X115272848Y-57141856D01*
X115270007Y-57139102D01*
X115250270Y-57119365D01*
X115247073Y-57116885D01*
X115238051Y-57109180D01*
X115222850Y-57094905D01*
X115205821Y-57078914D01*
X115198875Y-57075095D01*
X115198872Y-57075093D01*
X115188066Y-57069152D01*
X115171547Y-57058301D01*
X115163351Y-57051944D01*
X115155541Y-57045886D01*
X115148272Y-57042741D01*
X115148268Y-57042738D01*
X115114963Y-57028326D01*
X115104313Y-57023109D01*
X115065560Y-57001805D01*
X115045937Y-56996767D01*
X115027234Y-56990363D01*
X115015920Y-56985467D01*
X115015919Y-56985467D01*
X115008645Y-56982319D01*
X115000822Y-56981080D01*
X115000812Y-56981077D01*
X114964976Y-56975401D01*
X114953356Y-56972995D01*
X114918211Y-56963972D01*
X114918210Y-56963972D01*
X114910530Y-56962000D01*
X114890276Y-56962000D01*
X114870565Y-56960449D01*
X114858386Y-56958520D01*
X114850557Y-56957280D01*
X114816187Y-56960529D01*
X114806539Y-56961441D01*
X114794681Y-56962000D01*
X77134067Y-56962000D01*
X77122884Y-56961473D01*
X77115391Y-56959798D01*
X77107465Y-56960047D01*
X77107464Y-56960047D01*
X77047314Y-56961938D01*
X77043355Y-56962000D01*
X77015444Y-56962000D01*
X77011510Y-56962497D01*
X77011509Y-56962497D01*
X77011444Y-56962505D01*
X76999607Y-56963438D01*
X76967790Y-56964438D01*
X76963329Y-56964578D01*
X76955410Y-56964827D01*
X76937754Y-56969956D01*
X76935958Y-56970478D01*
X76916606Y-56974486D01*
X76909535Y-56975380D01*
X76896503Y-56977026D01*
X76889134Y-56979943D01*
X76889132Y-56979944D01*
X76855397Y-56993300D01*
X76844169Y-56997145D01*
X76801707Y-57009482D01*
X76794885Y-57013516D01*
X76794879Y-57013519D01*
X76784268Y-57019794D01*
X76766518Y-57028490D01*
X76755056Y-57033028D01*
X76755051Y-57033031D01*
X76747683Y-57035948D01*
X76730270Y-57048599D01*
X76711925Y-57061927D01*
X76702007Y-57068443D01*
X76690763Y-57075093D01*
X76663937Y-57090958D01*
X76649613Y-57105282D01*
X76634581Y-57118121D01*
X76618193Y-57130028D01*
X76604074Y-57147095D01*
X76590012Y-57164093D01*
X76582022Y-57172873D01*
X75585387Y-58169508D01*
X75523075Y-58203534D01*
X75452260Y-58198469D01*
X75418199Y-58179294D01*
X75307415Y-58091801D01*
X75307413Y-58091800D01*
X75303359Y-58088598D01*
X75107789Y-57980638D01*
X75102920Y-57978914D01*
X75102916Y-57978912D01*
X74902087Y-57907795D01*
X74902083Y-57907794D01*
X74897212Y-57906069D01*
X74892119Y-57905162D01*
X74892116Y-57905161D01*
X74682373Y-57867800D01*
X74682367Y-57867799D01*
X74677284Y-57866894D01*
X74603452Y-57865992D01*
X74459081Y-57864228D01*
X74459079Y-57864228D01*
X74453911Y-57864165D01*
X74233091Y-57897955D01*
X74020756Y-57967357D01*
X73822607Y-58070507D01*
X73818474Y-58073610D01*
X73818471Y-58073612D01*
X73677716Y-58179294D01*
X73643965Y-58204635D01*
X73489629Y-58366138D01*
X73363743Y-58550680D01*
X73348003Y-58584590D01*
X73302800Y-58681972D01*
X73269688Y-58753305D01*
X73209989Y-58968570D01*
X73186251Y-59190695D01*
X61468500Y-59190695D01*
X61468500Y-49572277D01*
X62907009Y-49572277D01*
X62932625Y-49840769D01*
X62933710Y-49845203D01*
X62933711Y-49845209D01*
X62978668Y-50028931D01*
X62996731Y-50102750D01*
X63097985Y-50352733D01*
X63234265Y-50585482D01*
X63237118Y-50589049D01*
X63354686Y-50736060D01*
X63402716Y-50796119D01*
X63599809Y-50980234D01*
X63821416Y-51133968D01*
X63825499Y-51135999D01*
X63825502Y-51136001D01*
X63941013Y-51193466D01*
X64062894Y-51254101D01*
X64067228Y-51255522D01*
X64067231Y-51255523D01*
X64314853Y-51336698D01*
X64314859Y-51336699D01*
X64319186Y-51338118D01*
X64323677Y-51338898D01*
X64323678Y-51338898D01*
X64581140Y-51383601D01*
X64581148Y-51383602D01*
X64584921Y-51384257D01*
X64588758Y-51384448D01*
X64668578Y-51388422D01*
X64668586Y-51388422D01*
X64670149Y-51388500D01*
X64838512Y-51388500D01*
X64840780Y-51388335D01*
X64840792Y-51388335D01*
X64971884Y-51378823D01*
X65039004Y-51373953D01*
X65043459Y-51372969D01*
X65043462Y-51372969D01*
X65297912Y-51316791D01*
X65297916Y-51316790D01*
X65302372Y-51315806D01*
X65428480Y-51268028D01*
X65550318Y-51221868D01*
X65550321Y-51221867D01*
X65554588Y-51220250D01*
X65790368Y-51089286D01*
X66004773Y-50925657D01*
X66193312Y-50732792D01*
X66352034Y-50514730D01*
X66435570Y-50355954D01*
X66475490Y-50280079D01*
X66475493Y-50280073D01*
X66477615Y-50276039D01*
X66491346Y-50237158D01*
X66565902Y-50026033D01*
X66565902Y-50026032D01*
X66567425Y-50021720D01*
X66600027Y-49856311D01*
X66618700Y-49761572D01*
X66618701Y-49761566D01*
X66619581Y-49757100D01*
X66621841Y-49711703D01*
X66632764Y-49492292D01*
X66632764Y-49492286D01*
X66632991Y-49487723D01*
X66607375Y-49219231D01*
X66580007Y-49107384D01*
X66544355Y-48961688D01*
X66543269Y-48957250D01*
X66442015Y-48707267D01*
X66305735Y-48474518D01*
X66187434Y-48326590D01*
X66140136Y-48267447D01*
X66140135Y-48267445D01*
X66137284Y-48263881D01*
X65940191Y-48079766D01*
X65816823Y-47994183D01*
X110424389Y-47994183D01*
X110425912Y-48002607D01*
X110438292Y-48006000D01*
X111487885Y-48006000D01*
X111503124Y-48001525D01*
X111504329Y-48000135D01*
X111506000Y-47992452D01*
X111506000Y-46943102D01*
X111502082Y-46929758D01*
X111487806Y-46927771D01*
X111449324Y-46933660D01*
X111439288Y-46936051D01*
X111236868Y-47002212D01*
X111227359Y-47006209D01*
X111038463Y-47104542D01*
X111029738Y-47110036D01*
X110859433Y-47237905D01*
X110851726Y-47244748D01*
X110704590Y-47398717D01*
X110698104Y-47406727D01*
X110578098Y-47582649D01*
X110573000Y-47591623D01*
X110483338Y-47784783D01*
X110479775Y-47794470D01*
X110424389Y-47994183D01*
X65816823Y-47994183D01*
X65718584Y-47926032D01*
X65714501Y-47924001D01*
X65714498Y-47923999D01*
X65549606Y-47841967D01*
X65477106Y-47805899D01*
X65472772Y-47804478D01*
X65472769Y-47804477D01*
X65225147Y-47723302D01*
X65225141Y-47723301D01*
X65220814Y-47721882D01*
X65216322Y-47721102D01*
X64958860Y-47676399D01*
X64958852Y-47676398D01*
X64955079Y-47675743D01*
X64943817Y-47675182D01*
X64871422Y-47671578D01*
X64871414Y-47671578D01*
X64869851Y-47671500D01*
X64701488Y-47671500D01*
X64699220Y-47671665D01*
X64699208Y-47671665D01*
X64568116Y-47681177D01*
X64500996Y-47686047D01*
X64496541Y-47687031D01*
X64496538Y-47687031D01*
X64242088Y-47743209D01*
X64242084Y-47743210D01*
X64237628Y-47744194D01*
X64209093Y-47755005D01*
X63989682Y-47838132D01*
X63989679Y-47838133D01*
X63985412Y-47839750D01*
X63749632Y-47970714D01*
X63535227Y-48134343D01*
X63346688Y-48327208D01*
X63187966Y-48545270D01*
X63183887Y-48553023D01*
X63064510Y-48779921D01*
X63064507Y-48779927D01*
X63062385Y-48783961D01*
X63060865Y-48788266D01*
X63060863Y-48788270D01*
X62999485Y-48962077D01*
X62972575Y-49038280D01*
X62966522Y-49068990D01*
X62921478Y-49297529D01*
X62920419Y-49302900D01*
X62920192Y-49307453D01*
X62920192Y-49307456D01*
X62907788Y-49556638D01*
X62907009Y-49572277D01*
X61468500Y-49572277D01*
X61468500Y-46408250D01*
X61470246Y-46387345D01*
X61472770Y-46372344D01*
X61472770Y-46372341D01*
X61473576Y-46367552D01*
X61473704Y-46357029D01*
X61494533Y-46289157D01*
X61548750Y-46243320D01*
X61588906Y-46235094D01*
X61588723Y-46233691D01*
X61588724Y-46233691D01*
X61620286Y-46229564D01*
X61636621Y-46228500D01*
X136143406Y-46228500D01*
X136211527Y-46248502D01*
G37*
G04 #@! TD.AperFunction*
G04 #@! TA.AperFunction,Conductor*
G36*
X144976121Y-48026002D02*
G01*
X145022614Y-48079658D01*
X145034000Y-48132000D01*
X145034000Y-52118517D01*
X145038064Y-52132359D01*
X145051478Y-52134393D01*
X145058184Y-52133534D01*
X145068262Y-52131392D01*
X145254292Y-52075580D01*
X145325288Y-52075164D01*
X145385238Y-52113196D01*
X145415110Y-52177602D01*
X145416500Y-52196266D01*
X145416500Y-53427233D01*
X145415973Y-53438416D01*
X145414298Y-53445909D01*
X145414547Y-53453835D01*
X145414547Y-53453836D01*
X145416438Y-53513986D01*
X145416500Y-53517945D01*
X145416500Y-53545856D01*
X145416997Y-53549790D01*
X145416997Y-53549791D01*
X145417005Y-53549856D01*
X145417938Y-53561693D01*
X145419327Y-53605889D01*
X145424978Y-53625339D01*
X145428987Y-53644700D01*
X145431526Y-53664797D01*
X145434445Y-53672168D01*
X145434445Y-53672170D01*
X145447804Y-53705912D01*
X145451649Y-53717142D01*
X145463982Y-53759593D01*
X145468015Y-53766412D01*
X145468017Y-53766417D01*
X145474293Y-53777028D01*
X145482988Y-53794776D01*
X145490448Y-53813617D01*
X145495110Y-53820033D01*
X145495110Y-53820034D01*
X145516436Y-53849387D01*
X145522952Y-53859307D01*
X145545458Y-53897362D01*
X145559779Y-53911683D01*
X145572619Y-53926716D01*
X145584528Y-53943107D01*
X145590634Y-53948158D01*
X145618605Y-53971298D01*
X145627384Y-53979288D01*
X151984895Y-60336800D01*
X152018921Y-60399112D01*
X152021800Y-60425895D01*
X152021800Y-81797912D01*
X152001798Y-81866033D01*
X151948142Y-81912526D01*
X151877868Y-81922630D01*
X151863189Y-81919619D01*
X151763402Y-81892881D01*
X151763400Y-81892881D01*
X151758087Y-81891457D01*
X151658520Y-81882746D01*
X151589851Y-81876738D01*
X151589844Y-81876738D01*
X151587127Y-81876500D01*
X150672873Y-81876500D01*
X150670156Y-81876738D01*
X150670149Y-81876738D01*
X150601480Y-81882746D01*
X150501913Y-81891457D01*
X150496600Y-81892881D01*
X150496598Y-81892881D01*
X150286067Y-81949293D01*
X150286065Y-81949294D01*
X150280757Y-81950716D01*
X150275776Y-81953039D01*
X150275775Y-81953039D01*
X150078238Y-82045151D01*
X150078233Y-82045154D01*
X150073251Y-82047477D01*
X150011834Y-82090482D01*
X149890211Y-82175643D01*
X149890208Y-82175645D01*
X149885700Y-82178802D01*
X149723802Y-82340700D01*
X149720645Y-82345208D01*
X149720643Y-82345211D01*
X149699060Y-82376035D01*
X149592477Y-82528251D01*
X149590154Y-82533233D01*
X149590151Y-82533238D01*
X149498039Y-82730775D01*
X149495716Y-82735757D01*
X149494294Y-82741065D01*
X149494293Y-82741067D01*
X149490397Y-82755606D01*
X149436457Y-82956913D01*
X149416502Y-83185000D01*
X149436457Y-83413087D01*
X149437881Y-83418400D01*
X149437881Y-83418402D01*
X149475548Y-83558974D01*
X149495716Y-83634243D01*
X149498039Y-83639224D01*
X149498039Y-83639225D01*
X149590151Y-83836762D01*
X149590154Y-83836767D01*
X149592477Y-83841749D01*
X149723802Y-84029300D01*
X149885700Y-84191198D01*
X149890208Y-84194355D01*
X149890211Y-84194357D01*
X149931542Y-84223297D01*
X150073251Y-84322523D01*
X150078233Y-84324846D01*
X150078238Y-84324849D01*
X150112457Y-84340805D01*
X150165742Y-84387722D01*
X150185203Y-84455999D01*
X150164661Y-84523959D01*
X150112457Y-84569195D01*
X150078238Y-84585151D01*
X150078233Y-84585154D01*
X150073251Y-84587477D01*
X149968389Y-84660902D01*
X149890211Y-84715643D01*
X149890208Y-84715645D01*
X149885700Y-84718802D01*
X149779146Y-84825356D01*
X149716838Y-84859379D01*
X149646022Y-84854315D01*
X149600959Y-84825354D01*
X132750405Y-67974800D01*
X132716379Y-67912488D01*
X132713500Y-67885705D01*
X132713500Y-57217524D01*
X132733502Y-57149403D01*
X132745858Y-57133221D01*
X132819040Y-57051944D01*
X132914527Y-56886556D01*
X132973542Y-56704928D01*
X132993504Y-56515000D01*
X132973542Y-56325072D01*
X132914527Y-56143444D01*
X132870681Y-56067500D01*
X132853943Y-55998504D01*
X132877164Y-55931413D01*
X132932971Y-55887526D01*
X132979800Y-55878500D01*
X137162906Y-55878500D01*
X137231027Y-55898502D01*
X137252001Y-55915405D01*
X138394595Y-57058000D01*
X138428621Y-57120312D01*
X138431500Y-57147095D01*
X138431500Y-70406233D01*
X138430973Y-70417416D01*
X138429298Y-70424909D01*
X138429547Y-70432835D01*
X138429547Y-70432836D01*
X138431438Y-70492986D01*
X138431500Y-70496945D01*
X138431500Y-70524856D01*
X138431997Y-70528790D01*
X138431997Y-70528791D01*
X138432005Y-70528856D01*
X138432938Y-70540693D01*
X138434327Y-70584889D01*
X138439978Y-70604339D01*
X138443987Y-70623700D01*
X138444735Y-70629617D01*
X138446526Y-70643797D01*
X138449445Y-70651168D01*
X138449445Y-70651170D01*
X138462804Y-70684912D01*
X138466649Y-70696142D01*
X138474309Y-70722507D01*
X138478982Y-70738593D01*
X138483015Y-70745412D01*
X138483017Y-70745417D01*
X138489293Y-70756028D01*
X138497988Y-70773776D01*
X138505448Y-70792617D01*
X138510110Y-70799033D01*
X138510110Y-70799034D01*
X138531436Y-70828387D01*
X138537952Y-70838307D01*
X138560458Y-70876362D01*
X138574779Y-70890683D01*
X138587619Y-70905716D01*
X138599528Y-70922107D01*
X138629262Y-70946705D01*
X138633605Y-70950298D01*
X138642384Y-70958288D01*
X142371343Y-74687247D01*
X142378887Y-74695537D01*
X142383000Y-74702018D01*
X142388777Y-74707443D01*
X142432667Y-74748658D01*
X142435509Y-74751413D01*
X142455231Y-74771135D01*
X142458355Y-74773558D01*
X142458359Y-74773562D01*
X142458424Y-74773612D01*
X142467445Y-74781317D01*
X142499679Y-74811586D01*
X142506627Y-74815405D01*
X142506629Y-74815407D01*
X142517432Y-74821346D01*
X142533959Y-74832202D01*
X142543698Y-74839757D01*
X142543700Y-74839758D01*
X142549960Y-74844614D01*
X142590540Y-74862174D01*
X142601188Y-74867391D01*
X142625976Y-74881018D01*
X142639940Y-74888695D01*
X142647616Y-74890666D01*
X142647619Y-74890667D01*
X142659562Y-74893733D01*
X142678267Y-74900137D01*
X142696855Y-74908181D01*
X142704678Y-74909420D01*
X142704688Y-74909423D01*
X142740524Y-74915099D01*
X142752144Y-74917505D01*
X142783959Y-74925673D01*
X142794970Y-74928500D01*
X142815224Y-74928500D01*
X142834934Y-74930051D01*
X142854943Y-74933220D01*
X142862835Y-74932474D01*
X142881580Y-74930702D01*
X142898962Y-74929059D01*
X142910819Y-74928500D01*
X148511233Y-74928500D01*
X148522416Y-74929027D01*
X148529909Y-74930702D01*
X148537835Y-74930453D01*
X148537836Y-74930453D01*
X148597986Y-74928562D01*
X148601945Y-74928500D01*
X148629856Y-74928500D01*
X148633791Y-74928003D01*
X148633856Y-74927995D01*
X148645693Y-74927062D01*
X148677951Y-74926048D01*
X148681970Y-74925922D01*
X148689889Y-74925673D01*
X148709343Y-74920021D01*
X148728700Y-74916013D01*
X148740930Y-74914468D01*
X148740931Y-74914468D01*
X148748797Y-74913474D01*
X148756168Y-74910555D01*
X148756170Y-74910555D01*
X148789912Y-74897196D01*
X148801142Y-74893351D01*
X148835983Y-74883229D01*
X148835984Y-74883229D01*
X148843593Y-74881018D01*
X148850412Y-74876985D01*
X148850417Y-74876983D01*
X148861028Y-74870707D01*
X148878776Y-74862012D01*
X148897617Y-74854552D01*
X148933387Y-74828564D01*
X148943307Y-74822048D01*
X148974535Y-74803580D01*
X148974538Y-74803578D01*
X148981362Y-74799542D01*
X148995683Y-74785221D01*
X149010717Y-74772380D01*
X149012431Y-74771135D01*
X149027107Y-74760472D01*
X149055298Y-74726395D01*
X149063288Y-74717616D01*
X151522247Y-72258657D01*
X151530537Y-72251113D01*
X151537018Y-72247000D01*
X151583659Y-72197332D01*
X151586413Y-72194491D01*
X151606134Y-72174770D01*
X151608612Y-72171575D01*
X151616318Y-72162553D01*
X151641158Y-72136101D01*
X151646586Y-72130321D01*
X151653678Y-72117420D01*
X151656346Y-72112568D01*
X151667199Y-72096045D01*
X151674753Y-72086306D01*
X151679613Y-72080041D01*
X151697176Y-72039457D01*
X151702383Y-72028827D01*
X151723695Y-71990060D01*
X151725666Y-71982383D01*
X151725668Y-71982378D01*
X151728732Y-71970442D01*
X151735138Y-71951730D01*
X151740034Y-71940417D01*
X151743181Y-71933145D01*
X151749755Y-71891643D01*
X151750097Y-71889481D01*
X151752504Y-71877860D01*
X151761528Y-71842711D01*
X151761528Y-71842710D01*
X151763500Y-71835030D01*
X151763500Y-71814769D01*
X151765051Y-71795058D01*
X151766979Y-71782885D01*
X151768219Y-71775057D01*
X151764059Y-71731046D01*
X151763500Y-71719189D01*
X151763500Y-68658767D01*
X151764027Y-68647584D01*
X151765702Y-68640091D01*
X151765428Y-68631358D01*
X151763562Y-68572014D01*
X151763500Y-68568055D01*
X151763500Y-68540144D01*
X151762995Y-68536144D01*
X151762062Y-68524301D01*
X151762003Y-68522401D01*
X151760673Y-68480110D01*
X151755022Y-68460658D01*
X151751014Y-68441306D01*
X151749467Y-68429063D01*
X151748474Y-68421203D01*
X151742259Y-68405505D01*
X151732200Y-68380097D01*
X151728355Y-68368870D01*
X151721732Y-68346075D01*
X151716018Y-68326407D01*
X151711984Y-68319585D01*
X151711981Y-68319579D01*
X151705706Y-68308968D01*
X151697010Y-68291218D01*
X151692472Y-68279756D01*
X151692469Y-68279751D01*
X151689552Y-68272383D01*
X151674598Y-68251800D01*
X151663573Y-68236625D01*
X151657057Y-68226707D01*
X151646005Y-68208019D01*
X151634542Y-68188637D01*
X151620218Y-68174313D01*
X151607376Y-68159278D01*
X151605188Y-68156266D01*
X151595472Y-68142893D01*
X151561406Y-68114711D01*
X151552627Y-68106722D01*
X151211218Y-67765313D01*
X151177192Y-67703001D01*
X151179755Y-67639589D01*
X151190711Y-67603531D01*
X151192370Y-67598069D01*
X151221529Y-67376590D01*
X151223156Y-67310000D01*
X151204852Y-67087361D01*
X151150431Y-66870702D01*
X151061354Y-66665840D01*
X150940014Y-66478277D01*
X150789670Y-66313051D01*
X150785619Y-66309852D01*
X150785615Y-66309848D01*
X150618414Y-66177800D01*
X150618410Y-66177798D01*
X150614359Y-66174598D01*
X150578028Y-66154542D01*
X150562136Y-66145769D01*
X150418789Y-66066638D01*
X150413920Y-66064914D01*
X150413916Y-66064912D01*
X150213087Y-65993795D01*
X150213083Y-65993794D01*
X150208212Y-65992069D01*
X150203119Y-65991162D01*
X150203116Y-65991161D01*
X149993373Y-65953800D01*
X149993367Y-65953799D01*
X149988284Y-65952894D01*
X149914452Y-65951992D01*
X149770081Y-65950228D01*
X149770079Y-65950228D01*
X149764911Y-65950165D01*
X149544091Y-65983955D01*
X149331756Y-66053357D01*
X149133607Y-66156507D01*
X149129474Y-66159610D01*
X149129471Y-66159612D01*
X149105247Y-66177800D01*
X148954965Y-66290635D01*
X148800629Y-66452138D01*
X148693201Y-66609621D01*
X148638293Y-66654621D01*
X148567768Y-66662792D01*
X148504021Y-66631538D01*
X148483324Y-66607054D01*
X148402822Y-66482617D01*
X148402820Y-66482614D01*
X148400014Y-66478277D01*
X148249670Y-66313051D01*
X148245619Y-66309852D01*
X148245615Y-66309848D01*
X148078414Y-66177800D01*
X148078410Y-66177798D01*
X148074359Y-66174598D01*
X148038028Y-66154542D01*
X148022136Y-66145769D01*
X147878789Y-66066638D01*
X147873920Y-66064914D01*
X147873916Y-66064912D01*
X147673087Y-65993795D01*
X147673083Y-65993794D01*
X147668212Y-65992069D01*
X147663119Y-65991162D01*
X147663116Y-65991161D01*
X147453373Y-65953800D01*
X147453367Y-65953799D01*
X147448284Y-65952894D01*
X147374452Y-65951992D01*
X147230081Y-65950228D01*
X147230079Y-65950228D01*
X147224911Y-65950165D01*
X147004091Y-65983955D01*
X146791756Y-66053357D01*
X146593607Y-66156507D01*
X146589474Y-66159610D01*
X146589471Y-66159612D01*
X146565247Y-66177800D01*
X146414965Y-66290635D01*
X146260629Y-66452138D01*
X146257720Y-66456403D01*
X146257714Y-66456411D01*
X146245404Y-66474457D01*
X146153204Y-66609618D01*
X146152898Y-66610066D01*
X146097987Y-66655069D01*
X146027462Y-66663240D01*
X145963715Y-66631986D01*
X145943018Y-66607502D01*
X145862426Y-66482926D01*
X145856136Y-66474757D01*
X145712806Y-66317240D01*
X145705273Y-66310215D01*
X145538139Y-66178222D01*
X145529552Y-66172517D01*
X145343117Y-66069599D01*
X145333705Y-66065369D01*
X145132959Y-65994280D01*
X145122988Y-65991646D01*
X145051837Y-65978972D01*
X145038540Y-65980432D01*
X145034000Y-65994989D01*
X145034000Y-67438000D01*
X145013998Y-67506121D01*
X144960342Y-67552614D01*
X144908000Y-67564000D01*
X144652000Y-67564000D01*
X144583879Y-67543998D01*
X144537386Y-67490342D01*
X144526000Y-67438000D01*
X144526000Y-65993102D01*
X144522082Y-65979758D01*
X144507806Y-65977771D01*
X144469324Y-65983660D01*
X144459288Y-65986051D01*
X144256868Y-66052212D01*
X144247359Y-66056209D01*
X144058463Y-66154542D01*
X144049738Y-66160036D01*
X143879433Y-66287905D01*
X143871726Y-66294748D01*
X143724590Y-66448717D01*
X143718104Y-66456727D01*
X143598098Y-66632649D01*
X143593000Y-66641623D01*
X143503338Y-66834783D01*
X143499775Y-66844470D01*
X143442864Y-67049681D01*
X143440933Y-67059801D01*
X143432402Y-67139632D01*
X143405275Y-67205242D01*
X143346982Y-67245771D01*
X143276033Y-67248350D01*
X143218020Y-67215339D01*
X143035405Y-67032724D01*
X143001379Y-66970412D01*
X142998500Y-66943629D01*
X142998500Y-52284500D01*
X143018502Y-52216379D01*
X143072158Y-52169886D01*
X143124500Y-52158500D01*
X143138134Y-52158500D01*
X143200316Y-52151745D01*
X143336705Y-52100615D01*
X143453261Y-52013261D01*
X143540615Y-51896705D01*
X143562799Y-51837529D01*
X143584798Y-51778848D01*
X143627440Y-51722084D01*
X143694001Y-51697384D01*
X143763350Y-51712592D01*
X143798017Y-51740580D01*
X143823218Y-51769673D01*
X143830580Y-51776883D01*
X143994434Y-51912916D01*
X144002881Y-51918831D01*
X144186756Y-52026279D01*
X144196042Y-52030729D01*
X144395001Y-52106703D01*
X144404899Y-52109579D01*
X144508250Y-52130606D01*
X144522299Y-52129410D01*
X144526000Y-52119065D01*
X144526000Y-48132000D01*
X144546002Y-48063879D01*
X144599658Y-48017386D01*
X144652000Y-48006000D01*
X144908000Y-48006000D01*
X144976121Y-48026002D01*
G37*
G04 #@! TD.AperFunction*
M02*
