G04 #@! TF.GenerationSoftware,KiCad,Pcbnew,6.0.9-8da3e8f707~116~ubuntu20.04.1*
G04 #@! TF.CreationDate,2022-12-22T22:59:07+01:00*
G04 #@! TF.ProjectId,display_10dig,64697370-6c61-4795-9f31-306469672e6b,rev?*
G04 #@! TF.SameCoordinates,Original*
G04 #@! TF.FileFunction,Soldermask,Bot*
G04 #@! TF.FilePolarity,Negative*
%FSLAX46Y46*%
G04 Gerber Fmt 4.6, Leading zero omitted, Abs format (unit mm)*
G04 Created by KiCad (PCBNEW 6.0.9-8da3e8f707~116~ubuntu20.04.1) date 2022-12-22 22:59:07*
%MOMM*%
%LPD*%
G01*
G04 APERTURE LIST*
G04 Aperture macros list*
%AMRoundRect*
0 Rectangle with rounded corners*
0 $1 Rounding radius*
0 $2 $3 $4 $5 $6 $7 $8 $9 X,Y pos of 4 corners*
0 Add a 4 corners polygon primitive as box body*
4,1,4,$2,$3,$4,$5,$6,$7,$8,$9,$2,$3,0*
0 Add four circle primitives for the rounded corners*
1,1,$1+$1,$2,$3*
1,1,$1+$1,$4,$5*
1,1,$1+$1,$6,$7*
1,1,$1+$1,$8,$9*
0 Add four rect primitives between the rounded corners*
20,1,$1+$1,$2,$3,$4,$5,0*
20,1,$1+$1,$4,$5,$6,$7,0*
20,1,$1+$1,$6,$7,$8,$9,0*
20,1,$1+$1,$8,$9,$2,$3,0*%
G04 Aperture macros list end*
%ADD10R,2.000000X2.000000*%
%ADD11C,2.000000*%
%ADD12R,3.200000X2.000000*%
%ADD13R,1.700000X1.700000*%
%ADD14O,1.700000X1.700000*%
%ADD15C,2.700000*%
%ADD16R,1.500000X1.700000*%
%ADD17C,1.700000*%
%ADD18R,2.400000X1.600000*%
%ADD19O,2.400000X1.600000*%
%ADD20C,1.800000*%
%ADD21R,1.800000X1.800000*%
%ADD22C,2.500000*%
%ADD23RoundRect,0.237500X0.300000X0.237500X-0.300000X0.237500X-0.300000X-0.237500X0.300000X-0.237500X0*%
%ADD24RoundRect,0.150000X-0.587500X-0.150000X0.587500X-0.150000X0.587500X0.150000X-0.587500X0.150000X0*%
%ADD25RoundRect,0.237500X0.237500X-0.250000X0.237500X0.250000X-0.237500X0.250000X-0.237500X-0.250000X0*%
%ADD26RoundRect,0.237500X-0.250000X-0.237500X0.250000X-0.237500X0.250000X0.237500X-0.250000X0.237500X0*%
%ADD27RoundRect,0.237500X0.250000X0.237500X-0.250000X0.237500X-0.250000X-0.237500X0.250000X-0.237500X0*%
G04 APERTURE END LIST*
D10*
X153935000Y-129500000D03*
D11*
X153935000Y-124500000D03*
X153935000Y-127000000D03*
D12*
X146435000Y-121400000D03*
X146435000Y-132600000D03*
D11*
X139435000Y-124500000D03*
X139435000Y-129500000D03*
D13*
X111760000Y-50800000D03*
D14*
X111760000Y-48260000D03*
X114300000Y-50800000D03*
X114300000Y-48260000D03*
X116840000Y-50800000D03*
X116840000Y-48260000D03*
X119380000Y-50800000D03*
X119380000Y-48260000D03*
X121920000Y-50800000D03*
X121920000Y-48260000D03*
X124460000Y-50800000D03*
X124460000Y-48260000D03*
X127000000Y-50800000D03*
X127000000Y-48260000D03*
X129540000Y-50800000D03*
X129540000Y-48260000D03*
X132080000Y-50800000D03*
X132080000Y-48260000D03*
D15*
X64770000Y-140970000D03*
X156210000Y-140970000D03*
D16*
X111379000Y-69384000D03*
D17*
X113919000Y-69384000D03*
X116459000Y-69384000D03*
X118999000Y-69384000D03*
X121539000Y-69384000D03*
X124079000Y-69384000D03*
X126619000Y-69384000D03*
X126619000Y-59224000D03*
X124079000Y-59224000D03*
X121539000Y-59224000D03*
X118999000Y-59224000D03*
X116459000Y-59224000D03*
X113919000Y-59224000D03*
X111379000Y-59224000D03*
D15*
X64770000Y-49530000D03*
D13*
X144780000Y-69850000D03*
D14*
X144780000Y-67310000D03*
X147320000Y-69850000D03*
X147320000Y-67310000D03*
X149860000Y-69850000D03*
X149860000Y-67310000D03*
D13*
X142240000Y-50800000D03*
D14*
X142240000Y-48260000D03*
X144780000Y-50800000D03*
X144780000Y-48260000D03*
X147320000Y-50800000D03*
X147320000Y-48260000D03*
X149860000Y-50800000D03*
X149860000Y-48260000D03*
X152400000Y-50800000D03*
X152400000Y-48260000D03*
X154940000Y-50800000D03*
X154940000Y-48260000D03*
D18*
X143510000Y-83185000D03*
D19*
X143510000Y-85725000D03*
X143510000Y-88265000D03*
X143510000Y-90805000D03*
X143510000Y-93345000D03*
X143510000Y-95885000D03*
X143510000Y-98425000D03*
X143510000Y-100965000D03*
X151130000Y-100965000D03*
X151130000Y-98425000D03*
X151130000Y-95885000D03*
X151130000Y-93345000D03*
X151130000Y-90805000D03*
X151130000Y-88265000D03*
X151130000Y-85725000D03*
X151130000Y-83185000D03*
D20*
X146685000Y-109860000D03*
D21*
X146685000Y-112400000D03*
D16*
X74549000Y-69384000D03*
D17*
X77089000Y-69384000D03*
X79629000Y-69384000D03*
X82169000Y-69384000D03*
X84709000Y-69384000D03*
X87249000Y-69384000D03*
X89789000Y-69384000D03*
X89789000Y-59224000D03*
X87249000Y-59224000D03*
X84709000Y-59224000D03*
X82169000Y-59224000D03*
X79629000Y-59224000D03*
X77089000Y-59224000D03*
X74549000Y-59224000D03*
D22*
X70584000Y-75664000D03*
X130584000Y-134264000D03*
X130584000Y-75664000D03*
X70584000Y-134264000D03*
D13*
X88584000Y-139164000D03*
D17*
X91124000Y-139164000D03*
X93664000Y-139164000D03*
X96204000Y-139164000D03*
X98744000Y-139164000D03*
X101284000Y-139164000D03*
X103824000Y-139164000D03*
X106364000Y-139164000D03*
X108904000Y-139164000D03*
X111444000Y-139164000D03*
D23*
X148832500Y-83170000D03*
X147107500Y-83170000D03*
D24*
X113997500Y-82230000D03*
X113997500Y-80330000D03*
X115872500Y-81280000D03*
X79707500Y-82230000D03*
X79707500Y-80330000D03*
X81582500Y-81280000D03*
D25*
X121539000Y-67023000D03*
X121539000Y-65198000D03*
D24*
X108282500Y-82230000D03*
X108282500Y-80330000D03*
X110157500Y-81280000D03*
D25*
X77089000Y-56562000D03*
X77089000Y-54737000D03*
D24*
X91137500Y-82230000D03*
X91137500Y-80330000D03*
X93012500Y-81280000D03*
X119712500Y-82230000D03*
X119712500Y-80330000D03*
X121587500Y-81280000D03*
D25*
X113919000Y-66976000D03*
X113919000Y-65151000D03*
D26*
X145772500Y-118110000D03*
X147597500Y-118110000D03*
D25*
X79629000Y-56562000D03*
X79629000Y-54737000D03*
X116459000Y-67023000D03*
X116459000Y-65198000D03*
D26*
X151487500Y-118110000D03*
X153312500Y-118110000D03*
D25*
X111379000Y-66976000D03*
X111379000Y-65151000D03*
D27*
X152296500Y-109855000D03*
X150471500Y-109855000D03*
D25*
X118999000Y-67023000D03*
X118999000Y-65198000D03*
X87249000Y-56562000D03*
X87249000Y-54737000D03*
D27*
X141708500Y-118110000D03*
X139883500Y-118110000D03*
D24*
X96852500Y-82230000D03*
X96852500Y-80330000D03*
X98727500Y-81280000D03*
X73992500Y-82230000D03*
X73992500Y-80330000D03*
X75867500Y-81280000D03*
X85422500Y-82230000D03*
X85422500Y-80330000D03*
X87297500Y-81280000D03*
X102567500Y-82230000D03*
X102567500Y-80330000D03*
X104442500Y-81280000D03*
X125427500Y-82230000D03*
X125427500Y-80330000D03*
X127302500Y-81280000D03*
M02*
