G04 #@! TF.GenerationSoftware,KiCad,Pcbnew,6.0.9-8da3e8f707~116~ubuntu20.04.1*
G04 #@! TF.CreationDate,2022-12-22T22:59:07+01:00*
G04 #@! TF.ProjectId,display_10dig,64697370-6c61-4795-9f31-306469672e6b,rev?*
G04 #@! TF.SameCoordinates,Original*
G04 #@! TF.FileFunction,Soldermask,Top*
G04 #@! TF.FilePolarity,Negative*
%FSLAX46Y46*%
G04 Gerber Fmt 4.6, Leading zero omitted, Abs format (unit mm)*
G04 Created by KiCad (PCBNEW 6.0.9-8da3e8f707~116~ubuntu20.04.1) date 2022-12-22 22:59:07*
%MOMM*%
%LPD*%
G01*
G04 APERTURE LIST*
%ADD10R,2.000000X2.000000*%
%ADD11C,2.000000*%
%ADD12R,3.200000X2.000000*%
%ADD13R,1.700000X1.700000*%
%ADD14O,1.700000X1.700000*%
%ADD15C,2.700000*%
%ADD16R,1.500000X1.700000*%
%ADD17C,1.700000*%
%ADD18R,2.400000X1.600000*%
%ADD19O,2.400000X1.600000*%
%ADD20C,1.800000*%
%ADD21R,1.800000X1.800000*%
%ADD22C,2.500000*%
G04 APERTURE END LIST*
D10*
X153935000Y-129500000D03*
D11*
X153935000Y-124500000D03*
X153935000Y-127000000D03*
D12*
X146435000Y-121400000D03*
X146435000Y-132600000D03*
D11*
X139435000Y-124500000D03*
X139435000Y-129500000D03*
D13*
X111760000Y-50800000D03*
D14*
X111760000Y-48260000D03*
X114300000Y-50800000D03*
X114300000Y-48260000D03*
X116840000Y-50800000D03*
X116840000Y-48260000D03*
X119380000Y-50800000D03*
X119380000Y-48260000D03*
X121920000Y-50800000D03*
X121920000Y-48260000D03*
X124460000Y-50800000D03*
X124460000Y-48260000D03*
X127000000Y-50800000D03*
X127000000Y-48260000D03*
X129540000Y-50800000D03*
X129540000Y-48260000D03*
X132080000Y-50800000D03*
X132080000Y-48260000D03*
D15*
X64770000Y-140970000D03*
X156210000Y-140970000D03*
D16*
X111379000Y-69384000D03*
D17*
X113919000Y-69384000D03*
X116459000Y-69384000D03*
X118999000Y-69384000D03*
X121539000Y-69384000D03*
X124079000Y-69384000D03*
X126619000Y-69384000D03*
X126619000Y-59224000D03*
X124079000Y-59224000D03*
X121539000Y-59224000D03*
X118999000Y-59224000D03*
X116459000Y-59224000D03*
X113919000Y-59224000D03*
X111379000Y-59224000D03*
D15*
X64770000Y-49530000D03*
D13*
X144780000Y-69850000D03*
D14*
X144780000Y-67310000D03*
X147320000Y-69850000D03*
X147320000Y-67310000D03*
X149860000Y-69850000D03*
X149860000Y-67310000D03*
D13*
X142240000Y-50800000D03*
D14*
X142240000Y-48260000D03*
X144780000Y-50800000D03*
X144780000Y-48260000D03*
X147320000Y-50800000D03*
X147320000Y-48260000D03*
X149860000Y-50800000D03*
X149860000Y-48260000D03*
X152400000Y-50800000D03*
X152400000Y-48260000D03*
X154940000Y-50800000D03*
X154940000Y-48260000D03*
D18*
X143510000Y-83185000D03*
D19*
X143510000Y-85725000D03*
X143510000Y-88265000D03*
X143510000Y-90805000D03*
X143510000Y-93345000D03*
X143510000Y-95885000D03*
X143510000Y-98425000D03*
X143510000Y-100965000D03*
X151130000Y-100965000D03*
X151130000Y-98425000D03*
X151130000Y-95885000D03*
X151130000Y-93345000D03*
X151130000Y-90805000D03*
X151130000Y-88265000D03*
X151130000Y-85725000D03*
X151130000Y-83185000D03*
D20*
X146685000Y-109860000D03*
D21*
X146685000Y-112400000D03*
D16*
X74549000Y-69384000D03*
D17*
X77089000Y-69384000D03*
X79629000Y-69384000D03*
X82169000Y-69384000D03*
X84709000Y-69384000D03*
X87249000Y-69384000D03*
X89789000Y-69384000D03*
X89789000Y-59224000D03*
X87249000Y-59224000D03*
X84709000Y-59224000D03*
X82169000Y-59224000D03*
X79629000Y-59224000D03*
X77089000Y-59224000D03*
X74549000Y-59224000D03*
D22*
X70584000Y-75664000D03*
X130584000Y-134264000D03*
X130584000Y-75664000D03*
X70584000Y-134264000D03*
D13*
X88584000Y-139164000D03*
D17*
X91124000Y-139164000D03*
X93664000Y-139164000D03*
X96204000Y-139164000D03*
X98744000Y-139164000D03*
X101284000Y-139164000D03*
X103824000Y-139164000D03*
X106364000Y-139164000D03*
X108904000Y-139164000D03*
X111444000Y-139164000D03*
M02*
