%TF.GenerationSoftware,KiCad,Pcbnew,6.0.9-8da3e8f707~116~ubuntu20.04.1*%
%TF.CreationDate,2022-12-22T22:59:13+01:00*%
%TF.ProjectId,display_10dig,64697370-6c61-4795-9f31-306469672e6b,rev?*%
%TF.SameCoordinates,Original*%
%TF.FileFunction,Drillmap*%
%TF.FilePolarity,Positive*%
%FSLAX45Y45*%
G04 Gerber Fmt 4.5, Leading zero omitted, Abs format (unit mm)*
G04 Created by KiCad (PCBNEW 6.0.9-8da3e8f707~116~ubuntu20.04.1) date 2022-12-22 22:59:13*
%MOMM*%
%LPD*%
G01*
G04 APERTURE LIST*
%ADD10C,0.100000*%
%ADD11C,0.200000*%
%ADD12C,0.040000*%
%ADD13C,0.080000*%
%ADD14C,0.090000*%
%ADD15C,0.150000*%
G04 APERTURE END LIST*
D10*
X6159500Y-4572000D02*
X15938500Y-4572000D01*
X15938500Y-14478000D02*
G75*
G03*
X16002000Y-14414500I0J63500D01*
G01*
X16002000Y-4635500D02*
X16002000Y-14414500D01*
X15938500Y-14478000D02*
X6159500Y-14478000D01*
X6159500Y-4572000D02*
G75*
G03*
X6096000Y-4635500I0J-63500D01*
G01*
X6096000Y-14414500D02*
G75*
G03*
X6159500Y-14478000I63500J0D01*
G01*
X16002000Y-4635500D02*
G75*
G03*
X15938500Y-4572000I-63500J0D01*
G01*
X6096000Y-14414500D02*
X6096000Y-4635500D01*
D11*
D12*
X7550300Y-8229750D02*
X7590300Y-8269750D01*
X7590300Y-8229750D02*
X7550300Y-8269750D01*
X7727000Y-8108000D02*
X7767000Y-8148000D01*
X7767000Y-8108000D02*
X7727000Y-8148000D01*
X8298500Y-8108000D02*
X8338500Y-8148000D01*
X8338500Y-8108000D02*
X8298500Y-8148000D01*
X8429000Y-5381160D02*
X8469000Y-5421160D01*
X8469000Y-5381160D02*
X8429000Y-5421160D01*
X8870000Y-8108000D02*
X8910000Y-8148000D01*
X8910000Y-8108000D02*
X8870000Y-8148000D01*
X9314500Y-8997000D02*
X9354500Y-9037000D01*
X9354500Y-8997000D02*
X9314500Y-9037000D01*
X9440840Y-8665190D02*
X9480840Y-8705190D01*
X9480840Y-8665190D02*
X9440840Y-8705190D01*
X9441500Y-8108000D02*
X9481500Y-8148000D01*
X9481500Y-8108000D02*
X9441500Y-8148000D01*
X10013000Y-8108000D02*
X10053000Y-8148000D01*
X10053000Y-8108000D02*
X10013000Y-8148000D01*
X10239010Y-8372730D02*
X10279010Y-8412730D01*
X10279010Y-8372730D02*
X10239010Y-8412730D01*
X10330500Y-9378000D02*
X10370500Y-9418000D01*
X10370500Y-9378000D02*
X10330500Y-9418000D01*
X10567890Y-9430940D02*
X10607890Y-9470940D01*
X10607890Y-9430940D02*
X10567890Y-9470940D01*
X10584500Y-8108000D02*
X10624500Y-8148000D01*
X10624500Y-8108000D02*
X10584500Y-8148000D01*
X10856270Y-8372730D02*
X10896270Y-8412730D01*
X10896270Y-8372730D02*
X10856270Y-8412730D01*
X11156000Y-8108000D02*
X11196000Y-8148000D01*
X11196000Y-8108000D02*
X11156000Y-8148000D01*
X11535750Y-8229750D02*
X11575750Y-8269750D01*
X11575750Y-8229750D02*
X11535750Y-8269750D01*
X11727500Y-8108000D02*
X11767500Y-8148000D01*
X11767500Y-8108000D02*
X11727500Y-8148000D01*
X12094620Y-8235940D02*
X12134620Y-8275940D01*
X12134620Y-8235940D02*
X12094620Y-8275940D01*
X12299000Y-8108000D02*
X12339000Y-8148000D01*
X12339000Y-8108000D02*
X12299000Y-8148000D01*
X12702810Y-8229750D02*
X12742810Y-8269750D01*
X12742810Y-8229750D02*
X12702810Y-8269750D01*
X12870500Y-8108000D02*
X12910500Y-8148000D01*
X12910500Y-8108000D02*
X12870500Y-8148000D01*
X12934000Y-5631500D02*
X12974000Y-5671500D01*
X12974000Y-5631500D02*
X12934000Y-5671500D01*
X13188000Y-5631500D02*
X13228000Y-5671500D01*
X13228000Y-5631500D02*
X13188000Y-5671500D01*
D13*
X14391000Y-8318500D02*
G75*
G03*
X14391000Y-8318500I-40000J0D01*
G01*
X14391000Y-8572500D02*
G75*
G03*
X14391000Y-8572500I-40000J0D01*
G01*
X14391000Y-8826500D02*
G75*
G03*
X14391000Y-8826500I-40000J0D01*
G01*
X14391000Y-9080500D02*
G75*
G03*
X14391000Y-9080500I-40000J0D01*
G01*
X14391000Y-9334500D02*
G75*
G03*
X14391000Y-9334500I-40000J0D01*
G01*
X14391000Y-9588500D02*
G75*
G03*
X14391000Y-9588500I-40000J0D01*
G01*
X14391000Y-9842500D02*
G75*
G03*
X14391000Y-9842500I-40000J0D01*
G01*
X14391000Y-10096500D02*
G75*
G03*
X14391000Y-10096500I-40000J0D01*
G01*
X15153000Y-8318500D02*
G75*
G03*
X15153000Y-8318500I-40000J0D01*
G01*
X15153000Y-8572500D02*
G75*
G03*
X15153000Y-8572500I-40000J0D01*
G01*
X15153000Y-8826500D02*
G75*
G03*
X15153000Y-8826500I-40000J0D01*
G01*
X15153000Y-9080500D02*
G75*
G03*
X15153000Y-9080500I-40000J0D01*
G01*
X15153000Y-9334500D02*
G75*
G03*
X15153000Y-9334500I-40000J0D01*
G01*
X15153000Y-9588500D02*
G75*
G03*
X15153000Y-9588500I-40000J0D01*
G01*
X15153000Y-9842500D02*
G75*
G03*
X15153000Y-9842500I-40000J0D01*
G01*
X15153000Y-10096500D02*
G75*
G03*
X15153000Y-10096500I-40000J0D01*
G01*
D14*
X14668500Y-10941000D02*
X14668500Y-11031000D01*
X14623500Y-10986000D02*
X14713500Y-10986000D01*
X14668500Y-11195000D02*
X14668500Y-11285000D01*
X14623500Y-11240000D02*
X14713500Y-11240000D01*
D10*
X7490256Y-5957756D02*
X7490256Y-5887044D01*
X7419544Y-5887044D01*
X7419544Y-5957756D01*
X7490256Y-5957756D01*
X7490256Y-6973756D02*
X7490256Y-6903044D01*
X7419544Y-6903044D01*
X7419544Y-6973756D01*
X7490256Y-6973756D01*
X7744256Y-5957756D02*
X7744256Y-5887044D01*
X7673544Y-5887044D01*
X7673544Y-5957756D01*
X7744256Y-5957756D01*
X7744256Y-6973756D02*
X7744256Y-6903044D01*
X7673544Y-6903044D01*
X7673544Y-6973756D01*
X7744256Y-6973756D01*
X7998256Y-5957756D02*
X7998256Y-5887044D01*
X7927544Y-5887044D01*
X7927544Y-5957756D01*
X7998256Y-5957756D01*
X7998256Y-6973756D02*
X7998256Y-6903044D01*
X7927544Y-6903044D01*
X7927544Y-6973756D01*
X7998256Y-6973756D01*
X8252256Y-5957756D02*
X8252256Y-5887044D01*
X8181544Y-5887044D01*
X8181544Y-5957756D01*
X8252256Y-5957756D01*
X8252256Y-6973756D02*
X8252256Y-6903044D01*
X8181544Y-6903044D01*
X8181544Y-6973756D01*
X8252256Y-6973756D01*
X8506256Y-5957756D02*
X8506256Y-5887044D01*
X8435544Y-5887044D01*
X8435544Y-5957756D01*
X8506256Y-5957756D01*
X8506256Y-6973756D02*
X8506256Y-6903044D01*
X8435544Y-6903044D01*
X8435544Y-6973756D01*
X8506256Y-6973756D01*
X8760256Y-5957756D02*
X8760256Y-5887044D01*
X8689544Y-5887044D01*
X8689544Y-5957756D01*
X8760256Y-5957756D01*
X8760256Y-6973756D02*
X8760256Y-6903044D01*
X8689544Y-6903044D01*
X8689544Y-6973756D01*
X8760256Y-6973756D01*
X8893756Y-13951756D02*
X8893756Y-13881044D01*
X8823044Y-13881044D01*
X8823044Y-13951756D01*
X8893756Y-13951756D01*
X9014256Y-5957756D02*
X9014256Y-5887044D01*
X8943544Y-5887044D01*
X8943544Y-5957756D01*
X9014256Y-5957756D01*
X9014256Y-6973756D02*
X9014256Y-6903044D01*
X8943544Y-6903044D01*
X8943544Y-6973756D01*
X9014256Y-6973756D01*
X9147756Y-13951756D02*
X9147756Y-13881044D01*
X9077044Y-13881044D01*
X9077044Y-13951756D01*
X9147756Y-13951756D01*
X9401756Y-13951756D02*
X9401756Y-13881044D01*
X9331044Y-13881044D01*
X9331044Y-13951756D01*
X9401756Y-13951756D01*
X9655756Y-13951756D02*
X9655756Y-13881044D01*
X9585044Y-13881044D01*
X9585044Y-13951756D01*
X9655756Y-13951756D01*
X9909756Y-13951756D02*
X9909756Y-13881044D01*
X9839044Y-13881044D01*
X9839044Y-13951756D01*
X9909756Y-13951756D01*
X10163756Y-13951756D02*
X10163756Y-13881044D01*
X10093044Y-13881044D01*
X10093044Y-13951756D01*
X10163756Y-13951756D01*
X10417756Y-13951756D02*
X10417756Y-13881044D01*
X10347044Y-13881044D01*
X10347044Y-13951756D01*
X10417756Y-13951756D01*
X10671756Y-13951756D02*
X10671756Y-13881044D01*
X10601044Y-13881044D01*
X10601044Y-13951756D01*
X10671756Y-13951756D01*
X10925756Y-13951756D02*
X10925756Y-13881044D01*
X10855044Y-13881044D01*
X10855044Y-13951756D01*
X10925756Y-13951756D01*
X11173256Y-5957756D02*
X11173256Y-5887044D01*
X11102544Y-5887044D01*
X11102544Y-5957756D01*
X11173256Y-5957756D01*
X11173256Y-6973756D02*
X11173256Y-6903044D01*
X11102544Y-6903044D01*
X11102544Y-6973756D01*
X11173256Y-6973756D01*
X11179756Y-13951756D02*
X11179756Y-13881044D01*
X11109044Y-13881044D01*
X11109044Y-13951756D01*
X11179756Y-13951756D01*
X11211356Y-4861356D02*
X11211356Y-4790644D01*
X11140644Y-4790644D01*
X11140644Y-4861356D01*
X11211356Y-4861356D01*
X11211356Y-5115356D02*
X11211356Y-5044644D01*
X11140644Y-5044644D01*
X11140644Y-5115356D01*
X11211356Y-5115356D01*
X11427256Y-5957756D02*
X11427256Y-5887044D01*
X11356544Y-5887044D01*
X11356544Y-5957756D01*
X11427256Y-5957756D01*
X11427256Y-6973756D02*
X11427256Y-6903044D01*
X11356544Y-6903044D01*
X11356544Y-6973756D01*
X11427256Y-6973756D01*
X11465356Y-4861356D02*
X11465356Y-4790644D01*
X11394644Y-4790644D01*
X11394644Y-4861356D01*
X11465356Y-4861356D01*
X11465356Y-5115356D02*
X11465356Y-5044644D01*
X11394644Y-5044644D01*
X11394644Y-5115356D01*
X11465356Y-5115356D01*
X11681256Y-5957756D02*
X11681256Y-5887044D01*
X11610544Y-5887044D01*
X11610544Y-5957756D01*
X11681256Y-5957756D01*
X11681256Y-6973756D02*
X11681256Y-6903044D01*
X11610544Y-6903044D01*
X11610544Y-6973756D01*
X11681256Y-6973756D01*
X11719356Y-4861356D02*
X11719356Y-4790644D01*
X11648644Y-4790644D01*
X11648644Y-4861356D01*
X11719356Y-4861356D01*
X11719356Y-5115356D02*
X11719356Y-5044644D01*
X11648644Y-5044644D01*
X11648644Y-5115356D01*
X11719356Y-5115356D01*
X11935256Y-5957756D02*
X11935256Y-5887044D01*
X11864544Y-5887044D01*
X11864544Y-5957756D01*
X11935256Y-5957756D01*
X11935256Y-6973756D02*
X11935256Y-6903044D01*
X11864544Y-6903044D01*
X11864544Y-6973756D01*
X11935256Y-6973756D01*
X11973356Y-4861356D02*
X11973356Y-4790644D01*
X11902644Y-4790644D01*
X11902644Y-4861356D01*
X11973356Y-4861356D01*
X11973356Y-5115356D02*
X11973356Y-5044644D01*
X11902644Y-5044644D01*
X11902644Y-5115356D01*
X11973356Y-5115356D01*
X12189256Y-5957756D02*
X12189256Y-5887044D01*
X12118544Y-5887044D01*
X12118544Y-5957756D01*
X12189256Y-5957756D01*
X12189256Y-6973756D02*
X12189256Y-6903044D01*
X12118544Y-6903044D01*
X12118544Y-6973756D01*
X12189256Y-6973756D01*
X12227356Y-4861356D02*
X12227356Y-4790644D01*
X12156644Y-4790644D01*
X12156644Y-4861356D01*
X12227356Y-4861356D01*
X12227356Y-5115356D02*
X12227356Y-5044644D01*
X12156644Y-5044644D01*
X12156644Y-5115356D01*
X12227356Y-5115356D01*
X12443256Y-5957756D02*
X12443256Y-5887044D01*
X12372544Y-5887044D01*
X12372544Y-5957756D01*
X12443256Y-5957756D01*
X12443256Y-6973756D02*
X12443256Y-6903044D01*
X12372544Y-6903044D01*
X12372544Y-6973756D01*
X12443256Y-6973756D01*
X12481356Y-4861356D02*
X12481356Y-4790644D01*
X12410644Y-4790644D01*
X12410644Y-4861356D01*
X12481356Y-4861356D01*
X12481356Y-5115356D02*
X12481356Y-5044644D01*
X12410644Y-5044644D01*
X12410644Y-5115356D01*
X12481356Y-5115356D01*
X12697256Y-5957756D02*
X12697256Y-5887044D01*
X12626544Y-5887044D01*
X12626544Y-5957756D01*
X12697256Y-5957756D01*
X12697256Y-6973756D02*
X12697256Y-6903044D01*
X12626544Y-6903044D01*
X12626544Y-6973756D01*
X12697256Y-6973756D01*
X12735356Y-4861356D02*
X12735356Y-4790644D01*
X12664644Y-4790644D01*
X12664644Y-4861356D01*
X12735356Y-4861356D01*
X12735356Y-5115356D02*
X12735356Y-5044644D01*
X12664644Y-5044644D01*
X12664644Y-5115356D01*
X12735356Y-5115356D01*
X12989356Y-4861356D02*
X12989356Y-4790644D01*
X12918644Y-4790644D01*
X12918644Y-4861356D01*
X12989356Y-4861356D01*
X12989356Y-5115356D02*
X12989356Y-5044644D01*
X12918644Y-5044644D01*
X12918644Y-5115356D01*
X12989356Y-5115356D01*
X13243356Y-4861356D02*
X13243356Y-4790644D01*
X13172644Y-4790644D01*
X13172644Y-4861356D01*
X13243356Y-4861356D01*
X13243356Y-5115356D02*
X13243356Y-5044644D01*
X13172644Y-5044644D01*
X13172644Y-5115356D01*
X13243356Y-5115356D01*
X13978856Y-12485356D02*
X13978856Y-12414644D01*
X13908144Y-12414644D01*
X13908144Y-12485356D01*
X13978856Y-12485356D01*
X13978856Y-12985356D02*
X13978856Y-12914644D01*
X13908144Y-12914644D01*
X13908144Y-12985356D01*
X13978856Y-12985356D01*
X14259356Y-4861356D02*
X14259356Y-4790644D01*
X14188644Y-4790644D01*
X14188644Y-4861356D01*
X14259356Y-4861356D01*
X14259356Y-5115356D02*
X14259356Y-5044644D01*
X14188644Y-5044644D01*
X14188644Y-5115356D01*
X14259356Y-5115356D01*
X14513356Y-4861356D02*
X14513356Y-4790644D01*
X14442644Y-4790644D01*
X14442644Y-4861356D01*
X14513356Y-4861356D01*
X14513356Y-5115356D02*
X14513356Y-5044644D01*
X14442644Y-5044644D01*
X14442644Y-5115356D01*
X14513356Y-5115356D01*
X14513356Y-6766356D02*
X14513356Y-6695644D01*
X14442644Y-6695644D01*
X14442644Y-6766356D01*
X14513356Y-6766356D01*
X14513356Y-7020356D02*
X14513356Y-6949644D01*
X14442644Y-6949644D01*
X14442644Y-7020356D01*
X14513356Y-7020356D01*
X14767356Y-4861356D02*
X14767356Y-4790644D01*
X14696644Y-4790644D01*
X14696644Y-4861356D01*
X14767356Y-4861356D01*
X14767356Y-5115356D02*
X14767356Y-5044644D01*
X14696644Y-5044644D01*
X14696644Y-5115356D01*
X14767356Y-5115356D01*
X14767356Y-6766356D02*
X14767356Y-6695644D01*
X14696644Y-6695644D01*
X14696644Y-6766356D01*
X14767356Y-6766356D01*
X14767356Y-7020356D02*
X14767356Y-6949644D01*
X14696644Y-6949644D01*
X14696644Y-7020356D01*
X14767356Y-7020356D01*
X15021356Y-4861356D02*
X15021356Y-4790644D01*
X14950644Y-4790644D01*
X14950644Y-4861356D01*
X15021356Y-4861356D01*
X15021356Y-5115356D02*
X15021356Y-5044644D01*
X14950644Y-5044644D01*
X14950644Y-5115356D01*
X15021356Y-5115356D01*
X15021356Y-6766356D02*
X15021356Y-6695644D01*
X14950644Y-6695644D01*
X14950644Y-6766356D01*
X15021356Y-6766356D01*
X15021356Y-7020356D02*
X15021356Y-6949644D01*
X14950644Y-6949644D01*
X14950644Y-7020356D01*
X15021356Y-7020356D01*
X15275356Y-4861356D02*
X15275356Y-4790644D01*
X15204644Y-4790644D01*
X15204644Y-4861356D01*
X15275356Y-4861356D01*
X15275356Y-5115356D02*
X15275356Y-5044644D01*
X15204644Y-5044644D01*
X15204644Y-5115356D01*
X15275356Y-5115356D01*
X15428856Y-12485356D02*
X15428856Y-12414644D01*
X15358144Y-12414644D01*
X15358144Y-12485356D01*
X15428856Y-12485356D01*
X15428856Y-12735356D02*
X15428856Y-12664644D01*
X15358144Y-12664644D01*
X15358144Y-12735356D01*
X15428856Y-12735356D01*
X15428856Y-12985356D02*
X15428856Y-12914644D01*
X15358144Y-12914644D01*
X15358144Y-12985356D01*
X15428856Y-12985356D01*
X15529356Y-4861356D02*
X15529356Y-4790644D01*
X15458644Y-4790644D01*
X15458644Y-4861356D01*
X15529356Y-4861356D01*
X15529356Y-5115356D02*
X15529356Y-5044644D01*
X15458644Y-5044644D01*
X15458644Y-5115356D01*
X15529356Y-5115356D01*
D15*
X14643500Y-12215000D02*
X14718500Y-12140000D01*
X14643500Y-12065000D01*
X14568500Y-12140000D01*
X14643500Y-12215000D01*
D11*
X14708500Y-12065000D02*
X14578500Y-12065000D01*
X14708500Y-12215000D02*
X14578500Y-12215000D01*
X14578500Y-12065000D02*
G75*
G03*
X14578500Y-12215000I0J-75000D01*
G01*
X14708500Y-12215000D02*
G75*
G03*
X14708500Y-12065000I0J75000D01*
G01*
D15*
X14643500Y-13335000D02*
X14718500Y-13260000D01*
X14643500Y-13185000D01*
X14568500Y-13260000D01*
X14643500Y-13335000D01*
D11*
X14708500Y-13185000D02*
X14578500Y-13185000D01*
X14708500Y-13335000D02*
X14578500Y-13335000D01*
X14578500Y-13185000D02*
G75*
G03*
X14578500Y-13335000I0J-75000D01*
G01*
X14708500Y-13335000D02*
G75*
G03*
X14708500Y-13185000I0J75000D01*
G01*
X6348619Y-14793476D02*
X6348619Y-14593476D01*
X6396238Y-14593476D01*
X6424809Y-14603000D01*
X6443857Y-14622048D01*
X6453381Y-14641095D01*
X6462905Y-14679190D01*
X6462905Y-14707762D01*
X6453381Y-14745857D01*
X6443857Y-14764905D01*
X6424809Y-14783952D01*
X6396238Y-14793476D01*
X6348619Y-14793476D01*
X6548619Y-14793476D02*
X6548619Y-14660143D01*
X6548619Y-14698238D02*
X6558143Y-14679190D01*
X6567667Y-14669667D01*
X6586714Y-14660143D01*
X6605762Y-14660143D01*
X6672428Y-14793476D02*
X6672428Y-14660143D01*
X6672428Y-14593476D02*
X6662905Y-14603000D01*
X6672428Y-14612524D01*
X6681952Y-14603000D01*
X6672428Y-14593476D01*
X6672428Y-14612524D01*
X6796238Y-14793476D02*
X6777190Y-14783952D01*
X6767667Y-14764905D01*
X6767667Y-14593476D01*
X6901000Y-14793476D02*
X6881952Y-14783952D01*
X6872428Y-14764905D01*
X6872428Y-14593476D01*
X7129571Y-14793476D02*
X7129571Y-14593476D01*
X7196238Y-14736333D01*
X7262905Y-14593476D01*
X7262905Y-14793476D01*
X7443857Y-14793476D02*
X7443857Y-14688714D01*
X7434333Y-14669667D01*
X7415286Y-14660143D01*
X7377190Y-14660143D01*
X7358143Y-14669667D01*
X7443857Y-14783952D02*
X7424809Y-14793476D01*
X7377190Y-14793476D01*
X7358143Y-14783952D01*
X7348619Y-14764905D01*
X7348619Y-14745857D01*
X7358143Y-14726809D01*
X7377190Y-14717286D01*
X7424809Y-14717286D01*
X7443857Y-14707762D01*
X7539095Y-14660143D02*
X7539095Y-14860143D01*
X7539095Y-14669667D02*
X7558143Y-14660143D01*
X7596238Y-14660143D01*
X7615286Y-14669667D01*
X7624809Y-14679190D01*
X7634333Y-14698238D01*
X7634333Y-14755381D01*
X7624809Y-14774428D01*
X7615286Y-14783952D01*
X7596238Y-14793476D01*
X7558143Y-14793476D01*
X7539095Y-14783952D01*
X7720048Y-14774428D02*
X7729571Y-14783952D01*
X7720048Y-14793476D01*
X7710524Y-14783952D01*
X7720048Y-14774428D01*
X7720048Y-14793476D01*
X7720048Y-14669667D02*
X7729571Y-14679190D01*
X7720048Y-14688714D01*
X7710524Y-14679190D01*
X7720048Y-14669667D01*
X7720048Y-14688714D01*
D12*
X6051000Y-15103000D02*
X6091000Y-15143000D01*
X6091000Y-15103000D02*
X6051000Y-15143000D01*
D11*
X6386714Y-15013476D02*
X6405762Y-15013476D01*
X6424809Y-15023000D01*
X6434333Y-15032524D01*
X6443857Y-15051571D01*
X6453381Y-15089667D01*
X6453381Y-15137286D01*
X6443857Y-15175381D01*
X6434333Y-15194428D01*
X6424809Y-15203952D01*
X6405762Y-15213476D01*
X6386714Y-15213476D01*
X6367667Y-15203952D01*
X6358143Y-15194428D01*
X6348619Y-15175381D01*
X6339095Y-15137286D01*
X6339095Y-15089667D01*
X6348619Y-15051571D01*
X6358143Y-15032524D01*
X6367667Y-15023000D01*
X6386714Y-15013476D01*
X6539095Y-15194428D02*
X6548619Y-15203952D01*
X6539095Y-15213476D01*
X6529571Y-15203952D01*
X6539095Y-15194428D01*
X6539095Y-15213476D01*
X6720048Y-15080143D02*
X6720048Y-15213476D01*
X6672428Y-15003952D02*
X6624809Y-15146809D01*
X6748619Y-15146809D01*
X6862905Y-15013476D02*
X6881952Y-15013476D01*
X6901000Y-15023000D01*
X6910524Y-15032524D01*
X6920048Y-15051571D01*
X6929571Y-15089667D01*
X6929571Y-15137286D01*
X6920048Y-15175381D01*
X6910524Y-15194428D01*
X6901000Y-15203952D01*
X6881952Y-15213476D01*
X6862905Y-15213476D01*
X6843857Y-15203952D01*
X6834333Y-15194428D01*
X6824809Y-15175381D01*
X6815286Y-15137286D01*
X6815286Y-15089667D01*
X6824809Y-15051571D01*
X6834333Y-15032524D01*
X6843857Y-15023000D01*
X6862905Y-15013476D01*
X7053381Y-15013476D02*
X7072428Y-15013476D01*
X7091476Y-15023000D01*
X7101000Y-15032524D01*
X7110524Y-15051571D01*
X7120048Y-15089667D01*
X7120048Y-15137286D01*
X7110524Y-15175381D01*
X7101000Y-15194428D01*
X7091476Y-15203952D01*
X7072428Y-15213476D01*
X7053381Y-15213476D01*
X7034333Y-15203952D01*
X7024809Y-15194428D01*
X7015286Y-15175381D01*
X7005762Y-15137286D01*
X7005762Y-15089667D01*
X7015286Y-15051571D01*
X7024809Y-15032524D01*
X7034333Y-15023000D01*
X7053381Y-15013476D01*
X7205762Y-15213476D02*
X7205762Y-15080143D01*
X7205762Y-15099190D02*
X7215286Y-15089667D01*
X7234333Y-15080143D01*
X7262905Y-15080143D01*
X7281952Y-15089667D01*
X7291476Y-15108714D01*
X7291476Y-15213476D01*
X7291476Y-15108714D02*
X7301000Y-15089667D01*
X7320048Y-15080143D01*
X7348619Y-15080143D01*
X7367667Y-15089667D01*
X7377190Y-15108714D01*
X7377190Y-15213476D01*
X7472428Y-15213476D02*
X7472428Y-15080143D01*
X7472428Y-15099190D02*
X7481952Y-15089667D01*
X7501000Y-15080143D01*
X7529571Y-15080143D01*
X7548619Y-15089667D01*
X7558143Y-15108714D01*
X7558143Y-15213476D01*
X7558143Y-15108714D02*
X7567667Y-15089667D01*
X7586714Y-15080143D01*
X7615286Y-15080143D01*
X7634333Y-15089667D01*
X7643857Y-15108714D01*
X7643857Y-15213476D01*
X8034333Y-15003952D02*
X7862905Y-15261095D01*
X8291476Y-15013476D02*
X8310524Y-15013476D01*
X8329571Y-15023000D01*
X8339095Y-15032524D01*
X8348619Y-15051571D01*
X8358143Y-15089667D01*
X8358143Y-15137286D01*
X8348619Y-15175381D01*
X8339095Y-15194428D01*
X8329571Y-15203952D01*
X8310524Y-15213476D01*
X8291476Y-15213476D01*
X8272428Y-15203952D01*
X8262905Y-15194428D01*
X8253381Y-15175381D01*
X8243857Y-15137286D01*
X8243857Y-15089667D01*
X8253381Y-15051571D01*
X8262905Y-15032524D01*
X8272428Y-15023000D01*
X8291476Y-15013476D01*
X8443857Y-15194428D02*
X8453381Y-15203952D01*
X8443857Y-15213476D01*
X8434333Y-15203952D01*
X8443857Y-15194428D01*
X8443857Y-15213476D01*
X8577190Y-15013476D02*
X8596238Y-15013476D01*
X8615286Y-15023000D01*
X8624810Y-15032524D01*
X8634333Y-15051571D01*
X8643857Y-15089667D01*
X8643857Y-15137286D01*
X8634333Y-15175381D01*
X8624810Y-15194428D01*
X8615286Y-15203952D01*
X8596238Y-15213476D01*
X8577190Y-15213476D01*
X8558143Y-15203952D01*
X8548619Y-15194428D01*
X8539095Y-15175381D01*
X8529571Y-15137286D01*
X8529571Y-15089667D01*
X8539095Y-15051571D01*
X8548619Y-15032524D01*
X8558143Y-15023000D01*
X8577190Y-15013476D01*
X8834333Y-15213476D02*
X8720048Y-15213476D01*
X8777190Y-15213476D02*
X8777190Y-15013476D01*
X8758143Y-15042048D01*
X8739095Y-15061095D01*
X8720048Y-15070619D01*
X9015286Y-15013476D02*
X8920048Y-15013476D01*
X8910524Y-15108714D01*
X8920048Y-15099190D01*
X8939095Y-15089667D01*
X8986714Y-15089667D01*
X9005762Y-15099190D01*
X9015286Y-15108714D01*
X9024810Y-15127762D01*
X9024810Y-15175381D01*
X9015286Y-15194428D01*
X9005762Y-15203952D01*
X8986714Y-15213476D01*
X8939095Y-15213476D01*
X8920048Y-15203952D01*
X8910524Y-15194428D01*
X9091476Y-15013476D02*
X9224810Y-15013476D01*
X9139095Y-15213476D01*
X9291476Y-15013476D02*
X9291476Y-15051571D01*
X9367667Y-15013476D02*
X9367667Y-15051571D01*
X9662905Y-15289667D02*
X9653381Y-15280143D01*
X9634333Y-15251571D01*
X9624810Y-15232524D01*
X9615286Y-15203952D01*
X9605762Y-15156333D01*
X9605762Y-15118238D01*
X9615286Y-15070619D01*
X9624810Y-15042048D01*
X9634333Y-15023000D01*
X9653381Y-14994428D01*
X9662905Y-14984905D01*
X9729571Y-15032524D02*
X9739095Y-15023000D01*
X9758143Y-15013476D01*
X9805762Y-15013476D01*
X9824810Y-15023000D01*
X9834333Y-15032524D01*
X9843857Y-15051571D01*
X9843857Y-15070619D01*
X9834333Y-15099190D01*
X9720048Y-15213476D01*
X9843857Y-15213476D01*
X9910524Y-15013476D02*
X10034333Y-15013476D01*
X9967667Y-15089667D01*
X9996238Y-15089667D01*
X10015286Y-15099190D01*
X10024810Y-15108714D01*
X10034333Y-15127762D01*
X10034333Y-15175381D01*
X10024810Y-15194428D01*
X10015286Y-15203952D01*
X9996238Y-15213476D01*
X9939095Y-15213476D01*
X9920048Y-15203952D01*
X9910524Y-15194428D01*
X10272429Y-15213476D02*
X10272429Y-15013476D01*
X10358143Y-15213476D02*
X10358143Y-15108714D01*
X10348619Y-15089667D01*
X10329571Y-15080143D01*
X10301000Y-15080143D01*
X10281952Y-15089667D01*
X10272429Y-15099190D01*
X10481952Y-15213476D02*
X10462905Y-15203952D01*
X10453381Y-15194428D01*
X10443857Y-15175381D01*
X10443857Y-15118238D01*
X10453381Y-15099190D01*
X10462905Y-15089667D01*
X10481952Y-15080143D01*
X10510524Y-15080143D01*
X10529571Y-15089667D01*
X10539095Y-15099190D01*
X10548619Y-15118238D01*
X10548619Y-15175381D01*
X10539095Y-15194428D01*
X10529571Y-15203952D01*
X10510524Y-15213476D01*
X10481952Y-15213476D01*
X10662905Y-15213476D02*
X10643857Y-15203952D01*
X10634333Y-15184905D01*
X10634333Y-15013476D01*
X10815286Y-15203952D02*
X10796238Y-15213476D01*
X10758143Y-15213476D01*
X10739095Y-15203952D01*
X10729571Y-15184905D01*
X10729571Y-15108714D01*
X10739095Y-15089667D01*
X10758143Y-15080143D01*
X10796238Y-15080143D01*
X10815286Y-15089667D01*
X10824810Y-15108714D01*
X10824810Y-15127762D01*
X10729571Y-15146809D01*
X10901000Y-15203952D02*
X10920048Y-15213476D01*
X10958143Y-15213476D01*
X10977190Y-15203952D01*
X10986714Y-15184905D01*
X10986714Y-15175381D01*
X10977190Y-15156333D01*
X10958143Y-15146809D01*
X10929571Y-15146809D01*
X10910524Y-15137286D01*
X10901000Y-15118238D01*
X10901000Y-15108714D01*
X10910524Y-15089667D01*
X10929571Y-15080143D01*
X10958143Y-15080143D01*
X10977190Y-15089667D01*
X11053381Y-15289667D02*
X11062905Y-15280143D01*
X11081952Y-15251571D01*
X11091476Y-15232524D01*
X11101000Y-15203952D01*
X11110524Y-15156333D01*
X11110524Y-15118238D01*
X11101000Y-15070619D01*
X11091476Y-15042048D01*
X11081952Y-15023000D01*
X11062905Y-14994428D01*
X11053381Y-14984905D01*
D13*
X6091000Y-15387000D02*
G75*
G03*
X6091000Y-15387000I-40000J0D01*
G01*
D11*
X6386714Y-15277476D02*
X6405762Y-15277476D01*
X6424809Y-15287000D01*
X6434333Y-15296524D01*
X6443857Y-15315571D01*
X6453381Y-15353667D01*
X6453381Y-15401286D01*
X6443857Y-15439381D01*
X6434333Y-15458428D01*
X6424809Y-15467952D01*
X6405762Y-15477476D01*
X6386714Y-15477476D01*
X6367667Y-15467952D01*
X6358143Y-15458428D01*
X6348619Y-15439381D01*
X6339095Y-15401286D01*
X6339095Y-15353667D01*
X6348619Y-15315571D01*
X6358143Y-15296524D01*
X6367667Y-15287000D01*
X6386714Y-15277476D01*
X6539095Y-15458428D02*
X6548619Y-15467952D01*
X6539095Y-15477476D01*
X6529571Y-15467952D01*
X6539095Y-15458428D01*
X6539095Y-15477476D01*
X6662905Y-15363190D02*
X6643857Y-15353667D01*
X6634333Y-15344143D01*
X6624809Y-15325095D01*
X6624809Y-15315571D01*
X6634333Y-15296524D01*
X6643857Y-15287000D01*
X6662905Y-15277476D01*
X6701000Y-15277476D01*
X6720048Y-15287000D01*
X6729571Y-15296524D01*
X6739095Y-15315571D01*
X6739095Y-15325095D01*
X6729571Y-15344143D01*
X6720048Y-15353667D01*
X6701000Y-15363190D01*
X6662905Y-15363190D01*
X6643857Y-15372714D01*
X6634333Y-15382238D01*
X6624809Y-15401286D01*
X6624809Y-15439381D01*
X6634333Y-15458428D01*
X6643857Y-15467952D01*
X6662905Y-15477476D01*
X6701000Y-15477476D01*
X6720048Y-15467952D01*
X6729571Y-15458428D01*
X6739095Y-15439381D01*
X6739095Y-15401286D01*
X6729571Y-15382238D01*
X6720048Y-15372714D01*
X6701000Y-15363190D01*
X6862905Y-15277476D02*
X6881952Y-15277476D01*
X6901000Y-15287000D01*
X6910524Y-15296524D01*
X6920048Y-15315571D01*
X6929571Y-15353667D01*
X6929571Y-15401286D01*
X6920048Y-15439381D01*
X6910524Y-15458428D01*
X6901000Y-15467952D01*
X6881952Y-15477476D01*
X6862905Y-15477476D01*
X6843857Y-15467952D01*
X6834333Y-15458428D01*
X6824809Y-15439381D01*
X6815286Y-15401286D01*
X6815286Y-15353667D01*
X6824809Y-15315571D01*
X6834333Y-15296524D01*
X6843857Y-15287000D01*
X6862905Y-15277476D01*
X7053381Y-15277476D02*
X7072428Y-15277476D01*
X7091476Y-15287000D01*
X7101000Y-15296524D01*
X7110524Y-15315571D01*
X7120048Y-15353667D01*
X7120048Y-15401286D01*
X7110524Y-15439381D01*
X7101000Y-15458428D01*
X7091476Y-15467952D01*
X7072428Y-15477476D01*
X7053381Y-15477476D01*
X7034333Y-15467952D01*
X7024809Y-15458428D01*
X7015286Y-15439381D01*
X7005762Y-15401286D01*
X7005762Y-15353667D01*
X7015286Y-15315571D01*
X7024809Y-15296524D01*
X7034333Y-15287000D01*
X7053381Y-15277476D01*
X7205762Y-15477476D02*
X7205762Y-15344143D01*
X7205762Y-15363190D02*
X7215286Y-15353667D01*
X7234333Y-15344143D01*
X7262905Y-15344143D01*
X7281952Y-15353667D01*
X7291476Y-15372714D01*
X7291476Y-15477476D01*
X7291476Y-15372714D02*
X7301000Y-15353667D01*
X7320048Y-15344143D01*
X7348619Y-15344143D01*
X7367667Y-15353667D01*
X7377190Y-15372714D01*
X7377190Y-15477476D01*
X7472428Y-15477476D02*
X7472428Y-15344143D01*
X7472428Y-15363190D02*
X7481952Y-15353667D01*
X7501000Y-15344143D01*
X7529571Y-15344143D01*
X7548619Y-15353667D01*
X7558143Y-15372714D01*
X7558143Y-15477476D01*
X7558143Y-15372714D02*
X7567667Y-15353667D01*
X7586714Y-15344143D01*
X7615286Y-15344143D01*
X7634333Y-15353667D01*
X7643857Y-15372714D01*
X7643857Y-15477476D01*
X8034333Y-15267952D02*
X7862905Y-15525095D01*
X8291476Y-15277476D02*
X8310524Y-15277476D01*
X8329571Y-15287000D01*
X8339095Y-15296524D01*
X8348619Y-15315571D01*
X8358143Y-15353667D01*
X8358143Y-15401286D01*
X8348619Y-15439381D01*
X8339095Y-15458428D01*
X8329571Y-15467952D01*
X8310524Y-15477476D01*
X8291476Y-15477476D01*
X8272428Y-15467952D01*
X8262905Y-15458428D01*
X8253381Y-15439381D01*
X8243857Y-15401286D01*
X8243857Y-15353667D01*
X8253381Y-15315571D01*
X8262905Y-15296524D01*
X8272428Y-15287000D01*
X8291476Y-15277476D01*
X8443857Y-15458428D02*
X8453381Y-15467952D01*
X8443857Y-15477476D01*
X8434333Y-15467952D01*
X8443857Y-15458428D01*
X8443857Y-15477476D01*
X8577190Y-15277476D02*
X8596238Y-15277476D01*
X8615286Y-15287000D01*
X8624810Y-15296524D01*
X8634333Y-15315571D01*
X8643857Y-15353667D01*
X8643857Y-15401286D01*
X8634333Y-15439381D01*
X8624810Y-15458428D01*
X8615286Y-15467952D01*
X8596238Y-15477476D01*
X8577190Y-15477476D01*
X8558143Y-15467952D01*
X8548619Y-15458428D01*
X8539095Y-15439381D01*
X8529571Y-15401286D01*
X8529571Y-15353667D01*
X8539095Y-15315571D01*
X8548619Y-15296524D01*
X8558143Y-15287000D01*
X8577190Y-15277476D01*
X8710524Y-15277476D02*
X8834333Y-15277476D01*
X8767667Y-15353667D01*
X8796238Y-15353667D01*
X8815286Y-15363190D01*
X8824810Y-15372714D01*
X8834333Y-15391762D01*
X8834333Y-15439381D01*
X8824810Y-15458428D01*
X8815286Y-15467952D01*
X8796238Y-15477476D01*
X8739095Y-15477476D01*
X8720048Y-15467952D01*
X8710524Y-15458428D01*
X9024810Y-15477476D02*
X8910524Y-15477476D01*
X8967667Y-15477476D02*
X8967667Y-15277476D01*
X8948619Y-15306048D01*
X8929571Y-15325095D01*
X8910524Y-15334619D01*
X9205762Y-15277476D02*
X9110524Y-15277476D01*
X9101000Y-15372714D01*
X9110524Y-15363190D01*
X9129571Y-15353667D01*
X9177190Y-15353667D01*
X9196238Y-15363190D01*
X9205762Y-15372714D01*
X9215286Y-15391762D01*
X9215286Y-15439381D01*
X9205762Y-15458428D01*
X9196238Y-15467952D01*
X9177190Y-15477476D01*
X9129571Y-15477476D01*
X9110524Y-15467952D01*
X9101000Y-15458428D01*
X9291476Y-15277476D02*
X9291476Y-15315571D01*
X9367667Y-15277476D02*
X9367667Y-15315571D01*
X9662905Y-15553667D02*
X9653381Y-15544143D01*
X9634333Y-15515571D01*
X9624810Y-15496524D01*
X9615286Y-15467952D01*
X9605762Y-15420333D01*
X9605762Y-15382238D01*
X9615286Y-15334619D01*
X9624810Y-15306048D01*
X9634333Y-15287000D01*
X9653381Y-15258428D01*
X9662905Y-15248905D01*
X9843857Y-15477476D02*
X9729571Y-15477476D01*
X9786714Y-15477476D02*
X9786714Y-15277476D01*
X9767667Y-15306048D01*
X9748619Y-15325095D01*
X9729571Y-15334619D01*
X10015286Y-15277476D02*
X9977190Y-15277476D01*
X9958143Y-15287000D01*
X9948619Y-15296524D01*
X9929571Y-15325095D01*
X9920048Y-15363190D01*
X9920048Y-15439381D01*
X9929571Y-15458428D01*
X9939095Y-15467952D01*
X9958143Y-15477476D01*
X9996238Y-15477476D01*
X10015286Y-15467952D01*
X10024810Y-15458428D01*
X10034333Y-15439381D01*
X10034333Y-15391762D01*
X10024810Y-15372714D01*
X10015286Y-15363190D01*
X9996238Y-15353667D01*
X9958143Y-15353667D01*
X9939095Y-15363190D01*
X9929571Y-15372714D01*
X9920048Y-15391762D01*
X10272429Y-15477476D02*
X10272429Y-15277476D01*
X10358143Y-15477476D02*
X10358143Y-15372714D01*
X10348619Y-15353667D01*
X10329571Y-15344143D01*
X10301000Y-15344143D01*
X10281952Y-15353667D01*
X10272429Y-15363190D01*
X10481952Y-15477476D02*
X10462905Y-15467952D01*
X10453381Y-15458428D01*
X10443857Y-15439381D01*
X10443857Y-15382238D01*
X10453381Y-15363190D01*
X10462905Y-15353667D01*
X10481952Y-15344143D01*
X10510524Y-15344143D01*
X10529571Y-15353667D01*
X10539095Y-15363190D01*
X10548619Y-15382238D01*
X10548619Y-15439381D01*
X10539095Y-15458428D01*
X10529571Y-15467952D01*
X10510524Y-15477476D01*
X10481952Y-15477476D01*
X10662905Y-15477476D02*
X10643857Y-15467952D01*
X10634333Y-15448905D01*
X10634333Y-15277476D01*
X10815286Y-15467952D02*
X10796238Y-15477476D01*
X10758143Y-15477476D01*
X10739095Y-15467952D01*
X10729571Y-15448905D01*
X10729571Y-15372714D01*
X10739095Y-15353667D01*
X10758143Y-15344143D01*
X10796238Y-15344143D01*
X10815286Y-15353667D01*
X10824810Y-15372714D01*
X10824810Y-15391762D01*
X10729571Y-15410809D01*
X10901000Y-15467952D02*
X10920048Y-15477476D01*
X10958143Y-15477476D01*
X10977190Y-15467952D01*
X10986714Y-15448905D01*
X10986714Y-15439381D01*
X10977190Y-15420333D01*
X10958143Y-15410809D01*
X10929571Y-15410809D01*
X10910524Y-15401286D01*
X10901000Y-15382238D01*
X10901000Y-15372714D01*
X10910524Y-15353667D01*
X10929571Y-15344143D01*
X10958143Y-15344143D01*
X10977190Y-15353667D01*
X11053381Y-15553667D02*
X11062905Y-15544143D01*
X11081952Y-15515571D01*
X11091476Y-15496524D01*
X11101000Y-15467952D01*
X11110524Y-15420333D01*
X11110524Y-15382238D01*
X11101000Y-15334619D01*
X11091476Y-15306048D01*
X11081952Y-15287000D01*
X11062905Y-15258428D01*
X11053381Y-15248905D01*
D14*
X6046000Y-15606000D02*
X6046000Y-15696000D01*
X6001000Y-15651000D02*
X6091000Y-15651000D01*
D11*
X6386714Y-15541476D02*
X6405762Y-15541476D01*
X6424809Y-15551000D01*
X6434333Y-15560524D01*
X6443857Y-15579571D01*
X6453381Y-15617667D01*
X6453381Y-15665286D01*
X6443857Y-15703381D01*
X6434333Y-15722428D01*
X6424809Y-15731952D01*
X6405762Y-15741476D01*
X6386714Y-15741476D01*
X6367667Y-15731952D01*
X6358143Y-15722428D01*
X6348619Y-15703381D01*
X6339095Y-15665286D01*
X6339095Y-15617667D01*
X6348619Y-15579571D01*
X6358143Y-15560524D01*
X6367667Y-15551000D01*
X6386714Y-15541476D01*
X6539095Y-15722428D02*
X6548619Y-15731952D01*
X6539095Y-15741476D01*
X6529571Y-15731952D01*
X6539095Y-15722428D01*
X6539095Y-15741476D01*
X6643857Y-15741476D02*
X6681952Y-15741476D01*
X6701000Y-15731952D01*
X6710524Y-15722428D01*
X6729571Y-15693857D01*
X6739095Y-15655762D01*
X6739095Y-15579571D01*
X6729571Y-15560524D01*
X6720048Y-15551000D01*
X6701000Y-15541476D01*
X6662905Y-15541476D01*
X6643857Y-15551000D01*
X6634333Y-15560524D01*
X6624809Y-15579571D01*
X6624809Y-15627190D01*
X6634333Y-15646238D01*
X6643857Y-15655762D01*
X6662905Y-15665286D01*
X6701000Y-15665286D01*
X6720048Y-15655762D01*
X6729571Y-15646238D01*
X6739095Y-15627190D01*
X6862905Y-15541476D02*
X6881952Y-15541476D01*
X6901000Y-15551000D01*
X6910524Y-15560524D01*
X6920048Y-15579571D01*
X6929571Y-15617667D01*
X6929571Y-15665286D01*
X6920048Y-15703381D01*
X6910524Y-15722428D01*
X6901000Y-15731952D01*
X6881952Y-15741476D01*
X6862905Y-15741476D01*
X6843857Y-15731952D01*
X6834333Y-15722428D01*
X6824809Y-15703381D01*
X6815286Y-15665286D01*
X6815286Y-15617667D01*
X6824809Y-15579571D01*
X6834333Y-15560524D01*
X6843857Y-15551000D01*
X6862905Y-15541476D01*
X7053381Y-15541476D02*
X7072428Y-15541476D01*
X7091476Y-15551000D01*
X7101000Y-15560524D01*
X7110524Y-15579571D01*
X7120048Y-15617667D01*
X7120048Y-15665286D01*
X7110524Y-15703381D01*
X7101000Y-15722428D01*
X7091476Y-15731952D01*
X7072428Y-15741476D01*
X7053381Y-15741476D01*
X7034333Y-15731952D01*
X7024809Y-15722428D01*
X7015286Y-15703381D01*
X7005762Y-15665286D01*
X7005762Y-15617667D01*
X7015286Y-15579571D01*
X7024809Y-15560524D01*
X7034333Y-15551000D01*
X7053381Y-15541476D01*
X7205762Y-15741476D02*
X7205762Y-15608143D01*
X7205762Y-15627190D02*
X7215286Y-15617667D01*
X7234333Y-15608143D01*
X7262905Y-15608143D01*
X7281952Y-15617667D01*
X7291476Y-15636714D01*
X7291476Y-15741476D01*
X7291476Y-15636714D02*
X7301000Y-15617667D01*
X7320048Y-15608143D01*
X7348619Y-15608143D01*
X7367667Y-15617667D01*
X7377190Y-15636714D01*
X7377190Y-15741476D01*
X7472428Y-15741476D02*
X7472428Y-15608143D01*
X7472428Y-15627190D02*
X7481952Y-15617667D01*
X7501000Y-15608143D01*
X7529571Y-15608143D01*
X7548619Y-15617667D01*
X7558143Y-15636714D01*
X7558143Y-15741476D01*
X7558143Y-15636714D02*
X7567667Y-15617667D01*
X7586714Y-15608143D01*
X7615286Y-15608143D01*
X7634333Y-15617667D01*
X7643857Y-15636714D01*
X7643857Y-15741476D01*
X8034333Y-15531952D02*
X7862905Y-15789095D01*
X8291476Y-15541476D02*
X8310524Y-15541476D01*
X8329571Y-15551000D01*
X8339095Y-15560524D01*
X8348619Y-15579571D01*
X8358143Y-15617667D01*
X8358143Y-15665286D01*
X8348619Y-15703381D01*
X8339095Y-15722428D01*
X8329571Y-15731952D01*
X8310524Y-15741476D01*
X8291476Y-15741476D01*
X8272428Y-15731952D01*
X8262905Y-15722428D01*
X8253381Y-15703381D01*
X8243857Y-15665286D01*
X8243857Y-15617667D01*
X8253381Y-15579571D01*
X8262905Y-15560524D01*
X8272428Y-15551000D01*
X8291476Y-15541476D01*
X8443857Y-15722428D02*
X8453381Y-15731952D01*
X8443857Y-15741476D01*
X8434333Y-15731952D01*
X8443857Y-15722428D01*
X8443857Y-15741476D01*
X8577190Y-15541476D02*
X8596238Y-15541476D01*
X8615286Y-15551000D01*
X8624810Y-15560524D01*
X8634333Y-15579571D01*
X8643857Y-15617667D01*
X8643857Y-15665286D01*
X8634333Y-15703381D01*
X8624810Y-15722428D01*
X8615286Y-15731952D01*
X8596238Y-15741476D01*
X8577190Y-15741476D01*
X8558143Y-15731952D01*
X8548619Y-15722428D01*
X8539095Y-15703381D01*
X8529571Y-15665286D01*
X8529571Y-15617667D01*
X8539095Y-15579571D01*
X8548619Y-15560524D01*
X8558143Y-15551000D01*
X8577190Y-15541476D01*
X8710524Y-15541476D02*
X8834333Y-15541476D01*
X8767667Y-15617667D01*
X8796238Y-15617667D01*
X8815286Y-15627190D01*
X8824810Y-15636714D01*
X8834333Y-15655762D01*
X8834333Y-15703381D01*
X8824810Y-15722428D01*
X8815286Y-15731952D01*
X8796238Y-15741476D01*
X8739095Y-15741476D01*
X8720048Y-15731952D01*
X8710524Y-15722428D01*
X9015286Y-15541476D02*
X8920048Y-15541476D01*
X8910524Y-15636714D01*
X8920048Y-15627190D01*
X8939095Y-15617667D01*
X8986714Y-15617667D01*
X9005762Y-15627190D01*
X9015286Y-15636714D01*
X9024810Y-15655762D01*
X9024810Y-15703381D01*
X9015286Y-15722428D01*
X9005762Y-15731952D01*
X8986714Y-15741476D01*
X8939095Y-15741476D01*
X8920048Y-15731952D01*
X8910524Y-15722428D01*
X9196238Y-15608143D02*
X9196238Y-15741476D01*
X9148619Y-15531952D02*
X9101000Y-15674809D01*
X9224810Y-15674809D01*
X9291476Y-15541476D02*
X9291476Y-15579571D01*
X9367667Y-15541476D02*
X9367667Y-15579571D01*
X9662905Y-15817667D02*
X9653381Y-15808143D01*
X9634333Y-15779571D01*
X9624810Y-15760524D01*
X9615286Y-15731952D01*
X9605762Y-15684333D01*
X9605762Y-15646238D01*
X9615286Y-15598619D01*
X9624810Y-15570048D01*
X9634333Y-15551000D01*
X9653381Y-15522428D01*
X9662905Y-15512905D01*
X9729571Y-15560524D02*
X9739095Y-15551000D01*
X9758143Y-15541476D01*
X9805762Y-15541476D01*
X9824810Y-15551000D01*
X9834333Y-15560524D01*
X9843857Y-15579571D01*
X9843857Y-15598619D01*
X9834333Y-15627190D01*
X9720048Y-15741476D01*
X9843857Y-15741476D01*
X10081952Y-15741476D02*
X10081952Y-15541476D01*
X10167667Y-15741476D02*
X10167667Y-15636714D01*
X10158143Y-15617667D01*
X10139095Y-15608143D01*
X10110524Y-15608143D01*
X10091476Y-15617667D01*
X10081952Y-15627190D01*
X10291476Y-15741476D02*
X10272429Y-15731952D01*
X10262905Y-15722428D01*
X10253381Y-15703381D01*
X10253381Y-15646238D01*
X10262905Y-15627190D01*
X10272429Y-15617667D01*
X10291476Y-15608143D01*
X10320048Y-15608143D01*
X10339095Y-15617667D01*
X10348619Y-15627190D01*
X10358143Y-15646238D01*
X10358143Y-15703381D01*
X10348619Y-15722428D01*
X10339095Y-15731952D01*
X10320048Y-15741476D01*
X10291476Y-15741476D01*
X10472429Y-15741476D02*
X10453381Y-15731952D01*
X10443857Y-15712905D01*
X10443857Y-15541476D01*
X10624810Y-15731952D02*
X10605762Y-15741476D01*
X10567667Y-15741476D01*
X10548619Y-15731952D01*
X10539095Y-15712905D01*
X10539095Y-15636714D01*
X10548619Y-15617667D01*
X10567667Y-15608143D01*
X10605762Y-15608143D01*
X10624810Y-15617667D01*
X10634333Y-15636714D01*
X10634333Y-15655762D01*
X10539095Y-15674809D01*
X10710524Y-15731952D02*
X10729571Y-15741476D01*
X10767667Y-15741476D01*
X10786714Y-15731952D01*
X10796238Y-15712905D01*
X10796238Y-15703381D01*
X10786714Y-15684333D01*
X10767667Y-15674809D01*
X10739095Y-15674809D01*
X10720048Y-15665286D01*
X10710524Y-15646238D01*
X10710524Y-15636714D01*
X10720048Y-15617667D01*
X10739095Y-15608143D01*
X10767667Y-15608143D01*
X10786714Y-15617667D01*
X10862905Y-15817667D02*
X10872429Y-15808143D01*
X10891476Y-15779571D01*
X10901000Y-15760524D01*
X10910524Y-15731952D01*
X10920048Y-15684333D01*
X10920048Y-15646238D01*
X10910524Y-15598619D01*
X10901000Y-15570048D01*
X10891476Y-15551000D01*
X10872429Y-15522428D01*
X10862905Y-15512905D01*
D10*
X6076356Y-15950356D02*
X6076356Y-15879644D01*
X6005644Y-15879644D01*
X6005644Y-15950356D01*
X6076356Y-15950356D01*
D11*
X6453381Y-16005476D02*
X6339095Y-16005476D01*
X6396238Y-16005476D02*
X6396238Y-15805476D01*
X6377190Y-15834048D01*
X6358143Y-15853095D01*
X6339095Y-15862619D01*
X6539095Y-15986428D02*
X6548619Y-15995952D01*
X6539095Y-16005476D01*
X6529571Y-15995952D01*
X6539095Y-15986428D01*
X6539095Y-16005476D01*
X6672428Y-15805476D02*
X6691476Y-15805476D01*
X6710524Y-15815000D01*
X6720048Y-15824524D01*
X6729571Y-15843571D01*
X6739095Y-15881667D01*
X6739095Y-15929286D01*
X6729571Y-15967381D01*
X6720048Y-15986428D01*
X6710524Y-15995952D01*
X6691476Y-16005476D01*
X6672428Y-16005476D01*
X6653381Y-15995952D01*
X6643857Y-15986428D01*
X6634333Y-15967381D01*
X6624809Y-15929286D01*
X6624809Y-15881667D01*
X6634333Y-15843571D01*
X6643857Y-15824524D01*
X6653381Y-15815000D01*
X6672428Y-15805476D01*
X6862905Y-15805476D02*
X6881952Y-15805476D01*
X6901000Y-15815000D01*
X6910524Y-15824524D01*
X6920048Y-15843571D01*
X6929571Y-15881667D01*
X6929571Y-15929286D01*
X6920048Y-15967381D01*
X6910524Y-15986428D01*
X6901000Y-15995952D01*
X6881952Y-16005476D01*
X6862905Y-16005476D01*
X6843857Y-15995952D01*
X6834333Y-15986428D01*
X6824809Y-15967381D01*
X6815286Y-15929286D01*
X6815286Y-15881667D01*
X6824809Y-15843571D01*
X6834333Y-15824524D01*
X6843857Y-15815000D01*
X6862905Y-15805476D01*
X7053381Y-15805476D02*
X7072428Y-15805476D01*
X7091476Y-15815000D01*
X7101000Y-15824524D01*
X7110524Y-15843571D01*
X7120048Y-15881667D01*
X7120048Y-15929286D01*
X7110524Y-15967381D01*
X7101000Y-15986428D01*
X7091476Y-15995952D01*
X7072428Y-16005476D01*
X7053381Y-16005476D01*
X7034333Y-15995952D01*
X7024809Y-15986428D01*
X7015286Y-15967381D01*
X7005762Y-15929286D01*
X7005762Y-15881667D01*
X7015286Y-15843571D01*
X7024809Y-15824524D01*
X7034333Y-15815000D01*
X7053381Y-15805476D01*
X7205762Y-16005476D02*
X7205762Y-15872143D01*
X7205762Y-15891190D02*
X7215286Y-15881667D01*
X7234333Y-15872143D01*
X7262905Y-15872143D01*
X7281952Y-15881667D01*
X7291476Y-15900714D01*
X7291476Y-16005476D01*
X7291476Y-15900714D02*
X7301000Y-15881667D01*
X7320048Y-15872143D01*
X7348619Y-15872143D01*
X7367667Y-15881667D01*
X7377190Y-15900714D01*
X7377190Y-16005476D01*
X7472428Y-16005476D02*
X7472428Y-15872143D01*
X7472428Y-15891190D02*
X7481952Y-15881667D01*
X7501000Y-15872143D01*
X7529571Y-15872143D01*
X7548619Y-15881667D01*
X7558143Y-15900714D01*
X7558143Y-16005476D01*
X7558143Y-15900714D02*
X7567667Y-15881667D01*
X7586714Y-15872143D01*
X7615286Y-15872143D01*
X7634333Y-15881667D01*
X7643857Y-15900714D01*
X7643857Y-16005476D01*
X8034333Y-15795952D02*
X7862905Y-16053095D01*
X8291476Y-15805476D02*
X8310524Y-15805476D01*
X8329571Y-15815000D01*
X8339095Y-15824524D01*
X8348619Y-15843571D01*
X8358143Y-15881667D01*
X8358143Y-15929286D01*
X8348619Y-15967381D01*
X8339095Y-15986428D01*
X8329571Y-15995952D01*
X8310524Y-16005476D01*
X8291476Y-16005476D01*
X8272428Y-15995952D01*
X8262905Y-15986428D01*
X8253381Y-15967381D01*
X8243857Y-15929286D01*
X8243857Y-15881667D01*
X8253381Y-15843571D01*
X8262905Y-15824524D01*
X8272428Y-15815000D01*
X8291476Y-15805476D01*
X8443857Y-15986428D02*
X8453381Y-15995952D01*
X8443857Y-16005476D01*
X8434333Y-15995952D01*
X8443857Y-15986428D01*
X8443857Y-16005476D01*
X8577190Y-15805476D02*
X8596238Y-15805476D01*
X8615286Y-15815000D01*
X8624810Y-15824524D01*
X8634333Y-15843571D01*
X8643857Y-15881667D01*
X8643857Y-15929286D01*
X8634333Y-15967381D01*
X8624810Y-15986428D01*
X8615286Y-15995952D01*
X8596238Y-16005476D01*
X8577190Y-16005476D01*
X8558143Y-15995952D01*
X8548619Y-15986428D01*
X8539095Y-15967381D01*
X8529571Y-15929286D01*
X8529571Y-15881667D01*
X8539095Y-15843571D01*
X8548619Y-15824524D01*
X8558143Y-15815000D01*
X8577190Y-15805476D01*
X8710524Y-15805476D02*
X8834333Y-15805476D01*
X8767667Y-15881667D01*
X8796238Y-15881667D01*
X8815286Y-15891190D01*
X8824810Y-15900714D01*
X8834333Y-15919762D01*
X8834333Y-15967381D01*
X8824810Y-15986428D01*
X8815286Y-15995952D01*
X8796238Y-16005476D01*
X8739095Y-16005476D01*
X8720048Y-15995952D01*
X8710524Y-15986428D01*
X8929571Y-16005476D02*
X8967667Y-16005476D01*
X8986714Y-15995952D01*
X8996238Y-15986428D01*
X9015286Y-15957857D01*
X9024810Y-15919762D01*
X9024810Y-15843571D01*
X9015286Y-15824524D01*
X9005762Y-15815000D01*
X8986714Y-15805476D01*
X8948619Y-15805476D01*
X8929571Y-15815000D01*
X8920048Y-15824524D01*
X8910524Y-15843571D01*
X8910524Y-15891190D01*
X8920048Y-15910238D01*
X8929571Y-15919762D01*
X8948619Y-15929286D01*
X8986714Y-15929286D01*
X9005762Y-15919762D01*
X9015286Y-15910238D01*
X9024810Y-15891190D01*
X9196238Y-15872143D02*
X9196238Y-16005476D01*
X9148619Y-15795952D02*
X9101000Y-15938809D01*
X9224810Y-15938809D01*
X9291476Y-15805476D02*
X9291476Y-15843571D01*
X9367667Y-15805476D02*
X9367667Y-15843571D01*
X9662905Y-16081667D02*
X9653381Y-16072143D01*
X9634333Y-16043571D01*
X9624810Y-16024524D01*
X9615286Y-15995952D01*
X9605762Y-15948333D01*
X9605762Y-15910238D01*
X9615286Y-15862619D01*
X9624810Y-15834048D01*
X9634333Y-15815000D01*
X9653381Y-15786428D01*
X9662905Y-15776905D01*
X9720048Y-15805476D02*
X9853381Y-15805476D01*
X9767667Y-16005476D01*
X9939095Y-16005476D02*
X9977190Y-16005476D01*
X9996238Y-15995952D01*
X10005762Y-15986428D01*
X10024810Y-15957857D01*
X10034333Y-15919762D01*
X10034333Y-15843571D01*
X10024810Y-15824524D01*
X10015286Y-15815000D01*
X9996238Y-15805476D01*
X9958143Y-15805476D01*
X9939095Y-15815000D01*
X9929571Y-15824524D01*
X9920048Y-15843571D01*
X9920048Y-15891190D01*
X9929571Y-15910238D01*
X9939095Y-15919762D01*
X9958143Y-15929286D01*
X9996238Y-15929286D01*
X10015286Y-15919762D01*
X10024810Y-15910238D01*
X10034333Y-15891190D01*
X10272429Y-16005476D02*
X10272429Y-15805476D01*
X10358143Y-16005476D02*
X10358143Y-15900714D01*
X10348619Y-15881667D01*
X10329571Y-15872143D01*
X10301000Y-15872143D01*
X10281952Y-15881667D01*
X10272429Y-15891190D01*
X10481952Y-16005476D02*
X10462905Y-15995952D01*
X10453381Y-15986428D01*
X10443857Y-15967381D01*
X10443857Y-15910238D01*
X10453381Y-15891190D01*
X10462905Y-15881667D01*
X10481952Y-15872143D01*
X10510524Y-15872143D01*
X10529571Y-15881667D01*
X10539095Y-15891190D01*
X10548619Y-15910238D01*
X10548619Y-15967381D01*
X10539095Y-15986428D01*
X10529571Y-15995952D01*
X10510524Y-16005476D01*
X10481952Y-16005476D01*
X10662905Y-16005476D02*
X10643857Y-15995952D01*
X10634333Y-15976905D01*
X10634333Y-15805476D01*
X10815286Y-15995952D02*
X10796238Y-16005476D01*
X10758143Y-16005476D01*
X10739095Y-15995952D01*
X10729571Y-15976905D01*
X10729571Y-15900714D01*
X10739095Y-15881667D01*
X10758143Y-15872143D01*
X10796238Y-15872143D01*
X10815286Y-15881667D01*
X10824810Y-15900714D01*
X10824810Y-15919762D01*
X10729571Y-15938809D01*
X10901000Y-15995952D02*
X10920048Y-16005476D01*
X10958143Y-16005476D01*
X10977190Y-15995952D01*
X10986714Y-15976905D01*
X10986714Y-15967381D01*
X10977190Y-15948333D01*
X10958143Y-15938809D01*
X10929571Y-15938809D01*
X10910524Y-15929286D01*
X10901000Y-15910238D01*
X10901000Y-15900714D01*
X10910524Y-15881667D01*
X10929571Y-15872143D01*
X10958143Y-15872143D01*
X10977190Y-15881667D01*
X11053381Y-16081667D02*
X11062905Y-16072143D01*
X11081952Y-16043571D01*
X11091476Y-16024524D01*
X11101000Y-15995952D01*
X11110524Y-15948333D01*
X11110524Y-15910238D01*
X11101000Y-15862619D01*
X11091476Y-15834048D01*
X11081952Y-15815000D01*
X11062905Y-15786428D01*
X11053381Y-15776905D01*
D15*
X6016000Y-16254000D02*
X6091000Y-16179000D01*
X6016000Y-16104000D01*
X5941000Y-16179000D01*
X6016000Y-16254000D01*
D11*
X6453381Y-16269476D02*
X6339095Y-16269476D01*
X6396238Y-16269476D02*
X6396238Y-16069476D01*
X6377190Y-16098048D01*
X6358143Y-16117095D01*
X6339095Y-16126619D01*
X6539095Y-16250428D02*
X6548619Y-16259952D01*
X6539095Y-16269476D01*
X6529571Y-16259952D01*
X6539095Y-16250428D01*
X6539095Y-16269476D01*
X6729571Y-16069476D02*
X6634333Y-16069476D01*
X6624809Y-16164714D01*
X6634333Y-16155190D01*
X6653381Y-16145667D01*
X6701000Y-16145667D01*
X6720048Y-16155190D01*
X6729571Y-16164714D01*
X6739095Y-16183762D01*
X6739095Y-16231381D01*
X6729571Y-16250428D01*
X6720048Y-16259952D01*
X6701000Y-16269476D01*
X6653381Y-16269476D01*
X6634333Y-16259952D01*
X6624809Y-16250428D01*
X6862905Y-16069476D02*
X6881952Y-16069476D01*
X6901000Y-16079000D01*
X6910524Y-16088524D01*
X6920048Y-16107571D01*
X6929571Y-16145667D01*
X6929571Y-16193286D01*
X6920048Y-16231381D01*
X6910524Y-16250428D01*
X6901000Y-16259952D01*
X6881952Y-16269476D01*
X6862905Y-16269476D01*
X6843857Y-16259952D01*
X6834333Y-16250428D01*
X6824809Y-16231381D01*
X6815286Y-16193286D01*
X6815286Y-16145667D01*
X6824809Y-16107571D01*
X6834333Y-16088524D01*
X6843857Y-16079000D01*
X6862905Y-16069476D01*
X7053381Y-16069476D02*
X7072428Y-16069476D01*
X7091476Y-16079000D01*
X7101000Y-16088524D01*
X7110524Y-16107571D01*
X7120048Y-16145667D01*
X7120048Y-16193286D01*
X7110524Y-16231381D01*
X7101000Y-16250428D01*
X7091476Y-16259952D01*
X7072428Y-16269476D01*
X7053381Y-16269476D01*
X7034333Y-16259952D01*
X7024809Y-16250428D01*
X7015286Y-16231381D01*
X7005762Y-16193286D01*
X7005762Y-16145667D01*
X7015286Y-16107571D01*
X7024809Y-16088524D01*
X7034333Y-16079000D01*
X7053381Y-16069476D01*
X7205762Y-16269476D02*
X7205762Y-16136143D01*
X7205762Y-16155190D02*
X7215286Y-16145667D01*
X7234333Y-16136143D01*
X7262905Y-16136143D01*
X7281952Y-16145667D01*
X7291476Y-16164714D01*
X7291476Y-16269476D01*
X7291476Y-16164714D02*
X7301000Y-16145667D01*
X7320048Y-16136143D01*
X7348619Y-16136143D01*
X7367667Y-16145667D01*
X7377190Y-16164714D01*
X7377190Y-16269476D01*
X7472428Y-16269476D02*
X7472428Y-16136143D01*
X7472428Y-16155190D02*
X7481952Y-16145667D01*
X7501000Y-16136143D01*
X7529571Y-16136143D01*
X7548619Y-16145667D01*
X7558143Y-16164714D01*
X7558143Y-16269476D01*
X7558143Y-16164714D02*
X7567667Y-16145667D01*
X7586714Y-16136143D01*
X7615286Y-16136143D01*
X7634333Y-16145667D01*
X7643857Y-16164714D01*
X7643857Y-16269476D01*
X8034333Y-16059952D02*
X7862905Y-16317095D01*
X8291476Y-16069476D02*
X8310524Y-16069476D01*
X8329571Y-16079000D01*
X8339095Y-16088524D01*
X8348619Y-16107571D01*
X8358143Y-16145667D01*
X8358143Y-16193286D01*
X8348619Y-16231381D01*
X8339095Y-16250428D01*
X8329571Y-16259952D01*
X8310524Y-16269476D01*
X8291476Y-16269476D01*
X8272428Y-16259952D01*
X8262905Y-16250428D01*
X8253381Y-16231381D01*
X8243857Y-16193286D01*
X8243857Y-16145667D01*
X8253381Y-16107571D01*
X8262905Y-16088524D01*
X8272428Y-16079000D01*
X8291476Y-16069476D01*
X8443857Y-16250428D02*
X8453381Y-16259952D01*
X8443857Y-16269476D01*
X8434333Y-16259952D01*
X8443857Y-16250428D01*
X8443857Y-16269476D01*
X8577190Y-16069476D02*
X8596238Y-16069476D01*
X8615286Y-16079000D01*
X8624810Y-16088524D01*
X8634333Y-16107571D01*
X8643857Y-16145667D01*
X8643857Y-16193286D01*
X8634333Y-16231381D01*
X8624810Y-16250428D01*
X8615286Y-16259952D01*
X8596238Y-16269476D01*
X8577190Y-16269476D01*
X8558143Y-16259952D01*
X8548619Y-16250428D01*
X8539095Y-16231381D01*
X8529571Y-16193286D01*
X8529571Y-16145667D01*
X8539095Y-16107571D01*
X8548619Y-16088524D01*
X8558143Y-16079000D01*
X8577190Y-16069476D01*
X8824810Y-16069476D02*
X8729571Y-16069476D01*
X8720048Y-16164714D01*
X8729571Y-16155190D01*
X8748619Y-16145667D01*
X8796238Y-16145667D01*
X8815286Y-16155190D01*
X8824810Y-16164714D01*
X8834333Y-16183762D01*
X8834333Y-16231381D01*
X8824810Y-16250428D01*
X8815286Y-16259952D01*
X8796238Y-16269476D01*
X8748619Y-16269476D01*
X8729571Y-16259952D01*
X8720048Y-16250428D01*
X8929571Y-16269476D02*
X8967667Y-16269476D01*
X8986714Y-16259952D01*
X8996238Y-16250428D01*
X9015286Y-16221857D01*
X9024810Y-16183762D01*
X9024810Y-16107571D01*
X9015286Y-16088524D01*
X9005762Y-16079000D01*
X8986714Y-16069476D01*
X8948619Y-16069476D01*
X8929571Y-16079000D01*
X8920048Y-16088524D01*
X8910524Y-16107571D01*
X8910524Y-16155190D01*
X8920048Y-16174238D01*
X8929571Y-16183762D01*
X8948619Y-16193286D01*
X8986714Y-16193286D01*
X9005762Y-16183762D01*
X9015286Y-16174238D01*
X9024810Y-16155190D01*
X9215286Y-16269476D02*
X9101000Y-16269476D01*
X9158143Y-16269476D02*
X9158143Y-16069476D01*
X9139095Y-16098048D01*
X9120048Y-16117095D01*
X9101000Y-16126619D01*
X9291476Y-16069476D02*
X9291476Y-16107571D01*
X9367667Y-16069476D02*
X9367667Y-16107571D01*
X9662905Y-16345667D02*
X9653381Y-16336143D01*
X9634333Y-16307571D01*
X9624810Y-16288524D01*
X9615286Y-16259952D01*
X9605762Y-16212333D01*
X9605762Y-16174238D01*
X9615286Y-16126619D01*
X9624810Y-16098048D01*
X9634333Y-16079000D01*
X9653381Y-16050428D01*
X9662905Y-16040905D01*
X9777190Y-16069476D02*
X9796238Y-16069476D01*
X9815286Y-16079000D01*
X9824810Y-16088524D01*
X9834333Y-16107571D01*
X9843857Y-16145667D01*
X9843857Y-16193286D01*
X9834333Y-16231381D01*
X9824810Y-16250428D01*
X9815286Y-16259952D01*
X9796238Y-16269476D01*
X9777190Y-16269476D01*
X9758143Y-16259952D01*
X9748619Y-16250428D01*
X9739095Y-16231381D01*
X9729571Y-16193286D01*
X9729571Y-16145667D01*
X9739095Y-16107571D01*
X9748619Y-16088524D01*
X9758143Y-16079000D01*
X9777190Y-16069476D01*
X10081952Y-16269476D02*
X10081952Y-16069476D01*
X10167667Y-16269476D02*
X10167667Y-16164714D01*
X10158143Y-16145667D01*
X10139095Y-16136143D01*
X10110524Y-16136143D01*
X10091476Y-16145667D01*
X10081952Y-16155190D01*
X10291476Y-16269476D02*
X10272429Y-16259952D01*
X10262905Y-16250428D01*
X10253381Y-16231381D01*
X10253381Y-16174238D01*
X10262905Y-16155190D01*
X10272429Y-16145667D01*
X10291476Y-16136143D01*
X10320048Y-16136143D01*
X10339095Y-16145667D01*
X10348619Y-16155190D01*
X10358143Y-16174238D01*
X10358143Y-16231381D01*
X10348619Y-16250428D01*
X10339095Y-16259952D01*
X10320048Y-16269476D01*
X10291476Y-16269476D01*
X10472429Y-16269476D02*
X10453381Y-16259952D01*
X10443857Y-16240905D01*
X10443857Y-16069476D01*
X10624810Y-16259952D02*
X10605762Y-16269476D01*
X10567667Y-16269476D01*
X10548619Y-16259952D01*
X10539095Y-16240905D01*
X10539095Y-16164714D01*
X10548619Y-16145667D01*
X10567667Y-16136143D01*
X10605762Y-16136143D01*
X10624810Y-16145667D01*
X10634333Y-16164714D01*
X10634333Y-16183762D01*
X10539095Y-16202809D01*
X10710524Y-16259952D02*
X10729571Y-16269476D01*
X10767667Y-16269476D01*
X10786714Y-16259952D01*
X10796238Y-16240905D01*
X10796238Y-16231381D01*
X10786714Y-16212333D01*
X10767667Y-16202809D01*
X10739095Y-16202809D01*
X10720048Y-16193286D01*
X10710524Y-16174238D01*
X10710524Y-16164714D01*
X10720048Y-16145667D01*
X10739095Y-16136143D01*
X10767667Y-16136143D01*
X10786714Y-16145667D01*
X11034333Y-16193286D02*
X11186714Y-16193286D01*
X11110524Y-16269476D02*
X11110524Y-16117095D01*
X11424809Y-16088524D02*
X11434333Y-16079000D01*
X11453381Y-16069476D01*
X11501000Y-16069476D01*
X11520048Y-16079000D01*
X11529571Y-16088524D01*
X11539095Y-16107571D01*
X11539095Y-16126619D01*
X11529571Y-16155190D01*
X11415286Y-16269476D01*
X11539095Y-16269476D01*
X11767667Y-16259952D02*
X11786714Y-16269476D01*
X11824809Y-16269476D01*
X11843857Y-16259952D01*
X11853381Y-16240905D01*
X11853381Y-16231381D01*
X11843857Y-16212333D01*
X11824809Y-16202809D01*
X11796238Y-16202809D01*
X11777190Y-16193286D01*
X11767667Y-16174238D01*
X11767667Y-16164714D01*
X11777190Y-16145667D01*
X11796238Y-16136143D01*
X11824809Y-16136143D01*
X11843857Y-16145667D01*
X11967667Y-16269476D02*
X11948619Y-16259952D01*
X11939095Y-16240905D01*
X11939095Y-16069476D01*
X12072428Y-16269476D02*
X12053381Y-16259952D01*
X12043857Y-16250428D01*
X12034333Y-16231381D01*
X12034333Y-16174238D01*
X12043857Y-16155190D01*
X12053381Y-16145667D01*
X12072428Y-16136143D01*
X12101000Y-16136143D01*
X12120048Y-16145667D01*
X12129571Y-16155190D01*
X12139095Y-16174238D01*
X12139095Y-16231381D01*
X12129571Y-16250428D01*
X12120048Y-16259952D01*
X12101000Y-16269476D01*
X12072428Y-16269476D01*
X12196238Y-16136143D02*
X12272428Y-16136143D01*
X12224809Y-16069476D02*
X12224809Y-16240905D01*
X12234333Y-16259952D01*
X12253381Y-16269476D01*
X12272428Y-16269476D01*
X12329571Y-16259952D02*
X12348619Y-16269476D01*
X12386714Y-16269476D01*
X12405762Y-16259952D01*
X12415286Y-16240905D01*
X12415286Y-16231381D01*
X12405762Y-16212333D01*
X12386714Y-16202809D01*
X12358143Y-16202809D01*
X12339095Y-16193286D01*
X12329571Y-16174238D01*
X12329571Y-16164714D01*
X12339095Y-16145667D01*
X12358143Y-16136143D01*
X12386714Y-16136143D01*
X12405762Y-16145667D01*
X12481952Y-16345667D02*
X12491476Y-16336143D01*
X12510524Y-16307571D01*
X12520048Y-16288524D01*
X12529571Y-16259952D01*
X12539095Y-16212333D01*
X12539095Y-16174238D01*
X12529571Y-16126619D01*
X12520048Y-16098048D01*
X12510524Y-16079000D01*
X12491476Y-16050428D01*
X12481952Y-16040905D01*
M02*
